<svg width="34" height="23" viewBox="0 0 34 23" fill="none" xmlns="http://www.w3.org/2000/svg">
<path d="M20.1082 19.2549H15.8464L16.2206 18.8769C16.4996 18.5952 16.7787 18.3134 17.0641 18.0248C17.1909 17.8942 17.3178 17.7705 17.4446 17.6468C17.8061 17.2895 18.1803 16.9116 18.5164 16.513C19.1189 15.7983 19.5121 15.1455 19.7658 14.4514C20.0575 13.6474 20.1653 12.7679 20.0765 11.8402C19.9624 10.6238 19.5121 9.55184 18.7447 8.6585C18.0915 7.89573 17.2543 7.34598 16.2586 7.03675C15.6625 6.85121 15.041 6.755 14.4131 6.755C14.2039 6.755 13.9882 6.76875 13.7726 6.78936C12.8276 6.88557 12.0095 7.16044 11.2675 7.6346C11.1851 7.68957 11.1026 7.74455 11.0202 7.80639C11.0202 7.80639 11.0202 7.80639 11.0138 7.80639C11.0012 5.33941 11.0012 2.83119 11.0012 0.405438V0.171796C11.0012 0.0755901 10.9314 0 10.8426 0L5.92759 0C5.87052 0 5.81978 0.0343591 5.79441 0.0824619L5.69294 0.261129L5.45195 0.687183L3.34641 4.41171L2.35707 6.16403L1.88142 7.00239C1.39309 7.86824 0.904759 8.73409 0.416428 9.60681C0.353009 9.72363 0.276905 9.87481 0.264221 10.0604L0.264221 12.3624C0.264221 12.3624 0.264221 12.383 0.264221 12.3968L0.289589 12.5205C0.302273 12.6029 0.372035 12.6579 0.441796 12.6579H7.20233V15.654C7.20233 15.7502 7.27209 15.8258 7.36088 15.8258H10.8299C10.9187 15.8258 10.9885 15.7502 10.9885 15.654V13.1458H12.8657C12.9481 13.1458 13.0179 13.0771 13.0243 12.9878C13.0306 12.8572 13.0242 12.7335 13.0116 12.6235C13.0116 12.5754 12.9989 12.5273 12.9989 12.4792C12.9799 12.1563 13.0116 11.8814 13.094 11.634C13.297 11.0499 13.6584 10.7269 14.1975 10.6376C14.2863 10.6238 14.3687 10.617 14.4512 10.617C15.0981 10.617 15.6118 11.0224 15.8274 11.7027C15.9225 11.9982 15.9352 12.3349 15.8654 12.7747C15.783 13.3451 15.5484 13.8467 15.3264 14.259C14.9268 15.0149 14.4385 15.7021 14.0516 16.2175C13.316 17.2002 12.5042 18.1347 11.8003 18.9113C11.7051 19.0212 11.61 19.1312 11.5149 19.248C11.4261 19.3579 11.3309 19.4679 11.2358 19.571C11.109 19.7153 10.9758 19.8527 10.849 19.997C10.7094 20.1482 10.5699 20.2925 10.4367 20.4437L9.46007 21.5363L8.49609 22.6152C8.38828 22.7114 8.38828 22.8145 8.41364 22.8832C8.43901 22.9519 8.49609 23 8.56585 23H20.0892C20.1716 23 20.2414 22.9313 20.2477 22.8488C20.2668 22.6495 20.2668 22.4503 20.2604 22.251V22.0517C20.2604 21.4538 20.2604 20.856 20.2604 20.2581V19.5984V19.4885V19.4267C20.2604 19.3304 20.1907 19.2549 20.1019 19.2549H20.1082ZM4.36747 9.21512L7.2277 3.91694L7.2277 9.21512H4.36747Z" fill="black"/>
<path fill-rule="evenodd" clip-rule="evenodd" d="M29.5976 5.1C29.5976 5.04477 29.5528 5 29.4976 5H26.0309C25.9757 5 25.9309 5.04477 25.9309 5.1V8.56667C25.9309 8.6219 25.8861 8.66667 25.8309 8.66667L22.3642 8.66667C22.309 8.66667 22.2642 8.71144 22.2642 8.76667V12.2333C22.2642 12.2886 22.309 12.3333 22.3642 12.3333H25.8309C25.8861 12.3333 25.9309 12.3781 25.9309 12.4333V15.9C25.9309 15.9552 25.9757 16 26.0309 16H29.4976C29.5528 16 29.5976 15.9552 29.5976 15.9V12.4333C29.5976 12.3781 29.6423 12.3333 29.6976 12.3333H33.1642C33.2194 12.3333 33.2642 12.2886 33.2642 12.2333V8.76667C33.2642 8.71144 33.2194 8.66667 33.1642 8.66667L29.6976 8.66667C29.6423 8.66667 29.5976 8.6219 29.5976 8.56667V5.1Z" fill="black"/>
</svg>
