<svg width="430" height="1680" viewBox="0 0 430 1680" fill="none" xmlns="http://www.w3.org/2000/svg">
<path d="M212.182 588.373L212.182 588.423L212.232 588.423L212.244 588.423L212.294 588.423L212.294 588.373C212.294 588.074 212.288 587.768 212.282 587.463L212.282 587.461L212.182 587.462L212.182 588.373Z" stroke="black" stroke-width="0.1"/>
<path d="M695.179 178.248L695.229 178.248L695.229 178.198L695.229 173.861L695.229 173.811L695.179 173.811L456.885 173.811C444.815 173.811 433.461 169.108 424.931 160.572L424.895 160.607L424.931 160.572L215.812 -48.5471L215.776 -48.5824L215.741 -48.5471L212.673 -45.4792L212.638 -45.4438L212.673 -45.4085L421.792 163.711C431.164 173.089 443.631 178.248 456.885 178.248L695.179 178.248Z" stroke="black" stroke-width="0.1"/>
<path d="M202.764 -48.5348L202.729 -48.5702L202.693 -48.5348L199.625 -45.4669L199.59 -45.4315L199.625 -45.3962L417.707 172.686C427.085 182.064 439.546 187.223 452.801 187.223L694.615 187.223L694.665 187.223L694.665 187.173L694.665 182.836L694.665 182.786L694.615 182.786L452.801 182.786C440.73 182.786 429.382 178.083 420.846 169.547L202.764 -48.5348Z" stroke="black" stroke-width="0.1"/>
<path d="M34.1833 76.2157L34.1833 76.1657L34.1333 76.1657L29.7959 76.1657L29.7459 76.1657L29.7459 76.2157L29.7459 253.151C29.7459 284.275 55.07 309.593 86.1883 309.593L566.191 309.593L566.241 309.593L566.241 309.543L566.241 305.206L566.241 305.156L566.191 305.156L86.1883 305.156C57.5114 305.156 34.1834 281.828 34.1834 253.151L34.1833 76.2157Z" stroke="black" stroke-width="0.1"/>
<path d="M21.6882 76.2216L21.6882 227.811L21.6823 227.805L21.6823 227.926L21.6823 253.227C21.6823 289.259 50.9911 318.568 87.0229 318.568L566.191 318.568L566.241 318.568L566.241 318.518L566.241 314.181L566.241 314.131L566.191 314.131L87.0229 314.131C53.4443 314.131 26.1256 286.806 26.1256 253.227L26.1256 76.2216L26.1256 76.1716L26.0756 76.1716L21.7382 76.1716L21.6882 76.1716L21.6882 76.2216Z" stroke="black" stroke-width="0.1"/>
<path d="M5.71666 58.4138L10.0541 58.4138L5.71666 58.4138Z" stroke="black" stroke-width="0.1"/>
<path d="M5.71666 -47.0161L5.66666 -47.0161L5.66666 -46.9661L5.66666 54.0702L5.66666 54.1202L5.71666 54.1202L10.0541 54.1202L10.1041 54.1202L10.1041 54.0702L10.1041 -46.9661L10.1041 -47.0161L10.0541 -47.0161L5.71666 -47.0161Z" stroke="black" stroke-width="0.1"/>
<path d="M13.7745 58.4138L18.1119 58.4138L13.7745 58.4138Z" stroke="black" stroke-width="0.1"/>
<path d="M13.7745 -47.0161L13.7245 -47.0161L13.7245 -46.9661L13.7245 54.0702L13.7245 54.1202L13.7745 54.1202L18.1119 54.1202L18.1619 54.1202L18.1619 54.0702L18.1619 -46.9661L18.1619 -47.0161L18.1119 -47.0161L13.7745 -47.0161Z" stroke="black" stroke-width="0.1"/>
<path d="M21.7323 -47.0161L21.6823 -47.0161L21.6823 -46.9661L21.6823 54.0702L21.6823 54.1202L21.7323 54.1202L26.0697 54.1202L26.1197 54.1202L26.1197 54.0702L26.1197 -46.9661L26.1197 -47.0161L26.0697 -47.0161L21.7323 -47.0161Z" stroke="black" stroke-width="0.1"/>
<path d="M21.7323 58.4138L26.0697 58.4138L21.7323 58.4138Z" stroke="black" stroke-width="0.1"/>
<path d="M29.7959 58.4138L34.1333 58.4138L29.7959 58.4138Z" stroke="black" stroke-width="0.1"/>
<path d="M29.7959 -47.0161L29.7459 -47.0161L29.7459 -46.9661L29.7459 54.0702L29.7459 54.1202L29.7959 54.1202L34.1333 54.1202L34.1833 54.1202L34.1833 54.0702L34.1833 -46.9661L34.1833 -47.0161L34.1333 -47.0161L29.7959 -47.0161Z" stroke="black" stroke-width="0.1"/>
<path d="M-44.237 388.105L-44.237 383.824L-44.1619 383.824L-44.2455 383.739L-44.2514 383.733L-44.284 383.699L-44.284 322.903L-44.284 322.853L-44.334 322.853L-48.6715 322.853L-48.7215 322.853L-48.7215 322.903L-48.7214 1549.27C-48.7214 1580.39 -23.3974 1605.71 7.72097 1605.71L93.4292 1605.71C124.553 1605.71 149.872 1580.39 149.872 1549.27L149.872 1492.77L149.872 1492.72L149.82 1492.72C149.704 1492.73 149.589 1492.73 149.473 1492.74C148.747 1492.76 148.017 1492.79 147.283 1492.79L145.478 1492.79L145.428 1492.79L145.428 1492.84L145.428 1549.27C145.428 1577.94 122.1 1601.27 93.4233 1601.27L7.71513 1601.27C-20.9619 1601.27 -44.2899 1577.94 -44.2899 1549.27L-44.2899 388.155L-44.287 388.155L-44.237 388.155L-44.237 388.105Z" stroke="black" stroke-width="0.1"/>
<path d="M41.2274 853.511L41.2773 853.511L41.2773 853.461L41.2773 849.124L41.2773 849.074L41.2271 849.074L-40.0731 849.244L-40.123 849.244L-40.123 849.294L-40.123 853.632L-40.123 853.682L-40.0729 853.682L41.2274 853.511Z" stroke="black" stroke-width="0.1"/>
<path d="M41.2274 861.575L41.2773 861.575L41.2773 861.525L41.2773 857.188L41.2773 857.138L41.2272 857.138L-40.0731 857.302L-40.123 857.302L-40.123 857.352L-40.123 861.69L-40.123 861.74L-40.0729 861.74L41.2274 861.575Z" stroke="black" stroke-width="0.1"/>
<path d="M41.2274 870.561L41.2773 870.561L41.2773 870.511L41.2773 866.174L41.2773 866.124L41.2272 866.124L-40.0731 866.283L-40.123 866.283L-40.123 866.333L-40.123 870.67L-40.123 870.72L-40.0729 870.72L41.2274 870.561Z" stroke="black" stroke-width="0.1"/>
<path d="M16.1106 1051.64L16.1283 1051.64L203.569 1239.08C208.752 1244.26 214.9 1248.11 221.584 1250.55L221.636 1250.47L210.405 1239.24L210.405 1239.24L210.401 1239.24C209.12 1238.21 207.882 1237.12 206.708 1235.95L-40.0376 989.203L-40.123 989.117L-40.123 989.238L-40.123 995.374L-40.123 995.395L-40.1083 995.409L2.45177 1037.97L2.44001 1037.97L2.52537 1038.05L6.8628 1042.39L6.87744 1042.41L6.88921 1042.41L11.6849 1047.2L11.6732 1047.2L11.7586 1047.29L16.096 1051.63L16.1106 1051.64Z" stroke="black" stroke-width="0.1"/>
<path d="M523.346 975.477L523.396 975.477L523.396 975.427L523.396 971.089L523.396 971.039L523.346 971.039L349.872 971.039C335.997 971.039 322.933 965.661 313.08 955.89L229.729 873.262C218.964 862.591 204.687 856.756 189.534 856.832L62.6145 857.085L62.5646 857.085L62.5646 857.135L62.5646 861.472L62.5646 861.522L62.6147 861.522L189.546 861.27L189.546 861.27C203.521 861.205 216.679 866.583 226.602 876.418L309.954 959.047C320.642 969.641 334.819 975.477 349.872 975.477L523.346 975.477Z" stroke="black" stroke-width="0.1"/>
<path d="M306.168 968.004L306.163 968.01L306.198 968.045C316.887 978.639 331.063 984.475 346.117 984.475L523.34 984.475L523.39 984.475L523.39 984.425L523.39 980.087L523.39 980.037L523.34 980.037L346.117 980.037C332.242 980.037 319.177 974.659 309.325 964.888L225.973 882.26C215.208 871.589 200.932 865.754 185.778 865.83L62.6145 866.071L62.5646 866.071L62.5646 866.121L62.5646 870.459L62.5646 870.509L62.6147 870.509L185.796 870.268L185.797 870.268C199.771 870.197 212.929 875.575 222.853 885.411L306.168 968.004Z" stroke="black" stroke-width="0.1"/>
<path d="M523.344 967.66L523.39 967.656L523.39 967.61L523.39 963.272L523.39 963.217L523.335 963.223C521.638 963.387 519.917 963.481 518.174 963.481L354.392 963.481C340.529 963.481 327.464 958.108 317.612 948.35L233.643 865.181C222.878 854.516 208.607 848.686 193.466 848.768L62.6087 849.033L62.5588 849.033L62.5588 849.083L62.5588 853.42L62.5588 853.47L62.6089 853.47L193.478 853.2C207.441 853.13 220.599 858.502 230.517 868.331L314.485 951.501L314.5 951.515L314.506 951.515C325.192 962.094 339.357 967.918 354.392 967.918L518.174 967.918C519.921 967.918 521.639 967.813 523.344 967.66Z" stroke="black" stroke-width="0.1"/>
<path d="M54.8213 1037.96L54.7655 1037.96L54.7717 1038.02C54.9423 1039.55 55.1658 1040.98 55.4305 1042.36L55.4383 1042.4L55.4796 1042.4L523.363 1042.4L523.413 1042.4L523.413 1042.35L523.413 1038.01L523.413 1037.96L523.363 1037.96L523.219 1037.96L523.219 1037.78L523.219 1037.72L523.165 1037.73C521.638 1037.86 520.105 1037.96 518.55 1037.96L54.8272 1037.96L54.8213 1037.96Z" stroke="black" stroke-width="0.1"/>
<path d="M41.6002 1038.01L41.5957 1037.96L41.5504 1037.96L27.7917 1037.96L27.671 1037.96L27.7564 1038.05L32.0938 1042.39L32.1085 1042.4L32.1292 1042.4L42.1911 1042.4L42.2504 1042.4L42.2403 1042.34C41.9935 1040.91 41.7469 1039.47 41.6002 1038.01Z" stroke="black" stroke-width="0.1"/>
<path d="M43.3151 1047.23L43.3055 1047.2L43.2667 1047.2L37.025 1047.2L36.9043 1047.2L36.9897 1047.28L41.3271 1051.62L41.3417 1051.63L41.3625 1051.63L44.5655 1051.63L44.6355 1051.63L44.6129 1051.57C44.1254 1050.14 43.6909 1048.7 43.3151 1047.23Z" stroke="black" stroke-width="0.1"/>
<path d="M-40.073 1037.96L-40.123 1037.96L-40.123 1038.01L-40.123 1042.35L-40.123 1042.4L-40.073 1042.4L0.762268 1042.4L0.88298 1042.4L0.797623 1042.32L-3.53981 1037.98L-3.55445 1037.96L-3.57516 1037.96L-40.073 1037.96Z" stroke="black" stroke-width="0.1"/>
<path d="M-40.073 1047.2L-40.123 1047.2L-40.123 1047.25L-40.123 1051.58L-40.123 1051.63L-40.073 1051.63L9.99547 1051.63L10.1162 1051.63L10.0308 1051.55L5.6934 1047.21L5.67875 1047.2L5.65804 1047.2L-40.073 1047.2Z" stroke="black" stroke-width="0.1"/>
<path d="M237.158 1259.76L237.182 1259.79L237.214 1259.77C238.64 1259.13 240.103 1258.55 241.589 1258.02L241.663 1257.99L241.607 1257.93L-40.0435 976.284L-40.1289 976.199L-40.1289 976.32L-40.1289 982.456L-40.1289 982.476L-40.1143 982.491L-40.1084 982.497L-40.1084 982.497L237.158 1259.76Z" stroke="black" stroke-width="0.1"/>
<path d="M514.747 1384.11L514.797 1384.11L514.797 1384.06L514.797 1379.72L514.797 1379.67L514.747 1379.67L394.986 1379.67C382.916 1379.67 371.568 1374.97 363.031 1366.43L272.122 1275.53L272.107 1275.51L272.086 1275.51L265.951 1275.51L265.83 1275.51L265.915 1275.6L359.893 1369.57C369.265 1378.95 381.731 1384.11 394.986 1384.11L514.747 1384.11Z" stroke="black" stroke-width="0.1"/>
<path d="M391.081 1393.09L391.081 1393.08L514.747 1393.08L514.797 1393.08L514.797 1393.03L514.797 1388.69L514.797 1388.64L514.747 1388.64L391.031 1388.64C378.96 1388.64 367.606 1383.94 359.076 1375.4L359.041 1375.44L359.076 1375.4L259.55 1275.88L259.533 1275.86L259.509 1275.86C257.732 1276.07 255.991 1276.38 254.273 1276.78L254.185 1276.8L254.249 1276.86L355.937 1378.55C365.309 1387.93 377.776 1393.09 391.031 1393.09L391.081 1393.09Z" stroke="black" stroke-width="0.1"/>
<path d="M247.443 1244.63L247.458 1244.64L247.478 1244.64L514.771 1244.64L514.821 1244.64L514.821 1244.59L514.821 1240.26L514.821 1240.21L514.771 1240.21L243.141 1240.21L243.02 1240.21L243.105 1240.3L247.443 1244.63Z" stroke="black" stroke-width="0.1"/>
<path d="M256.412 1253.6L256.426 1253.61L256.447 1253.61L514.771 1253.61L514.821 1253.61L514.821 1253.56L514.821 1249.23L514.821 1249.18L514.771 1249.18L252.11 1249.18L251.989 1249.18L252.074 1249.27L256.412 1253.6Z" stroke="black" stroke-width="0.1"/>
<path d="M157.929 1492.03L157.929 1491.97L157.872 1491.98C156.439 1492.2 154.994 1492.36 153.537 1492.49L153.492 1492.49L153.492 1492.54L153.492 1549.34C153.492 1582.92 126.173 1610.25 92.5887 1610.25L7.6445 1610.25C-25.9341 1610.25 -53.2587 1582.92 -53.2587 1549.34L-53.2587 322.896L-53.2587 322.846L-53.3087 322.846L-57.6462 322.846L-57.6962 322.846L-57.6962 322.896L-57.6962 322.902L-57.6961 1549.34C-57.6961 1585.37 -28.3873 1614.68 7.6445 1614.68L92.5887 1614.68C128.62 1614.68 157.929 1585.37 157.929 1549.34L157.929 1492.03Z" stroke="black" stroke-width="0.1"/>
<path d="M523.396 812.896L523.396 812.846L523.346 812.846L210.775 812.846C187.189 812.847 166.485 825.41 154.998 844.19L154.951 844.266L155.041 844.266L160.195 844.266L160.222 844.266L160.236 844.244C171.183 827.995 189.751 817.284 210.775 817.284L523.346 817.284L523.396 817.284L523.396 817.234L523.396 812.896Z" stroke="black" stroke-width="0.1"/>
<path d="M170.651 844.272L170.673 844.272L170.688 844.255C180.23 833.257 194.269 826.259 209.94 826.259L523.346 826.259L523.396 826.259L523.396 826.209L523.396 821.871L523.396 821.821L523.346 821.821L209.94 821.821C191.622 821.821 175.363 830.627 165.045 844.192L164.984 844.272L165.085 844.272L170.651 844.272Z" stroke="black" stroke-width="0.1"/>
<path d="M157.929 1154.79L157.929 1051.63L523.357 1051.63L523.407 1051.63L523.407 1051.58L523.407 1047.24L523.407 1047.19L523.357 1047.19L523.213 1047.19L523.213 1047.06L523.213 1047.01L523.16 1047.01C522.835 1047.03 522.51 1047.05 522.186 1047.07C521.309 1047.13 520.434 1047.19 519.543 1047.19L56.6785 1047.19L56.6107 1047.19L56.6308 1047.26C57.1015 1048.77 57.6429 1050.22 58.2668 1051.6L58.2801 1051.63L58.3124 1051.63L145.422 1051.63L145.422 1142.39L145.422 1142.41L145.437 1142.43L149.774 1146.77L149.86 1146.85L149.86 1146.73L149.86 1051.63L153.48 1051.63L153.48 1150.45L153.48 1150.48L153.508 1150.5L153.512 1150.5L157.844 1154.83L157.929 1154.92L157.929 1154.79Z" stroke="black" stroke-width="0.1"/>
<path d="M149.822 1350.8L149.871 1350.8L149.871 1350.75L149.871 1191.83L149.871 1191.81L149.857 1191.8L145.519 1187.46L145.434 1187.38L145.434 1187.5L145.434 1350.76L145.434 1350.81L145.484 1350.81L149.822 1350.8Z" stroke="black" stroke-width="0.1"/>
<path d="M153.577 1195.52L153.492 1195.44L153.492 1195.56L153.492 1350.74L153.492 1350.79L153.542 1350.79L157.885 1350.78L157.935 1350.78L157.935 1350.73L157.935 1199.9L157.935 1199.88L157.92 1199.86L153.577 1195.52Z" stroke="black" stroke-width="0.1"/>
<path d="M145.434 1470.83L145.434 1470.88L145.484 1470.88L147.782 1470.88C148.209 1470.88 148.631 1470.85 149.052 1470.82C149.31 1470.81 149.567 1470.79 149.824 1470.78L149.872 1470.78L149.872 1470.73L149.872 1382.59L149.872 1382.54L149.821 1382.54L145.484 1382.55L145.434 1382.55L145.434 1382.6L145.434 1470.83Z" stroke="black" stroke-width="0.1"/>
<path d="M157.935 1382.57L157.935 1382.52L157.885 1382.52L153.548 1382.54L153.498 1382.54L153.498 1382.59L153.498 1470.46L153.498 1470.51L153.554 1470.51C155.024 1470.33 156.472 1470.1 157.896 1469.79L157.935 1469.79L157.935 1469.75L157.935 1382.58L157.935 1382.57Z" stroke="black" stroke-width="0.1"/>
<path d="M211.921 1519.79L211.886 1519.75L211.85 1519.79L156.198 1575.44L156.191 1575.44L156.187 1575.45C154.484 1579.58 152.394 1583.5 149.962 1587.18L150.034 1587.25C151.693 1585.96 153.305 1584.61 154.817 1583.1L214.989 1522.92L215.024 1522.89L214.989 1522.85L211.921 1519.79Z" stroke="black" stroke-width="0.1"/>
<path d="M-40.123 1479.5L-40.123 1479.55L-40.073 1479.55L147.917 1479.55C179.042 1479.55 204.36 1454.23 204.36 1423.11L204.36 1382.54L204.36 1382.49L204.311 1382.49C204.079 1382.48 203.849 1382.47 203.617 1382.46L203.531 1382.45C203.271 1382.43 203.01 1382.42 202.746 1382.42L199.972 1382.42L199.922 1382.42L199.922 1382.47L199.922 1423.11C199.922 1451.79 176.594 1475.12 147.917 1475.12L-40.073 1475.12L-40.123 1475.12L-40.123 1475.17L-40.123 1479.5Z" stroke="black" stroke-width="0.1"/>
<path d="M514.771 1262.41L514.821 1262.41L514.821 1262.36L514.821 1258.02L514.821 1257.97L514.771 1257.97L265.257 1257.97C229.231 1257.97 199.916 1287.28 199.916 1323.31L199.916 1350.64L199.916 1350.69L199.967 1350.69L204.304 1350.68L204.354 1350.68L204.354 1350.63L204.354 1323.31C204.354 1289.74 231.673 1262.41 265.251 1262.41L514.765 1262.41L514.771 1262.41Z" stroke="black" stroke-width="0.1"/>
<path d="M514.771 1271.38L514.821 1271.38L514.821 1271.33L514.821 1266.99L514.821 1266.94L514.771 1266.94L264.423 1266.94C249.346 1266.94 235.169 1272.81 224.51 1283.47C213.851 1294.13 207.98 1308.31 207.98 1323.38L207.98 1350.63L207.98 1350.68L208.03 1350.68L212.368 1350.66L212.418 1350.66L212.418 1350.61L212.418 1323.38C212.418 1309.49 217.825 1296.44 227.649 1286.61C237.472 1276.79 250.53 1271.38 264.423 1271.38L514.771 1271.38Z" stroke="black" stroke-width="0.1"/>
<path d="M12.0878 1597.6L84.005 1597.6L84.005 1597.63L84.055 1597.63L96.1622 1597.63L96.165 1597.63C102.372 1597.28 108.261 1595.77 113.633 1593.29L113.612 1593.2L-12.3029 1593.2L-12.3235 1593.29C-6.27552 1596.03 0.413934 1597.6 7.47414 1597.6L12.0878 1597.6Z" stroke="black" stroke-width="0.1"/>
<path d="M-40.123 1488.48L-40.123 1488.53L-40.073 1488.53L147.083 1488.53C183.115 1488.53 212.423 1459.22 212.423 1423.19L212.423 1383.33L212.423 1383.28L212.382 1383.28C210.947 1383.02 209.5 1382.8 208.041 1382.66L207.986 1382.65L207.986 1382.71L207.986 1423.19C207.986 1456.77 180.667 1484.09 147.083 1484.09L-40.073 1484.09L-40.123 1484.09L-40.123 1484.14L-40.123 1488.48Z" stroke="black" stroke-width="0.1"/>
<path d="M514.659 1492.06L514.659 1492.01L514.703 1492.01L514.703 1487.67L514.703 1487.62L514.653 1487.62L364.924 1487.62C351.049 1487.62 337.985 1482.24 328.132 1472.47L328.097 1472.51L328.132 1472.47L244.781 1389.84C234.016 1379.17 219.739 1373.33 204.586 1373.41L-40.0673 1373.95L-40.1172 1373.95L-40.1172 1374L-40.1172 1378.34L-40.1172 1378.39L-40.067 1378.39L204.604 1377.85C218.573 1377.78 231.731 1383.16 241.66 1393L325.011 1475.63C335.7 1486.22 349.877 1492.06 364.93 1492.06L514.603 1492.06L514.653 1492.06L514.659 1492.06Z" stroke="black" stroke-width="0.1"/>
<path d="M514.703 1483.06L514.653 1483.06L368.679 1483.06C353.629 1483.06 339.455 1477.23 328.767 1466.64L514.703 1483.06ZM514.703 1483.06L514.703 1483.01M514.703 1483.06L514.703 1483.01M514.703 1483.01L514.703 1478.67L514.703 1478.62M514.703 1483.01L514.703 1478.62M514.703 1478.62L514.653 1478.62M514.703 1478.62L514.653 1478.62M514.653 1478.62L368.679 1478.62C354.805 1478.62 341.74 1473.25 331.888 1463.48L248.536 1380.85C237.771 1370.18 223.494 1364.34 208.341 1364.42L-40.0673 1364.97L-40.1172 1364.98M514.653 1478.62L-40.1172 1364.98M-40.1172 1364.98L-40.1172 1365.02M-40.1172 1364.98L-40.1172 1365.02M-40.1172 1365.02L-40.1172 1369.36L-40.1172 1369.41M-40.1172 1365.02L-40.1172 1369.41M-40.1172 1369.41L-40.067 1369.41M-40.1172 1369.41L-40.067 1369.41M-40.067 1369.41L208.359 1368.86C222.334 1368.79 235.492 1374.17 245.416 1384.01L328.761 1466.63L-40.067 1369.41Z" stroke="black" stroke-width="0.1"/>
<path d="M514.647 1474.33L514.697 1474.33L514.697 1474.28L514.697 1469.94L514.697 1469.89L514.647 1469.89L373.199 1469.89C359.336 1469.89 346.272 1464.52 336.419 1454.76L252.45 1371.58C241.686 1360.92 227.415 1355.1 212.273 1355.17L-40.0731 1355.74L-40.123 1355.74L-40.123 1355.79L-40.123 1360.13L-40.123 1360.18L-40.0729 1360.18L212.291 1359.61C226.254 1359.54 239.413 1364.91 249.33 1374.74L333.298 1457.91C343.987 1468.5 358.158 1474.33 373.199 1474.33L514.647 1474.33Z" stroke="black" stroke-width="0.1"/>
<path d="M-39.9849 58.4519L-40.0349 58.4519L-40.0349 58.5019L-40.0349 62.8392L-40.0349 62.8893L-39.9849 62.8893L204.615 62.8892C238.194 62.8892 265.519 90.2138 265.519 123.792L265.519 184.998L265.519 185.048L265.536 185.048L265.536 300.534L265.536 300.584L265.586 300.584L269.777 300.584L269.827 300.584L269.827 300.534L269.827 185.048L269.906 185.048L269.956 185.048L269.956 184.998L269.956 123.792C269.956 87.7665 240.647 58.4519 204.615 58.4519L-39.9849 58.4519Z" stroke="black" stroke-width="0.1"/>
<path d="M256.979 185.054L256.997 185.054L256.997 300.54L256.997 300.59L257.047 300.59L261.237 300.59L261.287 300.59L261.287 300.54L261.287 185.054L261.372 185.054L261.422 185.054L261.422 185.004L261.422 123.869L261.422 123.819L261.416 123.819C261.389 92.7176 236.076 67.4266 204.974 67.4266L-39.979 67.4266L-40.029 67.4266L-40.029 67.4766L-40.029 71.814L-40.029 71.864L-39.979 71.864L204.974 71.864C233.651 71.864 256.979 95.192 256.979 123.869L256.979 185.004L256.979 185.054Z" stroke="black" stroke-width="0.1"/>
<path d="M265.536 536.228L265.536 323.161L265.536 323.16L265.499 323.088L265.58 323.088L269.771 323.088L269.821 323.088L269.821 323.138L269.821 539.11L269.821 539.16L269.81 539.16C269.833 540.709 269.855 542.26 269.877 543.811L269.877 543.833C269.899 545.394 269.921 546.954 269.944 548.513L269.944 548.513L269.944 548.516L269.944 548.518L269.944 548.521L269.944 548.523L269.944 548.526L269.944 548.528L269.944 548.531L269.944 548.533L269.944 548.536L269.944 548.538L269.944 548.541L269.944 548.543L269.944 548.545L269.944 548.548L269.944 548.55L269.944 548.553L269.944 548.555L269.944 548.558L269.944 548.56L269.944 548.563L269.944 548.565L269.944 548.568L269.944 548.57L269.944 548.573L269.944 548.575L269.944 548.578L269.944 548.58L269.944 548.582L269.944 548.585L269.944 548.587L269.944 548.59L269.944 548.592L269.944 548.595L269.944 548.597L269.944 548.6L269.944 548.602L269.944 548.605L269.944 548.607L269.944 548.61L269.944 548.612L269.944 548.614L269.944 548.617L269.944 548.619L269.944 548.622L269.944 548.624L269.944 548.627L269.944 548.629L269.944 548.632L269.944 548.634L269.944 548.636L269.944 548.639L269.944 548.641L269.944 548.644L269.944 548.646L269.944 548.649L269.944 548.651L269.944 548.654L269.944 548.656L269.944 548.658L269.944 548.661L269.944 548.663L269.944 548.666L269.944 548.668L269.944 548.671L269.944 548.673L269.944 548.676L269.944 548.678L269.944 548.68L269.944 548.683L269.944 548.685L269.944 548.688L269.944 548.69L269.944 548.693L269.944 548.695L269.944 548.698L269.944 548.7L269.944 548.702L269.944 548.705L269.944 548.707L269.944 548.71L269.944 548.712L269.944 548.715L269.944 548.717L269.944 548.719L269.944 548.722L269.944 548.724L269.944 548.727L269.944 548.729L269.944 548.732L269.944 548.734L269.944 548.736L269.944 548.739L269.944 548.741L269.944 548.744L269.944 548.746L269.944 548.749L269.944 548.751L269.944 548.753L269.944 548.756L269.944 548.758L269.944 548.761L269.944 548.763L269.944 548.765L269.944 548.768L269.944 548.77L269.944 548.773L269.944 548.775L269.944 548.778L269.944 548.78L269.944 548.782L269.944 548.785L269.944 548.787L269.944 548.79L269.944 548.792L269.944 548.794L269.944 548.797L269.944 548.799L269.944 548.802L269.944 548.804L269.944 548.807L269.944 548.809L269.944 548.811L269.944 548.814L269.944 548.816L269.944 548.819L269.944 548.821L269.944 548.823L269.944 548.826L269.944 548.828L269.944 548.831L269.944 548.833L269.944 548.835L269.944 548.838L269.944 548.84L269.944 548.843L269.944 548.845L269.944 548.847L269.944 548.85L269.944 548.852L269.944 548.855L269.944 548.857L269.944 548.859L269.944 548.862L269.944 548.864L269.944 548.867L269.944 548.869L269.944 548.872L269.944 548.874L269.944 548.876L269.944 548.879L269.944 548.881L269.944 548.883L269.944 548.886L269.944 548.888L269.944 548.891L269.944 548.893L269.944 548.895L269.944 548.898L269.944 548.9L269.944 548.903L269.944 548.905L269.944 548.907L269.944 548.91L269.944 548.912L269.944 548.915L269.944 548.917L269.944 548.919L269.944 548.922L269.944 548.924L269.944 548.927L269.944 548.929L269.944 548.931L269.944 548.934L269.944 548.936L269.944 548.939L269.944 548.941L269.944 548.943L269.944 548.946L269.944 548.948L269.944 548.951L269.944 548.953L269.944 548.955L269.944 548.958L269.944 548.96L269.944 548.962L269.944 548.965L269.944 548.967L269.944 548.97L269.944 548.972L269.944 548.974L269.944 548.977L269.944 548.979L269.944 548.982L269.944 548.984L269.944 548.986L269.944 548.989L269.944 548.991L269.944 548.993L269.944 548.996L269.944 548.998L269.944 549.001L269.944 549.003L269.944 549.005L269.944 549.008L269.944 549.01L269.944 549.012L269.944 549.015L269.944 549.017L269.944 549.02L269.944 549.022L269.944 549.024L269.944 549.027L269.944 549.029L269.944 549.032L269.944 549.034L269.944 549.036L269.944 549.039L269.944 549.041L269.944 549.043L269.944 549.046L269.944 549.048L269.944 549.051L269.944 549.053L269.944 549.055L269.944 549.058L269.944 549.06L269.944 549.062L269.944 549.065L269.944 549.067L269.944 549.07L269.944 549.072L269.944 549.074L269.944 549.077L269.944 549.079L269.944 549.081L269.944 549.084L269.944 549.086L269.944 549.089L269.944 549.091L269.944 549.093L269.944 549.096L269.944 549.098L269.944 549.1L269.944 549.103L269.944 549.105L269.944 549.107L269.944 549.11L269.944 549.112L269.944 549.115L269.944 549.117L269.944 549.119L269.944 549.122L269.944 549.124L269.944 549.126L269.944 549.129L269.944 549.131L269.944 549.134L269.944 549.136L269.944 549.138L269.944 549.141L269.944 549.143L269.944 549.145L269.944 549.148L269.944 549.15L269.944 549.152L269.944 549.155L269.944 549.157L269.944 549.16L269.944 549.162L269.944 549.164L269.944 549.167L269.944 549.169L269.944 549.171L269.944 549.174L269.944 549.176L269.944 549.178L269.944 549.181L269.944 549.183L269.944 549.186L269.944 549.188L269.944 549.19L269.944 549.193L269.944 549.195L269.944 549.197L269.944 549.2L269.944 549.202L269.944 549.204L269.944 549.207L269.944 549.209L269.944 549.212L269.944 549.214L269.944 549.216L269.944 549.219L269.944 549.221L269.944 549.223L269.944 549.226L269.944 549.228L269.944 549.23L269.944 549.233L269.944 549.235L269.944 549.238L269.944 549.24L269.944 549.242L269.944 549.245L269.944 549.247L269.944 549.249L269.944 549.252L269.944 549.254L269.944 549.256L269.944 549.259L269.944 549.261L269.944 549.263L269.944 549.266L269.944 549.268L269.944 549.271L269.944 549.273L269.944 549.275L269.944 549.278L269.944 549.28L269.944 549.282L269.944 549.285L269.944 549.287L269.944 549.289L269.944 549.292L269.944 549.294L269.944 549.297L269.944 549.299L269.944 549.301L269.944 549.304L269.944 549.306L269.944 549.308L269.944 549.311L269.944 549.313L269.944 549.315L269.944 549.318L269.944 549.32L269.944 549.322L269.944 549.325L269.944 549.327L269.944 549.33L269.944 549.332L269.944 549.334L269.944 549.337L269.944 549.339L269.944 549.341L269.944 549.344L269.944 549.346L269.944 549.348L269.944 549.351L269.944 549.353L269.944 549.355L269.944 549.358L269.944 549.36L269.944 549.363L269.944 549.365L269.944 549.367L269.944 549.37L269.944 549.372L269.944 549.374L269.944 549.377L269.944 549.379L269.944 549.381L269.944 549.384L269.944 549.386L269.944 549.388L269.944 549.391L269.944 549.393L269.944 549.396L269.944 549.398L269.944 549.4L269.944 549.403L269.944 549.405L269.944 549.407L269.944 549.41L269.944 549.412L269.944 549.414L269.944 549.417L269.944 549.419L269.944 549.421L269.944 549.424L269.944 549.426L269.944 549.429L269.944 549.431L269.944 549.433L269.944 549.436L269.944 549.438L269.944 549.44L269.944 549.443L269.944 549.445L269.944 549.447L269.944 549.45L269.944 549.452L269.944 549.454L269.944 549.457L269.944 549.459L269.944 549.462L269.944 549.464L269.944 549.466L269.944 549.469L269.944 549.471L269.944 549.473L269.944 549.476L269.944 549.478L269.944 549.48L269.944 549.483L269.944 549.485L269.944 549.487L269.944 549.49L269.944 549.492L269.944 549.495L269.944 549.497L269.944 549.499L269.944 549.502L269.944 549.504L269.944 549.506L269.944 549.509L269.944 549.511L269.944 549.513L269.944 549.516L269.944 549.518L269.944 549.52L269.944 549.523L269.944 549.525L269.944 549.528L269.944 549.53L269.944 549.532L269.944 549.535L269.944 549.537L269.944 549.539L269.944 549.542L269.944 549.544L269.944 549.546L269.944 549.549L269.944 549.551L269.944 549.554L269.944 549.556L269.944 549.558L269.944 549.561L269.944 549.563L269.944 549.565L269.944 549.568L269.944 549.57L269.944 549.572L269.944 549.575L269.944 549.577L269.944 549.579L269.944 549.582L269.944 549.584L269.944 549.587L269.944 549.589L269.944 549.591L269.944 549.594L269.944 549.596L269.944 549.598L269.944 549.601L269.944 549.603L269.944 549.605L269.944 549.608L269.944 549.61L269.944 549.613L269.944 549.615L269.944 549.617L269.944 549.62L269.944 549.622L269.944 549.624L269.944 549.627L269.944 549.629L269.944 549.632L269.944 549.634L269.944 549.636L269.944 549.639L269.944 549.641L269.944 549.643L269.944 549.646L269.944 549.648L269.944 549.65L269.944 549.653L269.944 549.655L269.944 549.658L269.944 549.66L269.944 549.662L269.944 549.665L269.944 549.667L269.944 549.669L269.944 549.672L269.944 549.674L269.944 549.676L269.944 549.679L269.944 549.681L269.944 549.684L269.944 549.686L269.944 549.688L269.944 549.691L269.944 549.693L269.944 549.695L269.944 549.698L269.944 549.7L269.944 549.703L269.944 549.705L269.944 549.707L269.944 549.71L269.944 549.712L269.944 549.714L269.944 549.717L269.944 549.719L269.944 549.722L269.944 549.724L269.944 549.726L269.944 549.729L269.944 549.731L269.944 549.733L269.944 549.736L269.944 549.736C269.932 550.848 269.927 551.889 270.102 552.895C270.227 553.573 270.161 554.185 270.103 554.719C270.103 554.719 270.103 554.719 270.103 554.719L270.053 554.714C270.049 554.749 270.046 554.783 270.042 554.818C270.021 555.014 270 555.214 270 555.413L265.536 536.228ZM265.536 536.228L265.494 536.207L265.495 536.289L265.724 552.746C265.742 553.954 265.758 555.159 265.774 556.366C265.79 557.518 265.806 558.67 265.822 559.826C264.422 558.488 262.99 557.106 261.643 555.702C261.142 555.177 260.618 554.706 260.107 554.248L260.107 554.248C259.56 553.759 259.044 553.297 258.582 552.793C257.931 552.083 257.236 551.423 256.561 550.781C256.497 550.72 256.433 550.659 256.37 550.599L256.37 550.599C256.052 550.299 255.741 550 255.43 549.7L242.994 537.605L242.993 537.604C242.147 536.787 241.295 535.97 240.448 535.159L240.448 535.159C238.509 533.308 236.511 531.392 234.619 529.448C232.631 527.395 230.812 525.852 228.91 524.581L228.91 524.581C223.542 521.008 217.585 519.165 211.216 519.095C201.705 518.995 193.528 522.397 186.912 529.201C181.603 534.663 178.548 541.286 177.83 548.897C176.229 565.843 187.636 581.117 204.359 584.467L204.359 584.467C205.342 584.661 206.384 584.802 207.532 584.908L207.586 584.913L207.586 584.858L207.586 580.58L207.586 580.535L207.542 580.53C200.947 579.767 195.262 577.068 190.651 572.504C184.877 566.789 181.973 559.843 182.05 551.811L182.05 551.811C182.161 538.146 191.93 526.436 205.277 523.96C214.929 522.171 223.417 524.705 230.505 531.482C236.735 537.441 243.012 543.565 249.083 549.49L249.106 549.512C251.778 552.12 254.451 554.728 257.123 557.33L259.033 559.199L259.068 559.163L259.033 559.199C259.162 559.324 259.29 559.45 259.419 559.575C260.847 560.972 262.274 562.367 263.73 563.737C264.144 564.128 264.574 564.475 264.987 564.809L265.038 564.85L265.038 564.85C265.638 565.332 266.198 565.788 266.653 566.307C266.848 566.531 267.048 566.749 267.26 566.978L267.26 566.979L267.565 567.307C267.565 567.307 267.565 567.307 267.565 567.307L265.536 536.228Z" stroke="black" stroke-width="0.1"/>
<path d="M275.093 569.385C275.139 570.896 275.154 572.403 275.168 573.909C275.171 574.125 275.173 574.341 275.175 574.556L275.187 575.867L275.187 575.867C275.198 576.872 274.49 577.835 273.51 578.164C272.511 578.497 271.463 578.137 270.781 577.212L270.781 577.211C270.413 576.719 269.969 576.281 269.413 575.862L269.413 575.861C269.048 575.591 268.71 575.334 268.449 575.067C267.067 573.632 265.62 572.251 264.216 570.911C264.095 570.795 263.975 570.68 263.854 570.565C263.029 569.776 262.205 568.989 261.396 568.184L261.396 568.184C255.547 562.389 249.541 556.565 243.728 550.928L243.693 550.964L243.728 550.928C238.791 546.144 233.69 541.196 228.712 536.294C226.106 533.723 223.856 532.056 221.411 530.883C212.511 526.596 201.798 528.31 194.754 535.154C189.636 540.118 187.168 546.244 187.427 553.387C187.834 564.608 196.462 574.161 207.541 575.763L207.598 575.771L207.598 575.713L207.598 571.399L207.598 571.358L207.558 571.35L207.382 571.315C199.585 569.744 193.424 563.454 192.052 555.663L192.052 555.663C191.137 550.481 192.345 545.252 195.458 540.943L195.417 540.914L195.458 540.943C198.536 536.681 203.061 533.915 208.196 533.164C214.475 532.244 220.008 534.014 224.646 538.435L224.68 538.399L224.646 538.435C231.581 545.04 238.55 551.839 245.307 558.431L245.969 559.077L275.143 569.383M275.093 569.385L275.143 569.383M275.093 569.385C275.093 569.385 275.093 569.385 275.093 569.385L275.143 569.383M275.093 569.385C275.069 568.691 275.057 568.003 275.046 567.31L275.045 567.268C275.027 566.159 275.01 565.016 274.946 563.903M275.143 569.383C275.119 568.69 275.107 568.002 275.096 567.309L275.095 567.267C275.077 566.157 275.06 565.014 274.996 563.9M274.946 563.903L274.996 563.9M274.946 563.903C274.887 562.925 274.905 561.948 274.922 561.001C274.934 560.414 274.94 559.833 274.934 559.252M274.946 563.903C274.946 563.903 274.946 563.903 274.946 563.903L274.996 563.9M274.996 563.9L274.934 559.252M274.934 559.252L274.984 559.251L274.934 559.252C274.934 559.252 274.934 559.252 274.934 559.252ZM274.934 559.252C274.893 556.113 274.849 552.974 274.805 549.834L274.805 549.8C274.761 546.649 274.716 543.498 274.675 540.345L274.674 540.263L274.716 540.284M274.934 559.252L267.73 580.285M267.73 580.285C267.73 580.285 267.73 580.285 267.73 580.285C268.059 580.637 268.445 581.047 268.956 581.385L268.956 581.386C271.18 582.841 273.556 582.99 275.836 581.8M267.73 580.285L267.767 580.251L267.73 580.285ZM275.836 581.8C278.228 580.556 279.477 578.423 279.454 575.642C279.43 573.232 279.395 570.817 279.36 568.407L279.007 543.312L278.957 543.312M275.836 581.8L275.813 581.755M275.836 581.8C275.836 581.8 275.836 581.8 275.836 581.799L275.813 581.755M278.957 543.312L279.007 543.311L279.007 323.138L279.007 323.088L278.957 323.088L274.766 323.088L274.716 323.088L274.716 323.138L274.716 540.284M278.957 543.312L279.31 568.408C279.345 570.818 279.38 573.233 279.404 575.643C279.427 578.405 278.187 580.521 275.813 581.755M278.957 543.312L278.957 323.188L278.957 323.138L278.907 323.138L274.816 323.138L274.766 323.138L275.813 581.755M274.716 540.284L274.716 540.344L274.716 540.362M274.716 540.284L274.748 540.299C274.751 540.301 274.759 540.304 274.766 540.308L274.766 540.343L274.725 540.344L274.716 540.362M274.716 540.362L274.703 540.389C274.709 540.392 274.718 540.396 274.726 540.399C274.726 540.386 274.726 540.374 274.726 540.362L274.716 540.362ZM275.813 581.755C273.55 582.936 271.193 582.79 268.983 581.344L275.813 581.755ZM264.681 577.218L264.646 577.253C264.646 577.253 264.646 577.253 264.646 577.253L264.681 577.218ZM267.332 579.875C267.332 579.875 267.332 579.875 267.332 579.875C267.332 579.875 267.332 579.875 267.333 579.875L267.367 579.839L267.332 579.875Z" stroke="black" stroke-width="0.1"/>
<path d="M274.634 257.309L274.64 257.309L274.64 300.534L274.64 300.584L274.69 300.584L279.027 300.584L279.077 300.584L279.077 300.534L279.077 257.259C279.077 223.681 306.396 196.356 339.975 196.356L694.127 196.356L694.177 196.356L694.177 196.306L694.177 191.969L694.177 191.919L694.127 191.919L339.975 191.919C303.949 191.919 274.634 221.227 274.634 257.259L274.634 257.309Z" stroke="black" stroke-width="0.1"/>
<path d="M283.186 300.534L283.186 300.584L283.236 300.584L287.573 300.584L287.623 300.584L287.623 300.534L287.623 257.336C287.623 228.659 310.951 205.331 339.628 205.331L694.615 205.331L694.665 205.331L694.665 205.281L694.665 200.943L694.665 200.893L694.615 200.893L339.628 200.893C308.504 200.893 283.186 226.211 283.186 257.336L283.186 300.534Z" stroke="black" stroke-width="0.1"/>
<path d="M-146.828 383.818L-146.778 383.818L-146.778 383.768L-146.778 318.568L-143.158 318.568L-143.158 608.062C-143.158 641.641 -170.476 668.965 -204.055 668.965L-340.378 668.965L-340.499 668.965L-340.413 669.05L-336.076 673.388L-336.061 673.403L-336.041 673.403L-204.055 673.403C-168.029 673.403 -138.714 644.094 -138.714 608.062L-138.714 318.568L-47.167 318.568C-11.1411 318.568 18.1736 289.259 18.1736 253.228L18.1736 76.2218L18.1736 76.1719L18.1236 76.1719L13.7862 76.1719L13.7362 76.1719L13.7362 76.2218L13.7362 253.228C13.7362 286.812 -13.5825 314.131 -47.1611 314.131L-138.708 314.131L-138.708 309.594L-46.3266 309.594C-15.2023 309.594 10.1159 284.275 10.1159 253.151L10.1158 76.2159L10.1158 76.1659L10.0659 76.1659L5.72843 76.1659L5.67844 76.1659L5.67844 76.2159L5.67845 253.151C5.67845 281.828 -17.6496 305.156 -46.3266 305.156L-138.708 305.156L-138.708 76.6685L-138.708 76.6185L-138.758 76.6185L-143.096 76.6185L-143.146 76.6185L-143.146 76.6685L-143.146 305.156L-146.766 305.156L-146.766 76.6685L-146.766 76.6185L-146.816 76.6185L-151.154 76.6185L-151.204 76.6185L-151.204 76.6685L-151.204 305.156L-457.853 305.156L-457.903 305.156L-457.903 305.206L-457.903 309.544L-457.903 309.594L-457.853 309.594L-151.221 309.594L-151.221 314.131L-457.853 314.131L-457.903 314.131L-457.903 314.181L-457.903 318.518L-457.903 318.568L-457.853 318.568L-151.221 318.568L-151.221 383.768L-151.221 383.818L-151.171 383.818L-146.834 383.818L-146.828 383.818ZM-146.778 314.131L-146.778 309.594L-143.158 309.594L-143.158 314.131L-146.778 314.131Z" stroke="black" stroke-width="0.1"/>
<path d="M-240.882 1618.33L-240.932 1618.33L-240.932 1618.38L-240.932 1622.71L-240.932 1622.76L-240.882 1622.76L438.689 1622.76L466.495 1622.76C497.754 1622.76 523.184 1597.33 523.184 1566.07L523.184 1085.07C523.184 1074.61 520.319 1064.83 515.366 1056.41L515.352 1056.39L515.323 1056.39L510.198 1056.39L510.105 1056.39L510.156 1056.47C515.57 1064.69 518.747 1074.5 518.747 1085.07L518.747 1566.07C518.747 1594.89 495.307 1618.33 466.495 1618.33L438.701 1618.33L-240.882 1618.33Z" stroke="black" stroke-width="0.1"/>
<mask id="path-57-outside-1_5_1286" maskUnits="userSpaceOnUse" x="-241.882" y="322.21" width="808" height="1319" fill="black">
<rect fill="white" x="-241.882" y="322.21" width="808" height="1319"/>
<path d="M540.113 747.048L540.113 671.66C540.113 635.661 510.827 606.369 474.823 606.369L400.281 606.369L238.792 606.369L238.727 601.72L565.938 601.72L565.938 597.394L238.662 597.395L238.186 563.336C242.406 567.438 246.626 571.546 250.846 575.649L261.354 585.863C261.46 585.969 261.566 586.081 261.672 586.187L261.866 586.386C263.077 587.609 264.381 588.584 265.774 589.319L238.645 589.319L238.645 593.645L565.938 593.645L565.938 589.319L279.697 589.319C283.271 587.485 286.045 584.253 287.285 580.186C287.473 579.575 287.573 578.987 287.673 578.417C287.738 578.046 287.802 577.67 287.89 577.312C287.92 577.194 287.932 577.077 287.932 576.959L287.508 547.009L287.508 323.144L283.318 323.144L283.318 544.252C283.318 544.252 283.294 544.246 283.288 544.24C283.3 545.01 283.312 545.774 283.318 546.544L283.318 549.313L283.359 549.313C283.447 555.831 283.541 562.343 283.629 568.855C283.629 568.855 283.629 568.854 283.629 568.86C283.641 569.583 283.7 570.289 283.759 570.97C283.847 571.975 283.923 572.922 283.847 573.844C283.806 574.35 283.776 574.861 283.753 575.366C283.688 576.695 283.623 577.953 283.241 579.128C281.802 583.554 278.064 586.492 273.497 586.798C269.976 587.033 267.026 585.805 264.475 583.042C263.547 582.037 262.571 581.132 261.648 580.309C261.36 580.051 261.09 579.775 260.814 579.504C260.649 579.34 260.485 579.175 260.32 579.016L251.645 570.582C241.795 561.008 231.945 551.434 222.112 541.848C219.52 539.321 217.022 537.828 214.242 537.152C210.099 536.147 205.691 537.029 202.147 539.58C198.632 542.107 196.411 545.968 196.058 550.171C195.417 557.782 200.184 564.282 207.542 566.033L207.542 561.696C205.685 561.096 204.016 560.033 202.717 558.51C200.836 556.301 199.949 553.497 200.225 550.612C200.542 547.256 202.37 544.317 205.232 542.548C208.106 540.773 211.556 540.461 214.712 541.69C216.57 542.413 218.074 543.782 219.332 545.01C225.356 550.87 231.38 556.724 237.405 562.583L233.861 562.63L234.589 614.462L234.46 614.462L234.489 618.788L234.648 618.788L235.218 659.347C235.218 659.406 235.218 659.464 235.218 659.517C235.218 664.783 231.833 668.139 228.642 669.526C225.415 670.931 220.584 671.101 216.705 667.387L166.072 618.788L172.073 618.788L219.585 664.401C221.589 666.329 224.416 666.84 226.967 665.73C229.482 664.636 231.034 662.268 231.034 659.535L231.034 659.429L229.47 562.695L225.145 562.76L226.708 659.488L226.708 659.529C226.708 661.01 225.585 661.61 225.239 661.757C224.892 661.909 223.664 662.321 222.576 661.28L178.309 618.788L185.097 618.788L218.139 650.507C218.768 651.113 219.696 651.277 220.496 650.937C221.283 650.59 221.795 649.814 221.795 648.95L221.795 648.921L220.66 562.777L216.335 562.836L217.404 643.807L212.943 639.523L211.856 562.207L207.53 562.266L207.883 587.574C207.507 587.538 207.131 587.497 206.772 587.45C199.22 586.504 192.549 583.495 186.954 578.511C180.724 572.963 176.839 566.174 175.405 558.334C173.16 546.027 176.387 535.178 184.997 526.08C190.492 520.267 197.269 516.705 205.138 515.495C216.799 513.696 227.096 516.805 235.735 524.722C240.414 529.007 245.022 533.538 249.477 537.916C251.892 540.291 254.308 542.665 256.747 545.016C257.223 545.475 257.716 545.921 258.245 546.397L259.015 547.097C259.427 547.473 260.02 547.567 260.526 547.338C261.031 547.109 261.354 546.603 261.349 546.045L261.208 535.848L261.225 535.848L261.225 323.149L257.035 323.149L257.035 474.095L256.988 474.095L256.347 474.166C255.877 474.219 255.401 474.266 254.931 474.336C249.095 475.183 244.205 477.622 240.396 481.577C234.537 487.666 232.233 495.024 233.537 503.429C234.495 509.612 237.74 514.913 243.176 519.192C246.362 521.695 250.211 523.312 254.631 523.987C255.501 524.123 256.277 524.17 257.041 524.205L257.041 532.457C257.041 532.457 257.011 532.445 256.994 532.433L257.093 539.533C255.46 537.94 253.837 536.342 252.209 534.737C247.772 530.364 243.182 525.845 238.492 521.56C228.894 512.785 217.44 509.353 204.451 511.363C195.623 512.733 188.03 516.741 181.882 523.276C172.437 533.309 168.858 545.228 171.232 558.675C173.619 572.181 182.587 583.271 195.118 588.614L195.118 589.325L133.877 589.325C105.172 589.325 81.8215 565.975 81.8215 537.27L81.8215 449.064C81.8215 413.066 52.5351 383.773 16.5309 383.773L-39.9438 383.773L-39.9438 388.111L16.5309 388.111C50.1372 388.111 77.4782 415.458 77.4782 449.064L77.4782 537.27C77.4782 568.367 102.78 593.662 133.871 593.662L207.924 593.662L207.924 590.107L208.024 597.406L133.794 597.406C100.188 597.406 72.8469 570.059 72.8469 536.453L72.8469 448.247C72.8469 417.15 47.5453 391.855 16.4545 391.855L-39.9438 391.855L-39.9438 396.192L16.4545 396.192C45.1591 396.192 68.5095 419.542 68.5095 448.247L68.5095 536.453C68.5095 572.451 97.796 601.744 133.8 601.744L208.089 601.744L208.153 606.387L155.781 606.387L102.045 606.387C94.7574 606.387 87.7869 607.774 81.3866 610.307C80.5344 610.642 79.6881 611 78.8594 611.377C76.7788 612.317 74.7629 613.387 72.8234 614.562C72.0476 615.032 71.2836 615.526 70.5372 616.031C69.4146 616.789 68.3156 617.595 67.2518 618.429C66.5406 618.988 65.8471 619.564 65.1595 620.157C64.8186 620.451 64.4777 620.751 64.1486 621.056C62.1444 622.878 60.2696 624.841 58.5475 626.934C58.2595 627.28 57.9774 627.633 57.6953 627.992C57.137 628.703 56.5963 629.426 56.0673 630.166C55.2798 631.271 54.5333 632.405 53.8222 633.569C52.8818 635.121 52.0061 636.719 51.2186 638.359C50.8248 639.182 50.4428 640.011 50.0901 640.857C49.3731 642.544 48.7384 644.272 48.1918 646.035C47.7804 647.357 47.416 648.703 47.0986 650.067C46.7812 651.43 46.5168 652.811 46.3052 654.21C45.8761 657.008 45.6528 659.87 45.6528 662.785L45.6528 1031.82C45.6528 1046.96 51.5477 1061.19 62.2502 1071.9L246.749 1256.38C248.407 1255.95 250.082 1255.58 251.786 1255.28L65.3182 1068.83C55.4326 1058.94 49.9903 1045.8 49.9902 1031.82L49.9902 662.785C49.9902 659.2 50.3546 655.691 51.0481 652.306C51.5712 649.767 52.2765 647.293 53.1522 644.906C53.2991 644.507 53.4519 644.113 53.6047 643.719C54.069 642.538 54.5804 641.38 55.127 640.24C55.3091 639.858 55.4973 639.482 55.6912 639.111C56.2671 637.989 56.8842 636.89 57.5366 635.82C57.7541 635.462 57.9774 635.109 58.2008 634.756C59.1059 633.346 60.0756 631.988 61.1041 630.672C61.6213 630.013 62.1503 629.373 62.6969 628.744C65.7002 625.282 69.1501 622.214 72.9586 619.64C75.0333 618.235 77.2196 616.978 79.4941 615.879C80.2523 615.514 81.0222 615.162 81.798 614.833C88.0221 612.194 94.8632 610.736 102.039 610.736L155.775 610.736L155.775 610.73L208.206 610.73L208.377 622.702L204.439 618.811L208.295 618.811L208.259 614.486L155.587 614.486L104.661 614.486C100.288 614.486 96.0504 615.044 92.001 616.084C89.5737 616.713 87.211 617.512 84.9365 618.476C81.1456 620.081 77.5899 622.138 74.3339 624.571C73.0291 625.547 71.7772 626.581 70.5783 627.674C69.9788 628.221 69.391 628.779 68.8151 629.355C59.6289 638.541 53.9456 651.219 53.9456 665.201L53.9456 976.138C53.9456 1007.36 79.3472 1032.76 110.567 1032.76L466.454 1032.76C468.605 1032.76 470.715 1032.93 472.795 1033.18L489.11 1033.18C482.164 1030.14 474.506 1028.42 466.448 1028.42L157.868 1028.42L157.868 878.293C157.868 877.176 157.926 876.077 157.997 874.978L153.648 874.978C153.583 876.077 153.53 877.176 153.53 878.293L153.53 1028.42L149.81 1028.42L149.81 878.216C149.81 877.129 149.857 876.054 149.916 874.978L145.566 874.978C145.513 876.054 145.472 877.129 145.472 878.216L145.472 1028.42L110.561 1028.42C81.7334 1028.42 58.2772 1004.97 58.2772 976.138L58.2772 665.201C58.2772 659.605 59.2704 654.239 61.0982 649.267C61.8799 647.14 62.8144 645.083 63.8841 643.108C65.3122 640.481 66.9872 638.006 68.8797 635.714C70.2961 633.998 71.8361 632.382 73.4876 630.883C81.7275 623.39 92.6651 618.817 104.655 618.817L155.581 618.817L155.581 618.811L159.813 618.811L213.69 670.531C218.215 674.875 224.592 676.021 230.34 673.523C236.018 671.054 239.52 665.712 239.52 659.541C239.52 659.464 239.52 659.388 239.52 659.312L238.95 618.811L401.257 618.811L475.311 618.811C504.015 618.811 527.366 642.162 527.366 670.866L527.366 1566.76C527.366 1600.16 500.189 1627.35 466.783 1627.35L-240.882 1627.35L-240.882 1631.68L466.795 1631.68C502.593 1631.68 531.715 1602.56 531.715 1566.77L531.715 670.849C531.715 639.752 506.413 614.456 475.322 614.456L401.269 614.456L401.269 614.462L238.903 614.462L238.85 610.707L400.276 610.707L474.817 610.707C508.423 610.707 535.764 638.053 535.764 671.66L535.764 1567.54C535.764 1605.22 505.114 1635.87 467.435 1635.87L-240.882 1635.87L-240.882 1640.21L467.441 1640.21C507.512 1640.21 540.114 1607.61 540.114 1567.54L540.113 747.048ZM257.041 514.443C257.041 514.443 257.023 514.443 257.017 514.431C254.537 511.974 252.421 509.135 250.705 505.938C252.35 502.712 253.726 499.749 254.901 496.881C254.948 496.77 254.966 496.758 255.048 496.729C255.73 496.476 256.371 496.341 257.041 496.264L257.041 514.443ZM251.804 496.87L250.581 499.485C249.87 501.013 249.159 502.541 248.407 504.105C246.268 503.799 244.175 503.094 242.189 502.447C242.183 502.435 242.165 502.4 242.13 502.271C241.777 500.931 241.648 499.562 241.566 497.922C241.536 497.375 241.548 496.828 241.554 496.288L241.554 495.518C241.56 495.4 241.53 495.283 241.472 495.183C241.472 495.03 241.472 494.877 241.448 494.724C241.395 494.407 241.46 494.154 241.954 493.76C243.605 492.432 245.427 491.433 247.666 490.346C247.696 490.375 247.731 490.411 247.754 490.44C248.518 491.269 249.23 492.174 249.923 493.049C250.47 493.749 251.022 494.448 251.604 495.118C252.127 495.718 252.168 496.1 251.804 496.875L251.804 496.87ZM257.041 493.743C256.488 493.766 255.942 493.825 255.389 494.002L255.119 494.078C254.931 494.131 254.748 494.184 254.549 494.26L253.638 493.067C252.674 491.798 251.675 490.481 250.581 489.259C250.182 488.812 249.776 488.371 249.377 488.03C250.264 485.086 251.639 482.359 253.467 479.931C253.579 479.784 253.743 479.72 254.143 479.661C255.107 479.52 256.071 479.385 257.035 479.25L257.035 493.737L257.041 493.743ZM237.869 489.799C239.603 486.061 242.159 483.011 245.462 480.748C246.626 479.949 247.872 479.238 249.265 478.58C249.653 478.397 249.829 478.439 250.058 478.597C250.346 478.797 250.652 478.973 250.952 479.144C249.153 481.695 247.813 484.469 246.967 487.39C246.938 487.484 246.932 487.513 246.785 487.583C244.551 488.606 242.195 489.799 240.096 491.556C239.985 491.651 239.873 491.745 239.761 491.845L237.869 489.793L237.869 489.799ZM236.864 492.415L237.563 493.185C237.816 493.473 238.069 493.755 238.351 494.007C238.527 494.166 238.604 494.342 238.615 494.771C238.58 497.158 238.633 499.726 239.191 502.212C239.368 502.988 239.297 503.582 238.956 504.257C238.398 505.356 237.939 506.561 237.557 507.89C235.459 502.847 235.236 497.763 236.864 492.421L236.864 492.415ZM245.298 517.428C245.004 517.322 244.734 517.099 244.451 516.87L244.216 516.682C241.883 514.842 240.443 513.126 239.562 511.122C239.491 510.957 239.456 510.84 239.456 510.722C239.456 510.67 239.462 510.622 239.473 510.564C239.879 508.648 240.473 506.873 241.278 505.157C242.471 505.603 243.511 505.944 244.51 506.22C245.815 506.579 247.114 506.843 248.472 507.084C250.241 510.429 252.486 513.467 255.189 516.153C254.607 517.37 254.061 518.327 253.391 519.203C250.235 518.862 247.666 518.298 245.304 517.434L245.298 517.428ZM256.67 519.544C256.811 519.303 256.917 519.074 257.041 518.839L257.041 519.679C256.917 519.632 256.794 519.597 256.67 519.544ZM198.291 618.782L208.471 628.838L208.559 635.315L191.339 618.788L198.291 618.788L198.291 618.782Z"/>
</mask>
<path d="M540.113 747.048L540.113 671.66C540.113 635.661 510.827 606.369 474.823 606.369L400.281 606.369L238.792 606.369L238.727 601.72L565.938 601.72L565.938 597.394L238.662 597.395L238.186 563.336C242.406 567.438 246.626 571.546 250.846 575.649L261.354 585.863C261.46 585.969 261.566 586.081 261.672 586.187L261.866 586.386C263.077 587.609 264.381 588.584 265.774 589.319L238.645 589.319L238.645 593.645L565.938 593.645L565.938 589.319L279.697 589.319C283.271 587.485 286.045 584.253 287.285 580.186C287.473 579.575 287.573 578.987 287.673 578.417C287.738 578.046 287.802 577.67 287.89 577.312C287.92 577.194 287.932 577.077 287.932 576.959L287.508 547.009L287.508 323.144L283.318 323.144L283.318 544.252C283.318 544.252 283.294 544.246 283.288 544.24C283.3 545.01 283.312 545.774 283.318 546.544L283.318 549.313L283.359 549.313C283.447 555.831 283.541 562.343 283.629 568.855C283.629 568.855 283.629 568.854 283.629 568.86C283.641 569.583 283.7 570.289 283.759 570.97C283.847 571.975 283.923 572.922 283.847 573.844C283.806 574.35 283.776 574.861 283.753 575.366C283.688 576.695 283.623 577.953 283.241 579.128C281.802 583.554 278.064 586.492 273.497 586.798C269.976 587.033 267.026 585.805 264.475 583.042C263.547 582.037 262.571 581.132 261.648 580.309C261.36 580.051 261.09 579.775 260.814 579.504C260.649 579.34 260.485 579.175 260.32 579.016L251.645 570.582C241.795 561.008 231.945 551.434 222.112 541.848C219.52 539.321 217.022 537.828 214.242 537.152C210.099 536.147 205.691 537.029 202.147 539.58C198.632 542.107 196.411 545.968 196.058 550.171C195.417 557.782 200.184 564.282 207.542 566.033L207.542 561.696C205.685 561.096 204.016 560.033 202.717 558.51C200.836 556.301 199.949 553.497 200.225 550.612C200.542 547.256 202.37 544.317 205.232 542.548C208.106 540.773 211.556 540.461 214.712 541.69C216.57 542.413 218.074 543.782 219.332 545.01C225.356 550.87 231.38 556.724 237.405 562.583L233.861 562.63L234.589 614.462L234.46 614.462L234.489 618.788L234.648 618.788L235.218 659.347C235.218 659.406 235.218 659.464 235.218 659.517C235.218 664.783 231.833 668.139 228.642 669.526C225.415 670.931 220.584 671.101 216.705 667.387L166.072 618.788L172.073 618.788L219.585 664.401C221.589 666.329 224.416 666.84 226.967 665.73C229.482 664.636 231.034 662.268 231.034 659.535L231.034 659.429L229.47 562.695L225.145 562.76L226.708 659.488L226.708 659.529C226.708 661.01 225.585 661.61 225.239 661.757C224.892 661.909 223.664 662.321 222.576 661.28L178.309 618.788L185.097 618.788L218.139 650.507C218.768 651.113 219.696 651.277 220.496 650.937C221.283 650.59 221.795 649.814 221.795 648.95L221.795 648.921L220.66 562.777L216.335 562.836L217.404 643.807L212.943 639.523L211.856 562.207L207.53 562.266L207.883 587.574C207.507 587.538 207.131 587.497 206.772 587.45C199.22 586.504 192.549 583.495 186.954 578.511C180.724 572.963 176.839 566.174 175.405 558.334C173.16 546.027 176.387 535.178 184.997 526.08C190.492 520.267 197.269 516.705 205.138 515.495C216.799 513.696 227.096 516.805 235.735 524.722C240.414 529.007 245.022 533.538 249.477 537.916C251.892 540.291 254.308 542.665 256.747 545.016C257.223 545.475 257.716 545.921 258.245 546.397L259.015 547.097C259.427 547.473 260.02 547.567 260.526 547.338C261.031 547.109 261.354 546.603 261.349 546.045L261.208 535.848L261.225 535.848L261.225 323.149L257.035 323.149L257.035 474.095L256.988 474.095L256.347 474.166C255.877 474.219 255.401 474.266 254.931 474.336C249.095 475.183 244.205 477.622 240.396 481.577C234.537 487.666 232.233 495.024 233.537 503.429C234.495 509.612 237.74 514.913 243.176 519.192C246.362 521.695 250.211 523.312 254.631 523.987C255.501 524.123 256.277 524.17 257.041 524.205L257.041 532.457C257.041 532.457 257.011 532.445 256.994 532.433L257.093 539.533C255.46 537.94 253.837 536.342 252.209 534.737C247.772 530.364 243.182 525.845 238.492 521.56C228.894 512.785 217.44 509.353 204.451 511.363C195.623 512.733 188.03 516.741 181.882 523.276C172.437 533.309 168.858 545.228 171.232 558.675C173.619 572.181 182.587 583.271 195.118 588.614L195.118 589.325L133.877 589.325C105.172 589.325 81.8215 565.975 81.8215 537.27L81.8215 449.064C81.8215 413.066 52.5351 383.773 16.5309 383.773L-39.9438 383.773L-39.9438 388.111L16.5309 388.111C50.1372 388.111 77.4782 415.458 77.4782 449.064L77.4782 537.27C77.4782 568.367 102.78 593.662 133.871 593.662L207.924 593.662L207.924 590.107L208.024 597.406L133.794 597.406C100.188 597.406 72.8469 570.059 72.8469 536.453L72.8469 448.247C72.8469 417.15 47.5453 391.855 16.4545 391.855L-39.9438 391.855L-39.9438 396.192L16.4545 396.192C45.1591 396.192 68.5095 419.542 68.5095 448.247L68.5095 536.453C68.5095 572.451 97.796 601.744 133.8 601.744L208.089 601.744L208.153 606.387L155.781 606.387L102.045 606.387C94.7574 606.387 87.7869 607.774 81.3866 610.307C80.5344 610.642 79.6881 611 78.8594 611.377C76.7788 612.317 74.7629 613.387 72.8234 614.562C72.0476 615.032 71.2836 615.526 70.5372 616.031C69.4146 616.789 68.3156 617.595 67.2518 618.429C66.5406 618.988 65.8471 619.564 65.1595 620.157C64.8186 620.451 64.4777 620.751 64.1486 621.056C62.1444 622.878 60.2696 624.841 58.5475 626.934C58.2595 627.28 57.9774 627.633 57.6953 627.992C57.137 628.703 56.5963 629.426 56.0673 630.166C55.2798 631.271 54.5333 632.405 53.8222 633.569C52.8818 635.121 52.0061 636.719 51.2186 638.359C50.8248 639.182 50.4428 640.011 50.0901 640.857C49.3731 642.544 48.7384 644.272 48.1918 646.035C47.7804 647.357 47.416 648.703 47.0986 650.067C46.7812 651.43 46.5168 652.811 46.3052 654.21C45.8761 657.008 45.6528 659.87 45.6528 662.785L45.6528 1031.82C45.6528 1046.96 51.5477 1061.19 62.2502 1071.9L246.749 1256.38C248.407 1255.95 250.082 1255.58 251.786 1255.28L65.3182 1068.83C55.4326 1058.94 49.9903 1045.8 49.9902 1031.82L49.9902 662.785C49.9902 659.2 50.3546 655.691 51.0481 652.306C51.5712 649.767 52.2765 647.293 53.1522 644.906C53.2991 644.507 53.4519 644.113 53.6047 643.719C54.069 642.538 54.5804 641.38 55.127 640.24C55.3091 639.858 55.4973 639.482 55.6912 639.111C56.2671 637.989 56.8842 636.89 57.5366 635.82C57.7541 635.462 57.9774 635.109 58.2008 634.756C59.1059 633.346 60.0756 631.988 61.1041 630.672C61.6213 630.013 62.1503 629.373 62.6969 628.744C65.7002 625.282 69.1501 622.214 72.9586 619.64C75.0333 618.235 77.2196 616.978 79.4941 615.879C80.2523 615.514 81.0222 615.162 81.798 614.833C88.0221 612.194 94.8632 610.736 102.039 610.736L155.775 610.736L155.775 610.73L208.206 610.73L208.377 622.702L204.439 618.811L208.295 618.811L208.259 614.486L155.587 614.486L104.661 614.486C100.288 614.486 96.0504 615.044 92.001 616.084C89.5737 616.713 87.211 617.512 84.9365 618.476C81.1456 620.081 77.5899 622.138 74.3339 624.571C73.0291 625.547 71.7772 626.581 70.5783 627.674C69.9788 628.221 69.391 628.779 68.8151 629.355C59.6289 638.541 53.9456 651.219 53.9456 665.201L53.9456 976.138C53.9456 1007.36 79.3472 1032.76 110.567 1032.76L466.454 1032.76C468.605 1032.76 470.715 1032.93 472.795 1033.18L489.11 1033.18C482.164 1030.14 474.506 1028.42 466.448 1028.42L157.868 1028.42L157.868 878.293C157.868 877.176 157.926 876.077 157.997 874.978L153.648 874.978C153.583 876.077 153.53 877.176 153.53 878.293L153.53 1028.42L149.81 1028.42L149.81 878.216C149.81 877.129 149.857 876.054 149.916 874.978L145.566 874.978C145.513 876.054 145.472 877.129 145.472 878.216L145.472 1028.42L110.561 1028.42C81.7334 1028.42 58.2772 1004.97 58.2772 976.138L58.2772 665.201C58.2772 659.605 59.2704 654.239 61.0982 649.267C61.8799 647.14 62.8144 645.083 63.8841 643.108C65.3122 640.481 66.9872 638.006 68.8797 635.714C70.2961 633.998 71.8361 632.382 73.4876 630.883C81.7275 623.39 92.6651 618.817 104.655 618.817L155.581 618.817L155.581 618.811L159.813 618.811L213.69 670.531C218.215 674.875 224.592 676.021 230.34 673.523C236.018 671.054 239.52 665.712 239.52 659.541C239.52 659.464 239.52 659.388 239.52 659.312L238.95 618.811L401.257 618.811L475.311 618.811C504.015 618.811 527.366 642.162 527.366 670.866L527.366 1566.76C527.366 1600.16 500.189 1627.35 466.783 1627.35L-240.882 1627.35L-240.882 1631.68L466.795 1631.68C502.593 1631.68 531.715 1602.56 531.715 1566.77L531.715 670.849C531.715 639.752 506.413 614.456 475.322 614.456L401.269 614.456L401.269 614.462L238.903 614.462L238.85 610.707L400.276 610.707L474.817 610.707C508.423 610.707 535.764 638.053 535.764 671.66L535.764 1567.54C535.764 1605.22 505.114 1635.87 467.435 1635.87L-240.882 1635.87L-240.882 1640.21L467.441 1640.21C507.512 1640.21 540.114 1607.61 540.114 1567.54L540.113 747.048ZM257.041 514.443C257.041 514.443 257.023 514.443 257.017 514.431C254.537 511.974 252.421 509.135 250.705 505.938C252.35 502.712 253.726 499.749 254.901 496.881C254.948 496.77 254.966 496.758 255.048 496.729C255.73 496.476 256.371 496.341 257.041 496.264L257.041 514.443ZM251.804 496.87L250.581 499.485C249.87 501.013 249.159 502.541 248.407 504.105C246.268 503.799 244.175 503.094 242.189 502.447C242.183 502.435 242.165 502.4 242.13 502.271C241.777 500.931 241.648 499.562 241.566 497.922C241.536 497.375 241.548 496.828 241.554 496.288L241.554 495.518C241.56 495.4 241.53 495.283 241.472 495.183C241.472 495.03 241.472 494.877 241.448 494.724C241.395 494.407 241.46 494.154 241.954 493.76C243.605 492.432 245.427 491.433 247.666 490.346C247.696 490.375 247.731 490.411 247.754 490.44C248.518 491.269 249.23 492.174 249.923 493.049C250.47 493.749 251.022 494.448 251.604 495.118C252.127 495.718 252.168 496.1 251.804 496.875L251.804 496.87ZM257.041 493.743C256.488 493.766 255.942 493.825 255.389 494.002L255.119 494.078C254.931 494.131 254.748 494.184 254.549 494.26L253.638 493.067C252.674 491.798 251.675 490.481 250.581 489.259C250.182 488.812 249.776 488.371 249.377 488.03C250.264 485.086 251.639 482.359 253.467 479.931C253.579 479.784 253.743 479.72 254.143 479.661C255.107 479.52 256.071 479.385 257.035 479.25L257.035 493.737L257.041 493.743ZM237.869 489.799C239.603 486.061 242.159 483.011 245.462 480.748C246.626 479.949 247.872 479.238 249.265 478.58C249.653 478.397 249.829 478.439 250.058 478.597C250.346 478.797 250.652 478.973 250.952 479.144C249.153 481.695 247.813 484.469 246.967 487.39C246.938 487.484 246.932 487.513 246.785 487.583C244.551 488.606 242.195 489.799 240.096 491.556C239.985 491.651 239.873 491.745 239.761 491.845L237.869 489.793L237.869 489.799ZM236.864 492.415L237.563 493.185C237.816 493.473 238.069 493.755 238.351 494.007C238.527 494.166 238.604 494.342 238.615 494.771C238.58 497.158 238.633 499.726 239.191 502.212C239.368 502.988 239.297 503.582 238.956 504.257C238.398 505.356 237.939 506.561 237.557 507.89C235.459 502.847 235.236 497.763 236.864 492.421L236.864 492.415ZM245.298 517.428C245.004 517.322 244.734 517.099 244.451 516.87L244.216 516.682C241.883 514.842 240.443 513.126 239.562 511.122C239.491 510.957 239.456 510.84 239.456 510.722C239.456 510.67 239.462 510.622 239.473 510.564C239.879 508.648 240.473 506.873 241.278 505.157C242.471 505.603 243.511 505.944 244.51 506.22C245.815 506.579 247.114 506.843 248.472 507.084C250.241 510.429 252.486 513.467 255.189 516.153C254.607 517.37 254.061 518.327 253.391 519.203C250.235 518.862 247.666 518.298 245.304 517.434L245.298 517.428ZM256.67 519.544C256.811 519.303 256.917 519.074 257.041 518.839L257.041 519.679C256.917 519.632 256.794 519.597 256.67 519.544ZM198.291 618.782L208.471 628.838L208.559 635.315L191.339 618.788L198.291 618.788L198.291 618.782Z" stroke="black" stroke-width="0.2" mask="url(#path-57-outside-1_5_1286)"/>
</svg>
