<?xml version="1.0" encoding="UTF-8"?>
<svg id="Layer_2" data-name="Layer 2" xmlns="http://www.w3.org/2000/svg" viewBox="0 0 227.24 44.97">
  <defs>
    <style>
      .cls-1 {
        fill: #231f20;
        stroke-width: 0px;
      }
    </style>
  </defs>
  <g id="Layer_1-2" data-name="Layer 1">
    <g>
      <path class="cls-1" d="M4.84,17.04c-2.03,0-3.37.09-4.84.3v-7.26c1.21.17,3.2.3,4.84.3h1.17v-2.03C6.01,2.64,9.25,0,16.3,0c2.42,0,4.19.26,6.57.91l-1.34,6.36c-1.34-.74-2.64-1.08-4.28-1.08-2.12,0-2.94.86-2.94,3.11v1.08h1.25c1.82,0,4.15-.13,5.75-.3v7.26c-1.82-.22-3.24-.3-5.66-.3h-1.34v13.19c0,2.98.09,4.41.35,6.53H5.66c.26-2.12.35-3.72.35-6.53v-13.19h-1.17Z"/>
      <path class="cls-1" d="M24.35,23.52c0-8.65,5.53-14.14,14.27-14.14s14.27,5.49,14.27,14.05-5.71,14.31-14.31,14.31-14.23-5.53-14.23-14.23ZM32.6,23.48c0,4.8,2.25,7.7,6.01,7.7s5.92-2.81,5.92-7.61-2.21-7.7-5.88-7.7-6.05,2.85-6.05,7.61Z"/>
      <path class="cls-1" d="M55.27,23.52c0-8.65,5.53-14.14,14.27-14.14s14.27,5.49,14.27,14.05-5.71,14.31-14.31,14.31-14.23-5.53-14.23-14.23ZM63.52,23.48c0,4.8,2.25,7.7,6.01,7.7s5.92-2.81,5.92-7.61-2.21-7.7-5.88-7.7-6.05,2.85-6.05,7.61Z"/>
      <path class="cls-1" d="M90.72,9.47c0-2.16-.09-3.89-.35-5.92h8.82c-.22,1.77-.35,3.85-.35,5.92v.91h1.56c1.9,0,2.9-.04,4.24-.22v7.18c-1.3-.17-2.42-.26-3.98-.26h-1.82v11.07c0,1.21.22,1.82.78,2.21.48.3,1.17.48,1.99.48,1.12,0,1.95-.22,3.03-.78l.65,6.57c-1.95.61-3.63.86-5.97.86-2.94,0-4.97-.48-6.36-1.51-1.64-1.25-2.25-2.72-2.25-5.66v-13.23h-1.64c-1.38,0-2.51.09-3.76.26v-7.22c1.25.17,2.33.26,3.85.26h1.56v-.91Z"/>
      <path class="cls-1" d="M108.63,16.17c-1.86-4.32-2.03-4.71-2.59-5.79h9.38c.22,1.38.78,3.24,1.69,5.58l3.98,9.99,3.85-9.82c1.21-2.98,1.6-4.24,1.86-5.75h9.38q-1.08,2.25-2.59,5.79l-9.9,22.87c-1.73,4.06-4.84,5.92-9.77,5.92-1.9,0-3.55-.22-5.92-.74l.95-6.88c1.43.74,2.25.95,3.37.95,1.64,0,2.85-.74,3.5-2.03l.91-1.86-8.09-18.25Z"/>
      <path class="cls-1" d="M142.14,9.47c0-2.16-.09-3.89-.35-5.92h8.82c-.22,1.77-.35,3.85-.35,5.92v.91h1.56c1.9,0,2.9-.04,4.24-.22v7.18c-1.3-.17-2.42-.26-3.98-.26h-1.82v11.07c0,1.21.22,1.82.78,2.21.48.3,1.17.48,1.99.48,1.12,0,1.95-.22,3.03-.78l.65,6.57c-1.95.61-3.63.86-5.97.86-2.94,0-4.97-.48-6.36-1.51-1.64-1.25-2.25-2.72-2.25-5.66v-13.23h-1.64c-1.38,0-2.51.09-3.76.26v-7.22c1.25.17,2.33.26,3.85.26h1.56v-.91Z"/>
      <path class="cls-1" d="M181.84,36.75c-.22-1.25-.56-2.55-1.34-5.06l-2.64-8.65c-.22-.74-.39-1.3-.48-1.69-.3.99-.3,1.08-.52,1.69l-2.64,8.65c-.61,1.9-1.17,4.02-1.34,5.06h-7.35c-.3-1.56-.61-2.72-1.3-5.06l-4.84-15.7c-.48-1.51-1.12-3.42-1.95-5.62h9.3c.09,1.51.35,3.07.82,5.1l1.86,7.74c.22,1.04.39,1.73.43,2.08q.52-1.69.61-2.08l2.42-7.87q1.17-4.06,1.34-4.97h6.31c.13.86.65,2.94,1.3,4.97l2.51,8.17c.09.3.35,1.25.52,1.77q.13-.65.39-1.82l1.82-7.65c.52-2.25.82-4.06.91-5.45h9.3c-.65,1.64-1.3,3.59-1.95,5.62l-4.84,15.7c-.78,2.51-1.04,3.59-1.3,5.06h-7.35Z"/>
      <path class="cls-1" d="M198.7,23.52c0-8.65,5.53-14.14,14.27-14.14s14.27,5.49,14.27,14.05-5.71,14.31-14.31,14.31-14.23-5.53-14.23-14.23ZM206.96,23.48c0,4.8,2.25,7.7,6.01,7.7s5.92-2.81,5.92-7.61-2.21-7.7-5.88-7.7-6.05,2.85-6.05,7.61Z"/>
    </g>
  </g>
</svg>