<?xml version="1.0" encoding="utf-8"?>
<!-- Generator: Adobe Illustrator 28.2.0, SVG Export Plug-In . SVG Version: 6.00 Build 0)  -->
<svg version="1.1" id="Layer_1" xmlns="http://www.w3.org/2000/svg" xmlns:xlink="http://www.w3.org/1999/xlink" x="0px" y="0px"
	 viewBox="0 0 244.2 373" style="enable-background:new 0 0 244.2 373;" xml:space="preserve">
<style type="text/css">
	.st0{fill:url(#SVGID_1_);fill-opacity:0.9;}
	.st1{fill:url(#SVGID_00000173156658944326279720000011059766199804523400_);fill-opacity:0.9;}
	.st2{fill:url(#SVGID_00000181072765507715463940000012736753327228359054_);fill-opacity:0.9;}
	.st3{fill:url(#SVGID_00000150812670489485513960000009356552895909369491_);fill-opacity:0.9;}
	.st4{fill:url(#SVGID_00000004548601209449099080000000328722384694035337_);fill-opacity:0.9;}
	.st5{fill-opacity:0.9;}
	.st6{fill:url(#SVGID_00000001632117076764016410000008803054523039803035_);fill-opacity:0.9;}
	.st7{fill:url(#SVGID_00000029754555157969375740000010972983311595374503_);fill-opacity:0.9;}
	.st8{clip-path:url(#SVGID_00000132810682460662836750000009702903210997663644_);}
	.st9{fill:#FFEA4D;}
	.st10{clip-path:url(#SVGID_00000087388420893342818680000011328904222480287910_);}
	.st11{fill:#F9F18D;filter:url(#Adobe_OpacityMaskFilter);}
	.st12{mask:url(#mask2_485_100514_00000145054074743055550920000012170446825486537091_);}
	.st13{fill:#FFE62B;}
	.st14{fill:url(#SVGID_00000147213408588208288580000011848800078270586500_);}
	.st15{fill:url(#SVGID_00000083810695639742689870000009877749406375067041_);}
	.st16{fill:#F0F3FF;}
	.st17{fill:#FFE736;}
	.st18{font-family:'Aldrich-Regular';}
	.st19{font-size:6.6028px;}
	.st20{fill:url(#SVGID_00000036968073105790872250000016514938368146958001_);}
	.st21{fill:#FFFFFF;}
	.st22{font-size:5.6859px;}
	.st23{fill:#E2E5F3;}
	.st24{fill:#D0D2D3;}
	.st25{fill:#526C9D;}
	.st26{fill:#EF4E3D;}
	.st27{fill:url(#SVGID_00000067195621654843318200000008567107168179239809_);}
	
		.st28{fill:url(#SVGID_00000145764448700127222270000003597071514717458070_);stroke:#FFFFFF;stroke-width:0.25;stroke-miterlimit:10;}
	
		.st29{fill:url(#SVGID_00000134962664248546695130000005949876521413487281_);stroke:#FFFFFF;stroke-width:0.25;stroke-miterlimit:10;}
	.st30{opacity:0.7;}
	.st31{fill:#8FADDC;fill-opacity:2.000000e-02;}
	.st32{opacity:0.33;}
	.st33{fill:#5559B3;}
	.st34{fill:#D9D252;fill-opacity:0.16;}
	.st35{fill:#D9D8BF;fill-opacity:0.16;}
	.st36{fill:#FFEA4D;fill-opacity:0.16;}
	.st37{fill:url(#SVGID_00000152971692597687610550000008542418058017461125_);}
</style>
<g>
	<g>
		<linearGradient id="SVGID_1_" gradientUnits="userSpaceOnUse" x1="9.774445e-02" y1="181.1856" x2="16.1599" y2="181.1856">
			<stop  offset="0" style="stop-color:#E3CA27"/>
			<stop  offset="0.2728" style="stop-color:#D5BD24"/>
			<stop  offset="0.6622" style="stop-color:#C7B122"/>
			<stop  offset="1" style="stop-color:#C2AD21"/>
		</linearGradient>
		<polygon class="st0" points="16.2,48.2 16.2,314.2 0.1,336.3 0.1,26.1 		"/>
		
			<linearGradient id="SVGID_00000035490114246491088530000003833651789682819503_" gradientUnits="userSpaceOnUse" x1="121.8982" y1="372.6066" x2="121.8982" y2="314.2151">
			<stop  offset="0" style="stop-color:#E3CA27"/>
			<stop  offset="0.4205" style="stop-color:#D8C025"/>
			<stop  offset="1" style="stop-color:#C2AD21"/>
		</linearGradient>
		<polygon style="fill:url(#SVGID_00000035490114246491088530000003833651789682819503_);fill-opacity:0.9;" points="243.7,336.3 
			243.7,372.6 0.1,372.6 0.1,336.3 16.2,314.2 16.2,314.3 121.9,337.1 227.6,314.3 227.6,314.2 		"/>
		
			<linearGradient id="SVGID_00000171683912534426856720000005723111568748416959_" gradientUnits="userSpaceOnUse" x1="243.6987" y1="181.1856" x2="227.6366" y2="181.1856">
			<stop  offset="0" style="stop-color:#E3CA27"/>
			<stop  offset="0.2728" style="stop-color:#D5BD24"/>
			<stop  offset="0.6622" style="stop-color:#C7B122"/>
			<stop  offset="1" style="stop-color:#C2AD21"/>
		</linearGradient>
		<polygon style="fill:url(#SVGID_00000171683912534426856720000005723111568748416959_);fill-opacity:0.9;" points="243.7,26.1 
			243.7,336.3 227.6,314.2 227.6,48.2 		"/>
		
			<linearGradient id="SVGID_00000018224862046245763590000006488950276597848719_" gradientUnits="userSpaceOnUse" x1="121.8982" y1="0.4615" x2="121.8982" y2="48.1561">
			<stop  offset="0" style="stop-color:#E3CA27"/>
			<stop  offset="0.4205" style="stop-color:#D8C025"/>
			<stop  offset="1" style="stop-color:#C2AD21"/>
		</linearGradient>
		<polygon style="fill:url(#SVGID_00000018224862046245763590000006488950276597848719_);fill-opacity:0.9;" points="243.7,0.5 
			243.7,26.1 227.6,48.2 121.9,36 45.8,44.8 45.8,44.7 16.2,48.2 0.1,26.1 0.1,0.5 		"/>
		
			<radialGradient id="SVGID_00000152982443060080178880000001179858572716194491_" cx="121.8982" cy="186.5341" r="148.3905" fx="98.1995" fy="186.4319" gradientTransform="matrix(2.393575e-03 -1 1.5701 3.758210e-03 -171.2743 307.7309)" gradientUnits="userSpaceOnUse">
			<stop  offset="0" style="stop-color:#C2AF34"/>
			<stop  offset="0.3814" style="stop-color:#C8B430"/>
			<stop  offset="0.9079" style="stop-color:#DAC226"/>
			<stop  offset="1" style="stop-color:#DEC524"/>
		</radialGradient>
		<polygon style="fill:url(#SVGID_00000152982443060080178880000001179858572716194491_);fill-opacity:0.9;" points="227.6,48.2 
			227.6,314.3 121.9,337.1 16.2,314.3 45.8,320.6 45.8,44.8 121.9,36 		"/>
		<polygon class="st5" points="45.8,44.8 45.8,320.6 16.2,314.3 16.2,48.2 		"/>
		
			<linearGradient id="SVGID_00000029765616703190144130000010976309738198086822_" gradientUnits="userSpaceOnUse" x1="122.1454" y1="350.7116" x2="122.1454" y2="373">
			<stop  offset="0" style="stop-color:#948C52"/>
			<stop  offset="6.853080e-02" style="stop-color:#998E42"/>
			<stop  offset="0.1739" style="stop-color:#9F9131"/>
			<stop  offset="0.305" style="stop-color:#A39326"/>
			<stop  offset="0.4891" style="stop-color:#A5941F"/>
			<stop  offset="1" style="stop-color:#A6941D"/>
		</linearGradient>
		<polygon style="fill:url(#SVGID_00000029765616703190144130000010976309738198086822_);fill-opacity:0.9;" points="0.1,350.7 
			244.2,350.7 244.2,373 0.1,373 		"/>
		
			<linearGradient id="SVGID_00000061463747635567782170000017871347137559910026_" gradientUnits="userSpaceOnUse" x1="122.1942" y1="22.3791" x2="122.1942" y2="0.2174">
			<stop  offset="0" style="stop-color:#948C52"/>
			<stop  offset="6.853080e-02" style="stop-color:#998E42"/>
			<stop  offset="0.1739" style="stop-color:#9F9131"/>
			<stop  offset="0.305" style="stop-color:#A39326"/>
			<stop  offset="0.4891" style="stop-color:#A5941F"/>
			<stop  offset="1" style="stop-color:#A6941D"/>
		</linearGradient>
		
			<rect x="0.2" y="0.2" style="fill:url(#SVGID_00000061463747635567782170000017871347137559910026_);fill-opacity:0.9;" width="244" height="22.2"/>
		<g>
			<defs>
				
					<rect id="SVGID_00000088834464407973502910000018333465539939166372_" x="0.1" y="350.7" transform="matrix(-1 -1.224647e-16 1.224647e-16 -1 244.2908 723.7116)" width="244.1" height="22.3"/>
			</defs>
			<clipPath id="SVGID_00000022561460009649665810000008248220223761402249_">
				<use xlink:href="#SVGID_00000088834464407973502910000018333465539939166372_"  style="overflow:visible;"/>
			</clipPath>
			<g style="clip-path:url(#SVGID_00000022561460009649665810000008248220223761402249_);">
				<g>
					<path class="st9" d="M117.2,357v8.8h5.3v1.5h-6.8V357H117.2z"/>
					<path class="st9" d="M125.7,357v10.2h-1.5V357H125.7z"/>
					<path class="st9" d="M133.7,367.3l-3.8-7.5v7.5h-1.5V357h1.6l3.9,7.7l3.9-7.7h1.6v10.2H138v-7.5l-3.8,7.5H133.7z"/>
					<path class="st9" d="M143.6,357v10.2h-1.5V357H143.6z"/>
					<path class="st9" d="M145.4,357h8.3v1.5h-3.4v8.8h-1.5v-8.8h-3.4V357z"/>
					<path class="st9" d="M155.4,357h7.5v1.5h-6v2.9h5.2v1.5h-5.2v2.9h6v1.5h-7.5V357z"/>
					<path class="st9" d="M165.1,367.3V357h5.2c0.6,0,1,0.1,1.5,0.3c0.4,0.2,0.8,0.4,1.1,0.7c0.3,0.3,0.6,0.7,0.7,1.1
						c0.2,0.4,0.3,0.9,0.3,1.5v3.1c0,0.5-0.1,1-0.3,1.5c-0.2,0.4-0.4,0.8-0.7,1.1s-0.7,0.6-1.1,0.7c-0.4,0.2-0.9,0.3-1.5,0.3H165.1z
						 M170.3,365.8c0.7,0,1.2-0.2,1.6-0.5c0.4-0.4,0.6-0.9,0.6-1.6v-3.1c0-0.3,0-0.6-0.1-0.9c-0.1-0.3-0.2-0.5-0.4-0.7
						c-0.2-0.2-0.4-0.3-0.7-0.4c-0.3-0.1-0.6-0.1-0.9-0.1h-3.8v7.3H170.3z"/>
					<path class="st9" d="M180.7,357h7.5v1.5h-6v2.9h5.2v1.5h-5.2v2.9h6v1.5h-7.5V357z"/>
					<path class="st9" d="M190.5,367.3V357h5.2c0.6,0,1,0.1,1.5,0.3c0.4,0.2,0.8,0.4,1.1,0.7c0.3,0.3,0.6,0.7,0.7,1.1
						c0.2,0.4,0.3,0.9,0.3,1.5v3.1c0,0.5-0.1,1-0.3,1.5c-0.2,0.4-0.4,0.8-0.7,1.1s-0.7,0.6-1.1,0.7c-0.4,0.2-0.9,0.3-1.5,0.3H190.5z
						 M195.7,365.8c0.7,0,1.2-0.2,1.6-0.5c0.4-0.4,0.6-0.9,0.6-1.6v-3.1c0-0.3,0-0.6-0.1-0.9c-0.1-0.3-0.2-0.5-0.4-0.7
						c-0.2-0.2-0.4-0.3-0.7-0.4c-0.3-0.1-0.6-0.1-0.9-0.1h-3.8v7.3H195.7z"/>
					<path class="st9" d="M203.1,357v10.2h-1.5V357H203.1z"/>
					<path class="st9" d="M204.9,357h8.3v1.5h-3.4v8.8h-1.5v-8.8h-3.4V357z"/>
					<path class="st9" d="M216.4,357v10.2h-1.5V357H216.4z"/>
					<path class="st9" d="M227.9,365.8c0,0.2,0,0.4-0.1,0.6c-0.1,0.2-0.2,0.3-0.3,0.5c-0.1,0.1-0.3,0.2-0.5,0.3
						c-0.2,0.1-0.4,0.1-0.6,0.1h-5.9c-0.2,0-0.4,0-0.6-0.1c-0.2-0.1-0.3-0.2-0.5-0.3c-0.1-0.1-0.2-0.3-0.3-0.5
						c-0.1-0.2-0.1-0.4-0.1-0.6v-7.3c0-0.2,0-0.4,0.1-0.6c0.1-0.2,0.2-0.3,0.3-0.5c0.1-0.1,0.3-0.2,0.5-0.3c0.2-0.1,0.4-0.1,0.6-0.1
						h5.9c0.2,0,0.4,0,0.6,0.1c0.2,0.1,0.3,0.2,0.5,0.3c0.1,0.1,0.2,0.3,0.3,0.5c0.1,0.2,0.1,0.4,0.1,0.6V365.8z M220.5,358.5v7.3
						h5.9v-7.3H220.5z"/>
					<path class="st9" d="M232,367.3h-1.5V357h1.5l6.2,7.9V357h1.5v10.2h-1.5l-6.2-7.9V367.3z"/>
				</g>
				<g>
					<path class="st9" d="M-20.8,357v8.8h5.3v1.5h-6.8V357H-20.8z"/>
					<path class="st9" d="M-12.3,357v10.2h-1.5V357H-12.3z"/>
					<path class="st9" d="M-4.3,367.3l-3.8-7.5v7.5h-1.5V357H-8l3.9,7.7l3.9-7.7h1.6v10.2H0v-7.5l-3.8,7.5H-4.3z"/>
					<path class="st9" d="M5.6,357v10.2H4.1V357H5.6z"/>
					<path class="st9" d="M7.3,357h8.3v1.5h-3.4v8.8h-1.5v-8.8H7.3V357z"/>
					<path class="st9" d="M17.4,357h7.5v1.5h-6v2.9H24v1.5h-5.2v2.9h6v1.5h-7.5V357z"/>
					<path class="st9" d="M27.1,367.3V357h5.2c0.6,0,1,0.1,1.5,0.3c0.4,0.2,0.8,0.4,1.1,0.7c0.3,0.3,0.6,0.7,0.7,1.1
						c0.2,0.4,0.3,0.9,0.3,1.5v3.1c0,0.5-0.1,1-0.3,1.5c-0.2,0.4-0.4,0.8-0.7,1.1c-0.3,0.3-0.7,0.6-1.1,0.7
						c-0.4,0.2-0.9,0.3-1.5,0.3H27.1z M32.3,365.8c0.7,0,1.2-0.2,1.6-0.5s0.6-0.9,0.6-1.6v-3.1c0-0.3,0-0.6-0.1-0.9
						c-0.1-0.3-0.2-0.5-0.4-0.7c-0.2-0.2-0.4-0.3-0.7-0.4c-0.3-0.1-0.6-0.1-0.9-0.1h-3.8v7.3H32.3z"/>
					<path class="st9" d="M42.7,357h7.5v1.5h-6v2.9h5.2v1.5h-5.2v2.9h6v1.5h-7.5V357z"/>
					<path class="st9" d="M52.4,367.3V357h5.2c0.6,0,1,0.1,1.5,0.3c0.4,0.2,0.8,0.4,1.1,0.7c0.3,0.3,0.6,0.7,0.7,1.1
						c0.2,0.4,0.3,0.9,0.3,1.5v3.1c0,0.5-0.1,1-0.3,1.5c-0.2,0.4-0.4,0.8-0.7,1.1c-0.3,0.3-0.7,0.6-1.1,0.7
						c-0.4,0.2-0.9,0.3-1.5,0.3H52.4z M57.7,365.8c0.7,0,1.2-0.2,1.6-0.5c0.4-0.4,0.6-0.9,0.6-1.6v-3.1c0-0.3,0-0.6-0.1-0.9
						c-0.1-0.3-0.2-0.5-0.4-0.7c-0.2-0.2-0.4-0.3-0.7-0.4c-0.3-0.1-0.6-0.1-0.9-0.1h-3.8v7.3H57.7z"/>
					<path class="st9" d="M65.1,357v10.2h-1.5V357H65.1z"/>
					<path class="st9" d="M66.9,357h8.3v1.5h-3.4v8.8h-1.5v-8.8h-3.4V357z"/>
					<path class="st9" d="M78.4,357v10.2h-1.5V357H78.4z"/>
					<path class="st9" d="M89.9,365.8c0,0.2,0,0.4-0.1,0.6c-0.1,0.2-0.2,0.3-0.3,0.5c-0.1,0.1-0.3,0.2-0.5,0.3
						c-0.2,0.1-0.4,0.1-0.6,0.1h-5.9c-0.2,0-0.4,0-0.6-0.1c-0.2-0.1-0.3-0.2-0.5-0.3c-0.1-0.1-0.2-0.3-0.3-0.5
						c-0.1-0.2-0.1-0.4-0.1-0.6v-7.3c0-0.2,0-0.4,0.1-0.6c0.1-0.2,0.2-0.3,0.3-0.5c0.1-0.1,0.3-0.2,0.5-0.3c0.2-0.1,0.4-0.1,0.6-0.1
						h5.9c0.2,0,0.4,0,0.6,0.1c0.2,0.1,0.3,0.2,0.5,0.3c0.1,0.1,0.2,0.3,0.3,0.5c0.1,0.2,0.1,0.4,0.1,0.6V365.8z M82.5,358.5v7.3
						h5.9v-7.3H82.5z"/>
					<path class="st9" d="M94,367.3h-1.5V357H94l6.2,7.9V357h1.5v10.2h-1.5l-6.2-7.9V367.3z"/>
				</g>
				<ellipse class="st9" cx="108.6" cy="362.2" rx="1.4" ry="1.4"/>
			</g>
		</g>
		<g>
			<defs>
				
					<rect id="SVGID_00000041984773426408746670000014358177636952070064_" x="0.1" y="-1.2" transform="matrix(-1 -1.224647e-16 1.224647e-16 -1 244.2908 19.927)" width="244.1" height="22.3"/>
			</defs>
			<clipPath id="SVGID_00000069391571198170888570000008513913724266276276_">
				<use xlink:href="#SVGID_00000041984773426408746670000014358177636952070064_"  style="overflow:visible;"/>
			</clipPath>
			<g style="clip-path:url(#SVGID_00000069391571198170888570000008513913724266276276_);">
				<g>
					<path class="st9" d="M117.2,5.1v8.8h5.3v1.5h-6.8V5.1H117.2z"/>
					<path class="st9" d="M125.7,5.1v10.3h-1.5V5.1H125.7z"/>
					<path class="st9" d="M133.7,15.4l-3.8-7.5v7.5h-1.5V5.1h1.6l3.9,7.7l3.9-7.7h1.6v10.3H138V7.9l-3.8,7.5H133.7z"/>
					<path class="st9" d="M143.6,5.1v10.3h-1.5V5.1H143.6z"/>
					<path class="st9" d="M145.4,5.1h8.3v1.5h-3.4v8.8h-1.5V6.6h-3.4V5.1z"/>
					<path class="st9" d="M155.4,5.1h7.5v1.5h-6v2.9h5.2V11h-5.2v2.9h6v1.5h-7.5V5.1z"/>
					<path class="st9" d="M165.1,15.4V5.1h5.2c0.6,0,1,0.1,1.5,0.3c0.4,0.2,0.8,0.4,1.1,0.7c0.3,0.3,0.6,0.7,0.7,1.1
						c0.2,0.4,0.3,0.9,0.3,1.5v3.1c0,0.5-0.1,1-0.3,1.5c-0.2,0.4-0.4,0.8-0.7,1.1c-0.3,0.3-0.7,0.6-1.1,0.7
						c-0.4,0.2-0.9,0.3-1.5,0.3H165.1z M170.3,13.9c0.7,0,1.2-0.2,1.6-0.6c0.4-0.4,0.6-0.9,0.6-1.6V8.7c0-0.3,0-0.6-0.1-0.9
						c-0.1-0.3-0.2-0.5-0.4-0.7c-0.2-0.2-0.4-0.3-0.7-0.4c-0.3-0.1-0.6-0.1-0.9-0.1h-3.8v7.3H170.3z"/>
					<path class="st9" d="M180.7,5.1h7.5v1.5h-6v2.9h5.2V11h-5.2v2.9h6v1.5h-7.5V5.1z"/>
					<path class="st9" d="M190.5,15.4V5.1h5.2c0.6,0,1,0.1,1.5,0.3c0.4,0.2,0.8,0.4,1.1,0.7c0.3,0.3,0.6,0.7,0.7,1.1
						c0.2,0.4,0.3,0.9,0.3,1.5v3.1c0,0.5-0.1,1-0.3,1.5c-0.2,0.4-0.4,0.8-0.7,1.1c-0.3,0.3-0.7,0.6-1.1,0.7
						c-0.4,0.2-0.9,0.3-1.5,0.3H190.5z M195.7,13.9c0.7,0,1.2-0.2,1.6-0.6c0.4-0.4,0.6-0.9,0.6-1.6V8.7c0-0.3,0-0.6-0.1-0.9
						c-0.1-0.3-0.2-0.5-0.4-0.7c-0.2-0.2-0.4-0.3-0.7-0.4c-0.3-0.1-0.6-0.1-0.9-0.1h-3.8v7.3H195.7z"/>
					<path class="st9" d="M203.1,5.1v10.3h-1.5V5.1H203.1z"/>
					<path class="st9" d="M204.9,5.1h8.3v1.5h-3.4v8.8h-1.5V6.6h-3.4V5.1z"/>
					<path class="st9" d="M216.4,5.1v10.3h-1.5V5.1H216.4z"/>
					<path class="st9" d="M227.9,13.9c0,0.2,0,0.4-0.1,0.6c-0.1,0.2-0.2,0.3-0.3,0.5c-0.1,0.1-0.3,0.2-0.5,0.3
						c-0.2,0.1-0.4,0.1-0.6,0.1h-5.9c-0.2,0-0.4,0-0.6-0.1c-0.2-0.1-0.3-0.2-0.5-0.3c-0.1-0.1-0.2-0.3-0.3-0.5
						c-0.1-0.2-0.1-0.4-0.1-0.6V6.6c0-0.2,0-0.4,0.1-0.6c0.1-0.2,0.2-0.3,0.3-0.5c0.1-0.1,0.3-0.2,0.5-0.3c0.2-0.1,0.4-0.1,0.6-0.1
						h5.9c0.2,0,0.4,0,0.6,0.1c0.2,0.1,0.3,0.2,0.5,0.3c0.1,0.1,0.2,0.3,0.3,0.5c0.1,0.2,0.1,0.4,0.1,0.6V13.9z M220.5,6.6v7.3h5.9
						V6.6H220.5z"/>
					<path class="st9" d="M232,15.4h-1.5V5.1h1.5l6.2,8v-8h1.5v10.3h-1.5l-6.2-8V15.4z"/>
				</g>
				<g>
					<path class="st9" d="M-20.8,5.1v8.8h5.3v1.5h-6.8V5.1H-20.8z"/>
					<path class="st9" d="M-12.3,5.1v10.3h-1.5V5.1H-12.3z"/>
					<path class="st9" d="M-4.3,15.4l-3.8-7.5v7.5h-1.5V5.1H-8l3.9,7.7l3.9-7.7h1.6v10.3H0V7.9l-3.8,7.5H-4.3z"/>
					<path class="st9" d="M5.6,5.1v10.3H4.1V5.1H5.6z"/>
					<path class="st9" d="M7.3,5.1h8.3v1.5h-3.4v8.8h-1.5V6.6H7.3V5.1z"/>
					<path class="st9" d="M17.4,5.1h7.5v1.5h-6v2.9H24V11h-5.2v2.9h6v1.5h-7.5V5.1z"/>
					<path class="st9" d="M27.1,15.4V5.1h5.2c0.6,0,1,0.1,1.5,0.3c0.4,0.2,0.8,0.4,1.1,0.7c0.3,0.3,0.6,0.7,0.7,1.1
						c0.2,0.4,0.3,0.9,0.3,1.5v3.1c0,0.5-0.1,1-0.3,1.5c-0.2,0.4-0.4,0.8-0.7,1.1c-0.3,0.3-0.7,0.6-1.1,0.7
						c-0.4,0.2-0.9,0.3-1.5,0.3H27.1z M32.3,13.9c0.7,0,1.2-0.2,1.6-0.6s0.6-0.9,0.6-1.6V8.7c0-0.3,0-0.6-0.1-0.9
						c-0.1-0.3-0.2-0.5-0.4-0.7c-0.2-0.2-0.4-0.3-0.7-0.4c-0.3-0.1-0.6-0.1-0.9-0.1h-3.8v7.3H32.3z"/>
					<path class="st9" d="M42.7,5.1h7.5v1.5h-6v2.9h5.2V11h-5.2v2.9h6v1.5h-7.5V5.1z"/>
					<path class="st9" d="M52.4,15.4V5.1h5.2c0.6,0,1,0.1,1.5,0.3c0.4,0.2,0.8,0.4,1.1,0.7c0.3,0.3,0.6,0.7,0.7,1.1
						c0.2,0.4,0.3,0.9,0.3,1.5v3.1c0,0.5-0.1,1-0.3,1.5c-0.2,0.4-0.4,0.8-0.7,1.1c-0.3,0.3-0.7,0.6-1.1,0.7
						c-0.4,0.2-0.9,0.3-1.5,0.3H52.4z M57.7,13.9c0.7,0,1.2-0.2,1.6-0.6c0.4-0.4,0.6-0.9,0.6-1.6V8.7c0-0.3,0-0.6-0.1-0.9
						c-0.1-0.3-0.2-0.5-0.4-0.7c-0.2-0.2-0.4-0.3-0.7-0.4c-0.3-0.1-0.6-0.1-0.9-0.1h-3.8v7.3H57.7z"/>
					<path class="st9" d="M65.1,5.1v10.3h-1.5V5.1H65.1z"/>
					<path class="st9" d="M66.9,5.1h8.3v1.5h-3.4v8.8h-1.5V6.6h-3.4V5.1z"/>
					<path class="st9" d="M78.4,5.1v10.3h-1.5V5.1H78.4z"/>
					<path class="st9" d="M89.9,13.9c0,0.2,0,0.4-0.1,0.6c-0.1,0.2-0.2,0.3-0.3,0.5c-0.1,0.1-0.3,0.2-0.5,0.3
						c-0.2,0.1-0.4,0.1-0.6,0.1h-5.9c-0.2,0-0.4,0-0.6-0.1c-0.2-0.1-0.3-0.2-0.5-0.3c-0.1-0.1-0.2-0.3-0.3-0.5
						c-0.1-0.2-0.1-0.4-0.1-0.6V6.6c0-0.2,0-0.4,0.1-0.6c0.1-0.2,0.2-0.3,0.3-0.5c0.1-0.1,0.3-0.2,0.5-0.3c0.2-0.1,0.4-0.1,0.6-0.1
						h5.9c0.2,0,0.4,0,0.6,0.1c0.2,0.1,0.3,0.2,0.5,0.3c0.1,0.1,0.2,0.3,0.3,0.5c0.1,0.2,0.1,0.4,0.1,0.6V13.9z M82.5,6.6v7.3h5.9
						V6.6H82.5z"/>
					<path class="st9" d="M94,15.4h-1.5V5.1H94l6.2,8v-8h1.5v10.3h-1.5l-6.2-8V15.4z"/>
				</g>
				<ellipse class="st9" cx="108.6" cy="10.3" rx="1.4" ry="1.4"/>
			</g>
		</g>
		<g>
			<defs>
				<polygon id="SVGID_00000108277508002811059970000008687690384429017497_" points="227.6,48.2 227.6,314.3 121.9,337.1 
					16.2,314.3 45.8,320.6 45.8,44.8 121.9,36 				"/>
			</defs>
			<clipPath id="SVGID_00000137133356546455787150000016333507555192003484_">
				<use xlink:href="#SVGID_00000108277508002811059970000008687690384429017497_"  style="overflow:visible;"/>
			</clipPath>
			<defs>
				<filter id="Adobe_OpacityMaskFilter" filterUnits="userSpaceOnUse" x="59.3" y="90.8" width="212" height="302.6">
					<feColorMatrix  type="matrix" values="1 0 0 0 0  0 1 0 0 0  0 0 1 0 0  0 0 0 1 0"/>
				</filter>
			</defs>
			
				<mask maskUnits="userSpaceOnUse" x="59.3" y="90.8" width="212" height="302.6" id="mask2_485_100514_00000145054074743055550920000012170446825486537091_" style="clip-path:url(#SVGID_00000137133356546455787150000016333507555192003484_);">
				<rect x="51.2" y="75.8" class="st11" width="211.2" height="264.7"/>
			</mask>
			<g class="st12">
				<path class="st13" d="M271.3,158c-0.4,2.5-0.8,4.9-1.2,7.4c-0.1,1.1-0.8,1.6-1.7,2c-2.6,1.1-5.3,2.1-8.1,2.5
					c-1.6,0.2-3.3,0.7-4.8,1.3c-4.5,1.9-9,3.7-13.8,4.5c-0.8,0.1-1.2,0.7-0.7,1.7c0.8,1.7,0.7,3.9,2.5,5.1c0.1,0-0.2,0.8-0.3,0.8
					c-1.5,0-3.1,1.4-4.5-0.3c-3.9-1.4-7.8-2.5-11.8-3.4c-1.6-0.3-3.2-0.7-4.8-1.2c-3.3-1.2-6.3-0.1-9.4,0.7c-0.1,0-0.2,0.1-0.2,0.1
					c-0.2,0.2-0.5,0.4-0.5,0.6c0.1,1.4,0.2,2.8,0.5,4.1c0.1,0.3,1.1,0.5,1.6,0.5c0.7,0,1.4-0.3,2.1-0.5c5.2-2,10.4-1.2,15.6,0.1
					c0.2,0,0.3,0.1,0.5,0.2c0.7,0.5,2-0.2,2.3,1.1c-0.8,0.3-1.7,0.7-2.5,0.9c-1.8,0.3-3.5,1-5.4,0.3c-0.9-0.4-2.5,0-3.4,0.6
					c-1.2,0.7-2.4,0.8-3.6,1.2c-0.9,0.3-2.4,0-2.3,1.7c0,0.1-0.3,0.2-0.4,0.3c-2.4,1.3-3.5,3.5-3.9,6.1c-0.1,0.8-0.6,1.6-1,2.2
					c-1.2,1.6-1.8,3.5-2.3,5.4c-1.3,4.5-2.4,8.9-3.8,13.4c-1.2,3.7-2.6,7.3-4.4,10.8c-2,3.8-3.3,7.8-4.4,11.9
					c-0.5,1.9-0.5,3.8-0.7,5.8c0,0.4,0.1,0.8,0,1.1c-0.9,2.7,0.2,5.3,0.7,7.8c0.2,0.8,0.3,1.2-0.7,1.1c-0.1,0-0.3,0.2-0.4,0.3
					c-0.9,1.7-2.5,2.4-4.1,3.1c-0.8,0.3-1.2,0.6-0.6,1.6c1.1,2.1,0.7,4.3-0.4,6.4c-0.3,0.5-0.6,1-0.5,1.6c0.1,3.1-1.7,5.2-3.4,7.4
					c-1.3,1.7-2.6,3.4-3.9,5.1c-0.2,0.2-0.4,0.4-0.5,0.7c-0.9,2.5-2.3,4.3-5.1,4.8c-0.8,0.1-1.8,0.8-1.3,2c0,0.1,0,0.4-0.1,0.5
					c-1.3,1.5-2.7,3-4.1,4.5c-0.4,0.4-1.1,0.5-1.5,1c-0.3,0.4-0.3,1-0.5,1.4c-2.1,3.4-4.6,6.5-7.4,9.3c-1.1,1.1-2.2,1.9-3.9,1
					c-0.5-0.3-1.4,0.1-2.1,0.4c-1.6,0.8-3,1.7-4.6,2.5c-2.6,1.5-5.2,3-7.8,4.5c-2.8,1.7-4.8,4.2-6.6,7c-0.7,1.2-1.6,2.2-2.4,3.3
					c-0.6,0.7-1.6,1.2-0.5,2.3c0.2,0.2-0.2,0.9-0.3,1.3c-0.4,1.1-0.8,2.2-1.1,3.4c-0.3,1.4,0,1.7,1.5,1.9c0.9,0.2,1.7,0.5,2.6,0.9
					c0.4,0.2,0.8,0.6,1.2,0.7c2.6,0.4,3.6,2.3,4.3,4.5c0.8,2.4,0.5,4.7-0.8,6.9c-1.6,2.5-3.2,5-4.6,7.5c-2.2,4-2.9,8.6-4,13
					c1.1,2.8-1.2,3.9-2.6,5.5c-2,2.3-4.5,2.9-7.4,3c-3.7,0.1-5.2-3.2-4.7-6c0.6-3.6,1.4-7.2,2.1-10.9c0.2-1.1-0.1-2.1-0.8-3.1
					c-1.4-2-1.1-2.8,1-4c0.4-0.2,0.8-0.4,1.2-0.6c0.6-0.4,1.6-1,1.6-1.3c-0.2-0.9-0.8-1.6-1.3-2.4c-0.1-0.1-0.4-0.1-0.6,0
					c-0.9,0.7-1.9,1.2-2.6,2.1c-3.6,4.4-8.1,7.7-12.7,10.9c-4,2.7-8.1,5.3-12,8.2c-1.8,1.4-3.5,3.1-4.9,4.9c-2.3,3-4.4,6.2-6.5,9.2
					c-0.4,0.5-0.9,1-1.3,1.4c-1,0.9-1.6,2-1.9,3.3c-0.2,1.1-0.6,2.1-1.1,3.1c-0.8,1.8-2.2,2.8-4.3,3.1c-2.4,0.4-4.6,0.3-6.9-0.5
					c-1.9-0.7-3.2-2-3.9-3.7c-0.6-1.7-1.5-2.9-3.1-3.7c-1.7-0.8-1.9-1.9-0.8-3.3c2.2-3,4.4-6,7.2-8.4c4-3.6,8-7.4,12.8-9.9
					c2.5-1.3,4.1-3.3,5.5-5.7c4.3-7.7,8.5-15.4,12.8-23c0.7-1.2,1.6-2.3,2.4-3.4c0.5-0.7,1.2-1.4,1.7-2.2c0.9-1.6,1.4-3.4,3.6-3.9
					c0.6-0.1,1.1-0.8,0.3-1.7c-2-2.1-2.4-4.6-1.5-7.5c1.1-3.3,2.1-6.7,2.6-10.2c0.4-2.6,0-5.4,0-8.1c0-0.6-0.2-1.3,0-1.9
					c1.3-4.9,2.6-9.7,4-14.6c0.3-1,0.7-1.9,1.2-2.7c1.1-1.6,1.1-3.6,1.6-5.3c0.5-1.8,0.7-3.7,2.1-5.1c0.2-0.2,0.2-0.5,0.2-0.8
					c0.1-1,0.7-2.2,1.9-3.5c0.1-0.1,0-0.5,0-0.7c0-0.2-0.2-0.4-0.1-0.5c0.6-0.6,1.6-1.2,1.6-1.7c0-1,0.2-1.5,0.9-2l1.6-2.8
					c-0.5-1,0-1.9,0.5-2.6c1.7-2.3,2.1-5.3,3.8-7.7c0.6-0.9,1.2-2.5,1.1-3.5c-0.1-1.2,0.1-2.4,0.3-3.5c0.6-3.6,0.9-7.2,1.6-10.8
					c1-4.9,2.8-9.6,3.5-14.5c0-0.4,0.5-0.9,0.8-1c1.6-0.4,1.8-2,1.6-2.9c-0.3-1.8,0.7-2.8,1.6-3.8c0.2-0.3,0.7-0.5,0.7-0.7
					c-0.3-1.6,0.7-2.4,1.8-3.1c0.2-0.2,0.4-0.6,0.4-1c0.1-1,0.2-2,0.1-3c-0.3-3.3,0.1-6.5,0.4-9.7c0-0.4-0.2-0.8-0.4-1.1
					c-1.2-1.8-1.1-2,1-2.2c0.2,0,0.4-0.1,0.6-0.1c-0.1-0.1-0.3-0.3-0.4-0.3c-3-0.6-6.1-1.2-9.1-1.8c-0.8-0.2-1.6-0.6-2.4-0.7
					c-1.3-0.2-2.4-1.1-3.9-0.5c-0.6,0.2-1.4-0.2-2.1-0.5c-1.2-0.6-2.6-1-3.5-2.2c-0.3-0.3-0.8-0.5-1.2-0.5c-3.2-0.2-5.3-2.5-7.7-4.1
					c-0.3-0.2-0.7-0.6-0.7-0.8c0.3-1.5-1-2.4-1.2-3.6c-0.2-1-0.3-2,0-3c0.7-2.5,1.6-4.9,2.5-7.3c0.3-0.8,0.8-1.5,1.2-2.1
					c0.6-0.9,0.4-1.5-0.5-2.1c-2.8-2.1-5.5-4.2-8.4-6.2c-3.7-2.6-7.5-5.2-11.3-7.7c-0.5-0.4-1.1-0.6-1.7-0.8c-3-1.1-4.8-3.6-6.5-6.2
					c-1.3-2-2.9-3.8-4.3-5.8c-0.7-1-1.8-0.8-2.7-1.1c-0.7-0.2-0.9-0.9,0-1.1c1-0.2,0.6-0.8,0.3-1.1c-1.1-1.1-2.2-2.2-3.3-3.3
					c-0.5-0.4-1.3-0.7-1.4-1.2c-0.3-1.6-1.6-1.7-2.7-2.1c-2.2-0.7-4.3-1.2-5.5-3.7c-0.3-0.7-1.6-1-2.3-1.7c-0.4-0.3-0.5-0.9-0.7-1.3
					c0.4-0.2,0.9-0.5,1.2-0.4c1.2,0.3,1.6-0.1,1.4-1.2c-0.2-1.3-0.5-2.5-0.9-3.8c-0.4-1.3-0.6-0.1-1,0c-0.2,0.1-0.5,0.1-0.7,0.1
					c0-0.6-0.1-1.3,0.1-1.9c0.1-0.3,0.8-0.6,1.1-0.5c0.8,0.2,1.4-0.1,2.2-0.4c2.3-0.8,4.6-0.3,6.9,0.4c0.3,0.1,0.6,0.1,1,0.1
					c-0.1-0.2-0.2-0.5-0.4-0.7c-1.3-2.3-2.7-4.2-5.8-2.6c-0.3,0.2-0.8,0.1-1.1,0c-0.5-0.2-0.8-0.6-1.2-0.9c0.4-0.3,0.8-0.7,1.2-0.9
					c0.4-0.2,0.9,0,1.4-0.1c0.6-0.1,1.3-0.1,1.9-0.2c-0.3-0.5-0.6-1.1-0.8-1.6c-0.3-1.4-0.5-2.7-0.7-4.1c-0.1-0.8-0.2-1.8,0.8-2.2
					c1.1-0.4,2.4-0.7,3.4,0.2c1,0.9,1.7,1.9,2.6,2.9c0.7,0.8,1.5,1.6,2.1,2.4c0.3,0.3,0.6,0.8,0.6,1.1c-0.2,2.4,1.8,3.8,2.5,5.8
					c0,0.1,0.1,0.2,0.2,0.2c0.6,0.8,2.4,0,2.2,2.1c-0.1,0.9,1.4,1.8,2,2.9c0.6,1,1,2.2,1.4,3.3c1.1,3.8,3.5,6.5,6.6,8.7
					c1.6,1.2,3.2,2.5,4.8,3.7c1,0.8,1.8,1.9,3.3,1.9c0.4,0,0.8,0.4,1.1,0.8c2.2,3.1,5.7,4.5,8.8,6.3c3.7,2.1,7.5,4,11.2,6.1
					c0.8,0.4,1.4,1.1,2.2,1.7c0.7,0.5,1.4,1,2.1,1.2c1.3,0.3,2.7,0.6,4,0.6c2.2-0.1,4.2,0.7,5.8,2c1.7,1.3,3.3,1.9,5.3,1
					c0.2-0.1,0.5-0.1,0.8-0.1c2.8-0.2,5.6,0,8.4,0.1c2.2,0.1,4.5,1.5,6.6,2.4c1.9,0.9,3.8,1.9,5.6,2.9c0.1,0.1,0.3,0,0.5,0
					c0-0.1,0-0.3-0.1-0.4c-1.1-1.3-2.2-2.5-3.2-3.8c-1-1.4-2-2.9-3-4.3c-0.7-1-1.7-1.9-2.1-3.1c-0.4-1.2-0.2-2.6-0.4-3.9
					c-0.4-2.9-1.1-5.8-1.3-8.7c-0.1-1.2,0.7-2.5,0.9-3.7c0.4-2.7,1.2-5.2,2.7-7.5c0.5-0.8,1.6-1.6,1.2-3c-0.1-0.2,0.4-0.6,0.7-0.8
					c2-1.6,4.2-3,6-4.9c1.2-1.3,2.5-1.8,4.2-2.2c2.1-0.5,4.2-1.2,6.3-1.6c3.3-0.6,6.6-1,10-0.1c1.8,0.4,3.7,0.5,5.4,1.1
					c2.2,0.8,4.3,1.9,6.5,3c4.5,2.1,7,6,9.3,10.3c0.7,1.3,1.7,2.5,2.2,3.9c0.4,1.3,0.1,2.9,0.4,4.3c0.4,1.8,0.5,3.4,0,5.2
					c-0.5,1.7-0.4,3.5-0.8,5.2c-0.4,1.9-0.9,3.8-2.6,5.1c-0.6,0.4-0.9,1.5-0.9,2.2c-0.1,1.5-0.9,2.5-1.7,3.4
					c-1.9,1.9-4.1,3.5-6.1,5.3c-0.4,0.3-0.8,0.7-1.1,1.1c0.5,0.3,1.2,1,1.5,0.9c1.4-0.7,2.3,0.2,3.3,0.8c1.1,0.7,2.3,0.9,3.7,0.7
					c1.8-0.3,3.6-0.4,5.2,1c1,0.9,2.4,0.9,3.6-0.1c0.7-0.5,1.4-1,2-1.5c2.3-1.8,4.8-2.3,7.5-1.3c1.7,0.6,3.3,1.4,5,1.9
					c1.7,0.5,3.4,0.8,5.1,0.9c2.2,0.1,4.4-0.3,6.6-0.4c1.4-0.1,2.8,0,4.1-0.1c1.2-0.1,2.4-0.3,3.5-0.6c3.2-1,6.4-2.3,9.7-3.1
					c3.7-1,7.5-1.6,11.3-2.3c1-0.2,1.7-0.1,2,1.2C270.2,153.6,271.3,155.6,271.3,158L271.3,158z M121,176.7c0-0.4,0.1-0.7,0.1-1.1
					c0-0.3,0.2-0.8,0-0.9c-0.4-0.4-1.3-1.1-1.5-1c-0.6,0.4-1.1,1.2-1.5,1.9c-0.1,0.1,0.5,0.7,0.9,0.9
					C119.7,176.6,120.3,176.6,121,176.7c0.8,0.7,4.7,2.5,5.8,2.6c0.2,0,0.3,0,0.5-0.1c-0.1-0.1-0.2-0.3-0.3-0.4
					C125,177.8,123.6,175.6,121,176.7L121,176.7z M195.6,156.3l0,0.2c-0.3,0-0.6,0-0.8,0c-1-0.1-1.4,0.3-1.1,1.2
					c0.4,1.1,1,2.2,1.3,3.3c0.4,1.3,0.1,2-1.2,2.2c-1.5,0.3-3.1,0.5-4.6,0.6c-1.7,0-2.8,0.6-3.4,2.2c-0.6,1.5-1.2,2.9-1.8,4.3
					c-1.4,3.4-2.4,7-3.1,10.6c-0.5,2.7-0.9,5.5-1.4,8.2c-0.6,3.6-1.3,7.3-1.9,10.9c-0.7,3.9-1.3,7.8-2,11.7
					c-0.7,3.9-1.5,7.8-2.5,11.6c-1.4,5.4-2.9,10.9-4.6,16.2c-1.5,4.7-3.5,9.3-5.2,14c-0.2,0.6-0.1,1.1,0.7,1.2
					c1.6,0.2,3.3,0.4,4.9,0.6c2.2,0.3,4.3,0.5,6.5,0.9c2.4,0.5,2.9,0.3,3.7-2c1.1-3.1,1.9-6.4,3.1-9.4c2.8-7.3,5.6-14.6,7.8-22.2
					c1.6-5.5,2.8-11.1,3.5-16.8c0.4-2.8,0.7-5.7,1.2-8.5c0.6-2.9,1.1-5.8,1-8.8c0-0.6,0-1.1,0-1.7c0.3-2.9,0.7-5.9,1.1-8.8
					c0.3-2,0.4-4.1,0.9-6c1.1-4.1,2.4-8.2,3.6-12.2c0.5-1.7,0.5-1.9-1.1-2.4C198.7,156.9,197.1,156.7,195.6,156.3L195.6,156.3z
					 M200.7,117.7c-0.1-2.6-0.4-4.3-1.6-5.2c-2.5-2-4.8-4.3-7.8-5.6c-1.7-0.7-3.3-0.8-5,0c-1.4,0.7-2.8,1.3-4.3,1.9
					c-1.2,0.5-2.5,0.5-3.7,0c-1.3-0.6-2.7-1-4.1-1.5c-1.5-0.6-3-0.4-4.5,0.2c-2.5,0.9-4.3,2.7-6.3,4.3c-2.7,2.4-3.8,5.1-2.7,8.6
					c0.5,1.7,0.3,3.3-0.9,4.7c-1.3,1.6-2.5,3.2-3.6,4.9c-0.6,0.9-1.1,2-0.8,3.2c0.5,1.9,1.1,3.7,1.5,5.6c1,4.7,3.7,7.3,8.5,7.4
					c0.4,0,0.7,0.2,1,0.3c1.7,0.2,2.7,1.3,3.6,2.6c1.1,1.6,2.1,3.3,3.2,4.8c0.5,0.7,1.3,1.5,2.1,1.7c2,0.4,4,0.6,6,0.6
					c1.6,0,3.3-0.2,4.9-0.6c1.5-0.3,2.9-0.9,3.6-2.6c0.7-1.7,1.9-3.2,2.8-4.7c0.7-1.1,1.7-1.8,3-2.1c1.5-0.4,3-0.7,4.5-1.2
					c1.2-0.4,2.1-1.2,2.8-2.5c2-3.5,2.3-7.4,3.1-11.2c0.2-0.9-0.1-1.8-0.8-2.5c-1.3-1.4-2.5-2.9-3.8-4.3c-0.9-1-1.4-2.1-1.3-3.5
					C200.4,119.9,200.6,118.8,200.7,117.7L200.7,117.7z M165.4,189.4c-0.1,0.3-0.2,0.5-0.2,0.7c0,0.3-0.1,0.7-0.1,1
					c0.2-0.2,0.5-0.4,0.7-0.6c0.7-0.7,1.5-1.4,2.2-2c0.2-0.2,0.6-0.2,1-0.2c-0.1,0.4-0.1,0.9-0.3,1.2c-0.7,0.8-1.4,2-2.4,2.3
					c-1.7,0.6-1.9,1.9-2,3.2c-0.2,2.1-0.2,4.1-1,6.1c-0.4,1,0.4,2.4,0.2,3.5c-0.2,1.1-1.1,2.1-1.4,3.2c-0.3,0.9,0,1.7,1.1,0.6
					c0.1-0.1,0.5,0,0.7,0c0,0.2,0,0.5-0.1,0.7c-0.3,0.5-0.5,1.1-0.9,1.4c-1.2,0.9-1.4,2.1-1.6,3.4c0,0.3,0,0.6,0,0.9
					c0.2-0.1,0.5-0.2,0.7-0.3c0.6-0.4,1.2-0.7,1.8-1.1c0.3,1.1-0.3,1.7-1,2.2c-0.3,0.2-0.5,0.5-0.8,0.7c-1.2,0.8-1.4,2.1-1.6,3.3
					c-0.1,0.4,0.1,0.7,0.1,1.1c0.3-0.2,0.6-0.3,0.8-0.5c0.4-0.3,0.6-0.7,1-1c0.5-0.3,1.4-0.9,1.5-0.7c0.8,0.8-0.3,1-0.6,1.4
					c-0.6,0.8-1.2,1.8-2,2.2c-1.3,0.7-1.5,1.9-2,3.1c-0.8,1.6,0,3.3-1,4.9c-1,1.6-1.7,3.4-2.6,5.2c-0.1,0.2,0,0.5-0.1,0.7
					c0.2-0.2,0.4-0.3,0.6-0.5c0.6-0.6,1.3-1.3,1.9-1.9c0.1-0.1,0.5,0,0.7,0c0,0.2,0,0.5-0.1,0.7c-1,1-1.8,2.2-3,2.9
					c-1.1,0.7-1.7,1.6-2.1,2.8c-0.6,1.4-1.3,2.9-1.9,4.3c-0.1,0.2,0,0.5,0,0.7c0.1-0.1,0.3-0.2,0.4-0.3c0.6-0.4,0.8-1.3,1.8-0.9
					c-0.3,0.6-0.5,1.3-0.9,1.9c-0.4,0.6-1.1,1-1.6,1.5c-0.5,0.4-1,0.8-1.4,1.3c-0.2,0.3-0.1,1,0.1,1.2c0.3,0.3,1,0.5,1.4,0.4
					c0.6-0.2,1-0.8,1.5-1.2c0.2-0.1,0.5-0.1,0.7-0.1c0,0.2,0.1,0.5,0,0.7c-0.3,0.6-0.7,1.2-1,1.8c0.7,0.3,1.3,0.6,2,0.8
					c1.1,0.4,2.2,0.8,3.4,1.1c2.7,0.9,2.9,0.8,3.9-1.7c1.7-4.5,3.2-9.1,4.8-13.6c0.1-0.4,0.2-0.8,0.2-1.2c-0.3,0.2-0.6,0.5-0.9,0.7
					c-0.2,0.1-0.7,0.1-0.7,0c-0.1-0.3-0.2-0.7-0.1-1c0.3-0.5,0.7-0.9,1.1-1.2c1.3-1.2,2.3-2.6,2.7-4.4c0.6-2.5,1.3-5,1.9-7.5
					c0.1-0.3,0-1-0.1-1.1c-1.6-0.2-0.8-0.9-0.3-1.5c0.8-0.9,1.5-1.9,1.5-3.2c0-0.7,0-1.3-1-0.9c-0.2-0.3-0.5-0.7-0.4-1
					c0.1-0.4,0.5-0.8,0.9-1c1.6-1.1,1.7-3,2.2-4.6c0.1-0.2,0-0.6-0.1-0.8c-0.2,0.2-0.3,0.5-0.5,0.7c-0.7,0.7-1.4,1.5-2.2,2.1
					c-0.2,0.1-0.6,0-0.9-0.1c-0.1,0-0.1-0.6,0.1-0.7c1-1,2.1-2,3.2-3c0.3-0.3,0.8-0.5,0.9-0.8c0.3-1.4,0.4-2.7,0.6-4.1
					c0.2-1.1,0.3-2.2,0.7-3.2c0.4-1.1,0.8-2-0.2-3c-0.2-0.2-0.2-1-0.1-1.1c1.5-0.9,0.9-2.7,1.7-4c0.1-0.2-0.1-0.5-0.1-0.8
					c-0.2,0.2-0.4,0.3-0.7,0.4c-0.3,0.1-0.6,0.2-1,0.3c0-0.3,0-0.7,0.1-0.9c0.5-0.8,1.1-1.4,1.7-2.2c0.4-0.6,0.6-3.3,0.4-3.1
					c-0.6,0.4-1.1,0.9-1.7,1.4c-0.2,0.1-0.5,0.2-0.7,0.2c0-0.3-0.2-0.6-0.1-0.7c0.8-1,1.5-2.2,2.4-3c0.8-0.7,1.1-1.4,1.3-2.3
					c0.5-2.5,1.1-5,1.8-7.5c0.2-0.8,1.1-1.8-0.7-1.4c0,0-0.2-0.5-0.1-0.6c0.5-0.8,1-1.5,1.6-2.3c0.6-0.8,1.3-1.5,1.9-2.4
					c0.3-0.4,0.3-1,0.5-1.5c-0.5,0.1-1,0.2-1.4,0.4c-0.5,0.2-0.9,0.6-1.4,0.8c-2,0.8-2.6,3-4.2,4.3c-0.6,0.5-0.9,1.5-2,1.1
					c0.3-0.6,0.6-1.3,0.9-1.9c0.3-0.5,0.6-0.9,0.9-1.4c-0.5-0.2-1-0.2-1.4-0.5c-0.7-0.5-1.5-1.1-2.1-1.8c-0.7-0.8-1.1-0.5-1.9-0.1
					c-2.1,1.1-2.2,3.3-3,5c-0.1,0.2-0.1,0.7,0,0.8c1.7,1,0.4,1.7-0.2,2.6c-0.5,0.7-0.8,1.7-1,2.5c-0.3,0.9,0,1.1,1.1,0.8
					c0.3-0.1,0.6-0.1,0.9-0.1c-0.1,0.3-0.1,0.7-0.3,1c-0.7,1-1.6,2-2.3,3.1c-0.4,0.7-0.4,1.6-0.5,2.4c0.6-0.4,1.2-0.8,1.8-1.2
					c0.1,0,0.2-0.1,0.3-0.1c0.3-0.1,0.6-0.1,1-0.1c-0.1,0.3,0,0.7-0.2,1c-0.5,0.6-1.1,1.2-1.7,1.8
					C166.1,187,164.9,187.8,165.4,189.4L165.4,189.4z M193.9,252.3c0-0.1,0-0.8-0.1-1.4c-0.1-0.4-0.4-0.9-1-0.4
					c-0.3,0.3-0.6,0.7-1,1c-0.6,0.4-0.9,1.5-2,1.2c0.3-0.7,0.6-1.5,1-2.1c0.3-0.5,0.8-1.1,1.3-1.4c1-0.5,1.3-1.3,1.4-2.2
					c0.4-1.6,0.6-3.3,0.8-4.9c0.2-1.6,2-3.1,0.2-4.8c-0.1,0,0.2-0.5,0.3-0.7c2.1-1.5,1.8-4.2,3.1-6.1c0.1-0.1,0-0.3,0-0.5
					c-0.1,0.1-0.3,0.1-0.4,0.2c-0.7,0.7-1.5,1.4-2.2,2.1c-0.1,0.1-0.5,0-0.7,0c0,0-0.1-0.2-0.1-0.2c1-1.2,1.8-3,3-3.4
					c1.4-0.5,1.8-1.3,2.2-2.3c0.6-1.3,1.1-2.5,1.6-3.8c0.2-0.5,0.3-1,0.5-1.5c-0.4,0.3-0.8,0.7-1.2,1c-0.3,0.2-0.6,0.2-1,0.2
					c0.1-0.3,0.1-0.6,0.3-0.9c0.3-0.6,0.6-1.3,1.1-1.6c2.9-1.5,3-4.3,3.5-7c0.1-0.5,0.3-1,0.4-1.5c0.3-1.5,2.1-2.8,0.2-4.4
					c-0.1-0.1,0.2-1,0.6-1.3c1.5-1.3,2.1-2.9,2.6-4.7c0.7-2.7,1.8-5.2,3.2-7.6c0.4-0.8,0.7-1.7,1-2.5c-0.6,0.4-1.1,0.9-1.7,1.2
					c-0.1,0.1-0.6-0.1-0.7-0.2c-0.1-0.2-0.1-0.6,0-0.7c0.5-0.6,1-1.1,1.5-1.7c0.2-0.3,0.3-0.9,0.1-1.2c-0.5-0.6-1.4-0.9-1.6-1.5
					c-0.2-0.6,0.3-1.4,0.4-2.2c0-0.5,0-1.4-0.3-1.6c-1.1-0.6-0.3-1.4-0.4-2.2c-0.3-2.1-0.6-4.2-0.9-6.3c-0.2-1-0.4-0.6-0.8,0
					c-0.6,0.8-1.4,1.5-2.2,2.2c-0.2,0.1-0.7,0.1-0.7,0.1c-0.1-0.3-0.3-0.8-0.1-0.9c0.8-0.9,1.5-1.9,2.5-2.6c1.1-0.8,1.4-1.5,0.7-2.8
					c-0.3-0.5-0.4-0.7-0.9-0.2c-0.7,0.7-1.5,1.4-2.2,2.1c-0.1,0.1-0.4,0-0.5-0.1c-0.1-0.1-0.2-0.3-0.1-0.4c0.7-1,1.3-2.2,2.2-2.8
					c1.2-0.9,1.5-2,1.4-3.3c0-0.3-0.1-0.6-0.1-0.8c-0.2,0.1-0.5,0.3-0.7,0.4c-0.7,0.5-1.3,2-2.1,1.3c-1-1,0.6-1.7,1.2-2.3
					c1-1,2.1-1.8,1.7-3.4c-0.1-0.6,0-1.2,0-1.8c-0.4,0.5-0.7,1-1.2,1.4c-0.5,0.5-1,1.8-1.9,0.9c-0.6-0.6,0.2-1.5,0.8-2
					c0.1-0.1,0.2,0,0.2-0.1c0.3-0.3,0.5-0.7,0.7-1.1c-0.4-0.1-0.8-0.2-1.3-0.3c-1-0.2-1.7,0.3-2.2,1.2c-0.6,1.2-1.2,2.5-1.7,3.8
					c-0.2,0.5-0.1,0.9,0.7,0.6c0.5-0.2,0.9,0.1,0.5,0.7c-0.2,0.4-0.4,0.9-0.7,1.2c-1.8,1.3-2.1,3.4-2.7,5.3c-0.1,0.2,0,0.5,0.1,0.8
					c0.2-0.2,0.4-0.3,0.6-0.5c0.6-0.8,1.2-1.6,1.9-2.3c0.2-0.2,0.6,0,1,0c0,0.3,0.1,0.8-0.1,1c-1.1,1-2.2,1.9-3.3,2.9
					c-0.3,0.2-0.6,0.4-0.7,0.7c-0.2,1.4-0.8,2.9-0.5,4.1c0.5,1.7-1.1,2.7-0.7,4.3c0.1,0.4,0,1.1,0.3,1.3c0.7,0.4,0.6,0.7,0.2,1.3
					c-0.9,1.1-1.1,2.3-1,3.7c0,0.4,0.1,0.6,0.6,0.5c0.8-0.3,0.9,0,0.5,0.8c-0.6,1.1-1.2,2.3-1.6,3.5c-0.2,0.7-0.1,1.4,1,0.8
					c0.2-0.1,0.5,0,0.8,0c0,0.2,0,0.5-0.1,0.7c-0.4,0.7-0.8,1.5-1.4,2c-1,0.9-0.9,2-0.8,3.1c0,0.7,0.3,0.4,0.7,0.2
					c0.5-0.4,0.8-1.3,1.8-0.9c-0.3,0.6-0.5,1.3-0.9,1.9c-0.4,0.6-1.1,1-1.5,1.7c-0.5,0.9-0.8,1.8-1.1,2.8c-0.1,0.3,0.1,0.7,0.1,1
					c0.3-0.2,0.6-0.4,0.9-0.7c0.8-0.6,1.6-1.2,2.3-1.8c0.2,1.3-0.9,2-1.5,2.9c-0.3,0.4-0.8,0.9-1.3,1.1c-0.8,0.3-1,0.9-1.2,1.7
					c-0.6,2.5-0.5,5.2-1.6,7.6c-0.2,0.4-0.1,1.4,0.2,1.6c1.1,0.7,0.3,1.1,0,1.7c-0.9,1.4-1.7,2.8-1.9,4.5c0,0.2,0,0.5,0,0.7
					c0.1-0.1,0.3-0.2,0.4-0.3c0.2-0.2,0.3-0.5,0.5-0.6c0.5-0.2,1-0.3,1.5-0.5c-0.2,0.4-0.2,1-0.5,1.3c-0.7,0.9-1.3,1.9-2.1,2.5
					c-0.9,0.6-1.2,1.2-1.5,2.1c-0.4,1.5-0.8,2.8-0.8,4.5c0,1.3-1.5,2.6-2.3,4c-0.3,0.6-0.3,1.4-0.4,2.1c0.5-0.3,1.1-0.7,1.6-1
					c0.2-0.1,0.5-0.3,0.7-0.3c0.1,0,0.4,0.1,0.5,0.2c0.1,0.1,0,0.4-0.1,0.5c-0.4,0.5-0.8,1-1.3,1.4c-2.3,1.7-3.5,4.2-4.3,6.8
					c-0.1,0.3-0.3,0.9-0.2,1c1.4,0.9,0.4,1.6-0.2,2.2c-1.1,0.9-1.3,2.2-1.7,3.4c-0.3,0.7-0.3,1.4-0.5,2.1c0.4-0.5,0.8-0.9,1.3-1.4
					c0.1-0.1,0.2-0.3,0.4-0.4c0.6-0.2,1.1-0.3,1.7-0.5c-0.2,0.4-0.4,0.9-0.6,1.3c-0.3,0.5-0.7,1-1.1,1.6c0.7,0.2,1.4,0.6,2,0.5
					c0.5,0,1-0.6,1.4-1c0.8-0.8,1.6-1.7,2.5-2.5c0.1-0.1,0.5,0,0.7,0.2c0.1,0.1,0,0.5-0.1,0.7c-0.7,0.8-1.4,1.5-2.1,2.2
					c-0.2,0.2-0.3,0.4-0.5,0.7c0.3,0.2,0.6,0.4,1,0.5c0.3,0.1,0.7-0.1,1-0.1c1.7-0.3,2.6-1.6,3.7-2.8c0.4-0.5,0.9-0.8,1.4-1.2
					c0.2-0.1,1,1.1,0.8-0.3C193.9,253.4,193.9,253.1,193.9,252.3L193.9,252.3z M84.7,375.9c0.2-0.2,0.5-0.4,0.6-0.6
					c0.6-0.8,1.1-1.7,1.7-2.5c1.4-1.7,2.6-3.7,4.3-5c4.9-3.7,10.1-6.9,15-10.6c4.3-3.2,8.3-6.6,12.3-10.2c3.5-3.2,6.8-6.7,9.5-10.7
					c1.1-1.6,1.1-1.6-0.5-2.2c-5.2-1.9-10-4.4-13.9-8.6c-1.3-1.4-1.5-1.3-3.3-0.2c-3.4,2.1-6,5.1-8.3,8.3c-2,2.8-3.6,5.8-5.2,8.8
					c-2.5,4.7-5.4,9.3-7.9,14c-1.5,2.9-3.3,5.5-5.9,7.5c-1.6,1.2-3.1,2.6-4.8,3.6c-1.3,0.8-1,1.2-0.1,2c2,1.9,4.7,3.2,5.9,6
					C84.2,375.6,84.5,375.7,84.7,375.9L84.7,375.9z M140.2,244c-0.3,0.9,0.1,1.3,0.9,1.7c1.7,0.8,3.4,1.7,5.2,2.6
					c1.4,0.7,1.6,0.6,2.3-0.9c0.4-0.8,0.6-1.7,1.1-2.6c2.8-5.2,4.8-10.8,6.9-16.4c0.9-2.4,1.5-4.9,2-7.5c0.6-3.3,0.7-6.6,1.2-9.9
					c0.8-4.8,1.8-9.6,2.7-14.4c1-5.8,2-11.7,2.8-17.5c0.8-5.5,2.1-10.9,4.4-15.9c0.3-0.7,0.5-1.3-0.5-1.7c-2.3-1.1-4.4-2.4-6.7-3.4
					c-0.8-0.3-1.2-0.2-1.4,0.6c-1,5.9-3.1,11.6-4.1,17.5c-1,5.9-2.8,11.6-4,17.5c-1,4.7-1.9,9.4-2.4,14.2c-0.5,4.7-1.4,9.3-2.9,13.8
					c-1.8,5.5-3.9,11-5.8,16.5C141.2,240.1,140.8,242.1,140.2,244z M69.1,105.8c-0.7,0-1.1,0-1.6,0c-0.6,0-1.1,0-1.2,0.8
					c-0.1,0.8,0.2,1.5,1,1.7c0.3,0.1,0.7,0,1.1,0.1c3.4,0.6,6.8,1.1,10.2,1.8c2,0.5,3.3,2.4,3.1,4.4c0,0.4-0.5,0.8-0.8,1.3
					c-0.4-0.3-0.9-0.5-1.2-0.9c-0.2-0.3-0.4-0.7-0.4-1c-0.1-1.2-1.1-1.6-1.9-1.8c-2.8-0.7-5.7-1.3-8.5-1.8c-0.3-0.1-0.6,0.2-0.9,0.4
					c0.3,0.2,0.5,0.5,0.8,0.7c1.4,0.6,2.9,1,4.3,1.7c1.8,0.8,2,1.6,1.7,3.5c-0.1,0.7-0.2,1.6,0.2,2.1c3,4,6,8,9.3,11.7
					c4.6,5.1,9.9,9.3,15.6,13.2c6.2,4.3,12.3,8.7,18.4,13c0.7,0.5,1.3,1,2,1.5c0.5,0.4,0.8,0.3,1.1-0.2c1.5-2.5,3.5-4.7,4.3-7.7
					c0.7-2.5,0-5.5-2.2-6.5c-4.6-2.2-8.9-5-13.2-7.9c-5.4-3.6-10.8-7.3-16.1-11c-2.5-1.7-4.9-3.6-7.2-5.5c-1.7-1.4-3.1-3-3.7-5.1
					c-0.6-2.1-1.9-3.7-3.3-5.4c-1.5-1.7-2.8-3.6-3.9-5.6c-1.3-2.2-2.2-4.7-3.4-7c-0.2-0.3-0.4-0.6-0.6-0.9c-0.1-0.1-0.4-0.2-0.5-0.1
					c-0.1,0.1-0.3,0.3-0.3,0.4c0.1,0.4,0.2,0.9,0.4,1.3c1.3,2.8,2.6,5.5,3.8,8.4c0.3,0.7,1.2,1.4,0.3,2.2c-0.8,0.7-1.3-0.1-1.9-0.4
					C72.2,106.4,70.7,105.4,69.1,105.8L69.1,105.8z M149.1,206.4c0-0.4,0-0.6,0-0.8c0-0.3-0.1-0.6-0.1-0.8c-0.3,0.2-0.6,0.3-0.8,0.5
					c-0.6,0.6-1.2,1.2-1.8,1.7c-0.2,0.1-0.5,0-0.7,0c0-0.2-0.1-0.6,0.1-0.7c0.8-0.9,1.4-2,2.4-2.6c1-0.6,1.5-1.2,1.7-2.5
					c0.3-2.6,1-5.1,1.5-7.6c0.1-0.4,0.2-0.9,0-1.1c-1.3-1.2-0.3-2,0.3-2.9c0.6-1,1-2.1,1.4-3.2c0.1-0.2-0.1-0.5-0.1-0.8
					c-0.2,0.1-0.4,0.3-0.7,0.4c-0.7,0.3-0.8,1.6-1.9,1.1c0.3-0.6,0.6-1.3,1-1.9c0.2-0.4,0.5-0.9,0.9-1c1.4-0.6,1.7-1.8,1.9-3.1
					c0.3-1.7,0.7-3.4,1.1-5.1c0.3-1.3,0.9-2.4,0.2-3.8c-0.1-0.3,0-1,0.3-1.2c1.6-1.2,0.9-3.1,1.7-4.6c0.1-0.1-0.1-0.3-0.1-0.5
					c-0.2,0.1-0.3,0.2-0.5,0.3c-0.3,0.2-0.5,0.5-0.8,0.8c-0.1,0.1-0.3,0.1-0.5,0.1c0-0.3-0.2-0.6-0.1-0.7c0.2-0.3,0.5-0.6,0.7-0.9
					c0.8-1.1,1.9-2,2.4-3.2c1-2.5,1.6-5.1,2.3-7.7c0.1-0.4,0-1-0.2-1.1c-1.5-0.9-2.8-2.5-4.9-1.5c-0.8,0.4-0.7-0.2-0.6-0.8
					c0.1-0.8-0.5-1.2-1.2-1.1c-1,0.1-0.7,1-0.6,1.5c0.2,0.8,0.9,1.3,0.8,2.5c-0.2,3.6,0.2,7.3,0.2,10.9c0,1.4-0.1,2.8-0.4,4.2
					c-0.3,1.3-1,2.6-1.5,3.8c-0.1,0.2-0.1,0.5-0.1,0.7c0.3-0.1,0.6-0.1,0.9-0.2c0.3-0.1,0.6-0.2,0.9-0.3c-0.1,0.3,0,0.7-0.2,1
					c-0.4,0.7-0.8,1.6-1.5,2c-3.2,1.9-3.9,5.8-6.3,8.3c-0.1,0.1,0,0.3,0,0.5c0.1-0.1,0.3-0.1,0.4-0.2c0.6-0.4,1.2-0.9,1.8-1.3
					c0.2-0.1,0.5-0.1,0.7-0.1c0,0.3,0.1,0.8-0.1,1c-1.2,1.2-2.4,2.3-3.6,3.4c-1,0.9-2.5,4.4-1.8,5.1c1,1,0.6,1.5,0,2.3
					c-0.2,0.3-0.1,0.9-0.3,1.3c-0.4,1.2,1.1,2,0.9,2.7c-0.3,1.1-1.5,1.8-1.7,3.1c0,0.5-0.2,0.9-0.4,1.3c-0.2,0.5-0.4,0.9,0.5,0.6
					c0.3-0.1,0.8,0.1,1.2,0.1c-0.1,0.3-0.2,0.8-0.4,1c-0.9,0.9-2,1.6-2.8,2.7c-1.5,2-2.8,4.1-4.2,6.2c-0.4,0.6-0.7,1.3-1,2
					c-0.1,0.1,0.1,0.4,0.1,0.6c0.2-0.1,0.3-0.2,0.5-0.3c0.8-1,1.7-1.9,2.5-2.9c0.1-0.1,0.4,0,0.5,0.1c0.1,0.1,0.2,0.4,0.1,0.4
					c-0.9,1.1-1.7,2.7-2.9,3.3c-1.4,0.7-1.8,1.6-1.8,3c0,2.3-0.4,4.5-1.3,6.6c-0.2,0.6-0.6,1.2-0.8,1.8c-0.1,0.2,0,0.5,0.1,0.8
					c0.2-0.1,0.4-0.3,0.6-0.4c0.3-0.1,0.6-0.2,1-0.3c-0.1,0.3,0,0.7-0.2,0.9c-0.6,0.8-1.1,1.7-1.8,2.4c-1,1.1-1.3,2.4-1.4,3.8
					c0,0.1,0.1,0.4,0.3,0.4c0.1,0.1,0.4,0,0.5-0.2c0.7-0.7,0.9-2.2,2.4-1.5c0.1,1.4-1.2,1.7-1.8,2.6c-0.1,0.1-0.1,0.2-0.2,0.2
					c-1.3,0.5-1.4,1.8-1.7,3c-0.1,0.4,0,0.9,0.1,1.4c0.3-0.2,0.7-0.4,1-0.7c0.5-0.4,0.9-1,1.4-1.4c0.5-0.3,1-0.5,1.6-0.7
					c-0.2,0.6-0.4,1.1-0.6,1.7c0,0.1-0.1,0.1-0.2,0.2c-0.4,0.5-0.9,1.1-1.3,1.6c0.7,0.3,1.4,0.5,2,0.8c0.9,0.3,1.7,0.7,2.6,1
					c0.7,0.2,1.4,0.1,1.8-0.8c0.2-0.5,0.6-1,0.7-1.5c0.9-2.8,1.9-5.6,2.8-8.4c0.2-0.5,0.6-1.4,0.4-1.5c-1.6-1.4,0-2,0.6-2.8
					c0.5-0.8,1.1-1.7,1.4-2.7c0.5-1.7,0.8-3.4,1.4-5.1c0.5-1.4,1.1-2.7,1.7-4.1c0.1-0.2,0-0.5,0.1-0.7c-0.2,0.2-0.4,0.4-0.6,0.5
					c-0.3,0.1-0.6,0.1-1,0.2c0.1-0.3,0-0.7,0.2-1c0.2-0.4,0.7-0.6,0.9-1c0.6-1.1,1.2-2.2,1.7-3.4c0.2-0.4,0-0.9,0-1.4
					c-0.3,0.2-0.7,0.4-1,0.6c-0.4,0.3-0.6,0.7-1,0.9c-0.2,0.1-0.5,0.1-0.7,0.1c0-0.2-0.1-0.5,0-0.7c0.7-1,1.4-2,2.2-2.8
					C148.7,208,149.4,207.4,149.1,206.4L149.1,206.4z M150.7,287c-0.2-0.1-0.5-0.2-0.7-0.1c-1.1,0.7-2.2,1.3-3.2,2.1
					c-0.6,0.5-1,1-2.1,0.7c-1.1-0.3-2.6,0.2-3.7,0.7c-4.3,2.1-8.6,4.3-10.3,9.3c-0.6,1.8-1.7,3.3-3.5,4.2c-0.5,0.2-0.8,0.7-1.1,1.2
					c-2.1,3.7-4.1,7.5-6.1,11.2c-0.7,1.3-0.5,2.3,0.5,3.2c1.1,1,2.1,2.1,3.4,2.8c1.5,0.9,2.8,3.1,4.9,1.1c0.1-0.1,0.4,0.1,0.7,0.2
					c0.8,0.2,1.6,0.4,2.5,0.5c0.1,0,0.5-0.4,0.4-0.5c-0.1-0.3-0.3-0.5-0.6-0.7c-0.1,0-0.3,0.2-0.5,0.2c-0.4-0.1-0.9-0.1-1.2-0.3
					c-0.2-0.2,0-0.8,0.2-1.1c0.6-1.7,1.5-3.1,2.5-4.6c0.6-0.8,0.5-2,1.9-1.4c0-0.3,0.1-0.5,0-0.8c0-0.1-0.3-0.2-0.4-0.3
					c1.1-0.4,0.8-1.8,1.5-2.4c0.4-0.3,1.2-0.1,1.5-0.4c0.3-0.3,0.2-1.1,0.4-1.6c0-0.1,0.4-0.3,0.4-0.3c1.4,0.9,1.5-0.4,2.1-1.1
					c0.6-0.6,1.6-0.8,2.4-1.2c1,1.5,1.2,0.5,1.5-0.5c0.1-0.3,0.6-0.7,0.8-0.6c0.8,0.4,1-0.1,1.5-0.6c0.7-0.6,1.8-1.2,2.6-1.2
					c0.9,0,1.5,0.3,2-0.6c0,0,0.6,0.1,0.6,0.3c0.1,0.5,0.2,1,0.2,1.6c0,0.2-0.1,0.5-0.1,0.7c0.2-0.2,0.3-0.3,0.5-0.5
					c0.3-0.3,0.6-1,0.7-0.9c1.2,0.5,1.4-0.2,1.6-1.1c0-0.2,0.4-0.4,0.5-0.4c0.9,0.4,0.9,0,0.5-0.6c-2-3.2-3.5-6.8-6.2-9.5
					c-1.1-1.1-2-2.3-3-3.4c1.3-0.9,2.5-1.7,3.8-2.6c0.1-0.1,0.2-0.1,0.2-0.2C150.6,287.3,150.6,287.2,150.7,287L150.7,287z
					 M236.8,163.4c0.1,3,1.2,5.6,2.5,8.1c0.5,0.9,1.3,1.3,2.4,1c3.6-0.9,7.2-1.8,10.8-2.8c3.8-1.1,7.5-2.3,11.2-3.4
					c1.4-0.4,2.4-1.3,2.7-2.8c0.6-2.6,0.6-5,0-7.7c-0.4-1.6-1-2.3-2.7-2.2c-1.4,0.1-2.7,0.3-4.1,0.5c-2.8,0.5-5.6,0.9-8.3,1.5
					c-3.9,0.9-7.7,2-11.6,3.1C237.6,159.5,236.8,160.7,236.8,163.4L236.8,163.4z M121.4,369.1c0.1,0,0.1,0,0.2,0c0,0.5,0,0.9,0,1.4
					c0.1,2,0.8,2.9,2.7,2.6c2.6-0.4,5.1-1.1,6.2-3.9c0.9-2.2,1.5-4.6,1.9-6.9c0.9-4.3,2-8.4,4.5-12c1.4-2.1,2.8-4.3,3.9-6.7
					c1.7-3.6-0.5-6.1-3.6-6.8c-0.3-0.1-0.7,0.1-1,0.2c0.1,0.2,0,0.6,0.2,0.7c1.3,1.3,0.9,2.8,0.1,4.1c-0.9,1.7-2,3.3-3,5
					c-1.5,2.6-3.5,4.1-6.5,4.6c-1.5,0.3-2.9,1.1-4.3,1.6c-0.6,0.2-0.6,0.6-0.2,1.1c1.3,1.6,0.7,3.3,0.5,5.1
					C122.5,362.6,121.9,365.8,121.4,369.1L121.4,369.1z M126.9,158.2c-1.2-0.1-2.3,0.1-2.9,1.2c-0.7,1.2-1.2,2.5-1.8,3.7
					c-0.1,0.2,0.1,0.5,0.1,0.8c0.2-0.2,0.4-0.3,0.7-0.4c0.3-0.1,0.6-0.2,1-0.3c-0.1,0.3-0.1,0.6-0.2,0.9c-0.6,1.2,0.8,1.2,1.1,1.9
					c0,0,0.7-0.1,1-0.4c0.9-0.8,1.8-1.6,2.6-2.5c0.1-0.1,0.4,0,0.5,0.1c0.1,0.1,0.1,0.3,0.1,0.4c-0.7,0.9-1.3,2-2.2,2.7
					c-0.8,0.6-0.4,0.8,0.1,1c1.2,0.5,2.3,1,3.2,1.8c0.6,0.5,1.2,0.8,1.8-0.1c0.3-0.4,0.8-0.7,1.3-0.9c0.2-0.1,0.5,0.1,0.7,0.1
					c0,0.2,0,0.3-0.1,0.5c-0.2,0.4-0.5,0.8-0.7,1.2c-0.6,0.7,0,1,0.5,1.1c0.6,0.1,1.3,0.1,1.7-0.2c0.6-0.4,1-1.1,1.5-1.6
					c0.5-0.5,1-1,1.6-1.4c0.1-0.1,0.4,0,0.7,0c0,0.3,0,0.6-0.1,0.8c-0.7,0.8-1.4,1.5-2.1,2.2c-0.8,0.9-0.7,1.2,0.5,1.5
					c1,0.2,1.9,0.4,2.9,0.6c1,0.2,1.9,0.6,3.1,0c0.6-0.3,1.7,0.3,2.5,0.6c1.3,0.6,2.3-1.9,3.6-0.3c0.2-0.2,0.6-0.5,0.5-0.6
					c-0.4-1.1,0.2-1.6,0.7-2.4c0.5-0.8,0.8-1.8,1-2.8c0.1-0.3-0.1-0.8-0.3-0.9c-0.3-0.2-0.8-0.1-1.2-0.1c0.2-0.5,0.5-1,0.7-1.4
					c0.4-0.6,0-0.8-0.5-0.9c-1.1-0.1-2.1-0.1-2.9,1c-0.4,0.6-1.1,0.9-1.6,1.3c-0.1,0.1-0.5,0-0.6-0.1c-0.1,0,0-0.3,0-0.5
					c0.1-0.2,0.2-0.3,0.3-0.5c0.2-0.5,1.4-0.7,0.7-1.5c-0.3-0.4-1.2-0.4-1.8-0.4c-0.5,0-1,0.4-1.4,0.7c-0.7,0.6-1.3,1.3-2,2
					c-0.2,0.2-0.6,0.1-0.9,0.2c0-0.3,0-0.6,0.1-0.8c0.5-0.8,1.1-1.5,1.6-2.3c0.1-0.2,0.1-0.9,0-0.9c-1.9-0.7-3.6-2.1-5.8-1.2
					c-0.7,0.3-1,0.3-0.9-0.6c0.1-1-0.7-1.3-1.3-1.6c-0.1-0.1-0.8,0.6-1.2,0.9c-0.5,0.4-0.9,0.9-1.4,1.2c-0.3,0.2-0.6,0.2-1,0.3
					c0-0.3,0-0.7,0.1-1c0.2-0.4,0.5-0.8,0.7-1.2c0.1-0.2,0.3-0.5,0.3-0.7c0-0.3-2.2-0.6-2.5-0.3c-0.4,0.5-0.7,1.2-1.2,1.5
					c-0.9,0.5-1.1,2.1-2.5,1.6c0-1.2,0.9-1.9,1.6-2.6c0.2-0.2,0.4-0.5,0.6-0.8L126.9,158.2L126.9,158.2z M142.6,180.5
					c0.6,0,1.1,0,1.7,0c2.1,0,3.4-1,4.1-3c0.3-0.8,0.2-1.2-0.8-1.3c-2.4-0.3-4.8-0.8-7.3-1.1c-3.9-0.5-7.4-2.1-10.7-3.9
					c-2.6-1.4-5.1-3.3-7.7-4.8c-0.9-0.5-1.2-1.1-1.1-2c0.3-2.6-1.5-4-3.2-5.3c-1.3-1-1.9-0.8-2.6,0.6c-1.1,2.4-1.9,4.8-2.8,7.2
					c0,0.1,0,0.2,0,0.3c0,0.2,0,0.4,0.1,0.5c0.2-0.1,0.4-0.1,0.6-0.2c1.5-1.1,2.9-2.2,4.4-3.3c0.2-0.2,0.5-0.2,0.7-0.4
					c0.1,0.3,0.3,0.5,0.3,0.8c0,0.5-0.2,0.9-0.2,1.4c-0.1,0.8-0.3,1.7-0.3,2.5c0,0.7,0.2,1.4,1.2,0.9c0.2-0.1,0.6-0.1,0.8-0.1
					c0.2,0.1,0.5,0.3,0.6,0.5c0,0.2-0.1,0.6-0.3,0.7c-0.5,0.2-1.5,0.2-0.4,1c1.1,0.9,2.2,2,3.4,2.8
					C129,178.1,135.5,180.3,142.6,180.5L142.6,180.5z M132.6,151.4c-1.1,0-1.7,0-2.4,0c-2.7,0-3.4,0.6-4.2,3.3
					c-0.2,0.6-0.4,0.9,0.5,1.1c2.6,0.6,5.3,1.4,7.9,2.2c1.6,0.4,3.2,0.7,4.7,1.5c3.4,1.9,6.9,3.2,10.8,3.1c2.6-0.1,3-0.4,3.1-3
					c0-1.1-0.3-2.2-0.5-3.3c-0.4-1.9-0.5-1.9-2.3-2c-3-0.1-5.9-0.7-8.9-1.4C138.3,152.2,135.3,150.9,132.6,151.4L132.6,151.4z
					 M221.6,168.1c3-0.4,5.5,0.5,8.1,2.1c1.8,1.1,3.8,1.8,5.7,2.6c0.6,0.3,0.7-0.1,0.6-0.4c-0.5-2-1.1-3.9-1.6-5.9
					c-0.3-1.2-1-1.8-2.2-2.2c-3.8-1.2-7.6-2.2-10.9-4.7c-0.7-0.5-2.5-0.5-3.1,0c-2.1,2-4.6,2.9-7.2,3.6c-0.5,0.2-1.2,0.7-1.3,1.2
					c-0.7,2.4,0.7,4.3,3.1,4.2C215.8,168.6,218.7,168.3,221.6,168.1L221.6,168.1z M82.8,378.2c-0.3-0.8-0.4-1.7-0.8-2.2
					c-1.4-1.5-2.8-2.9-4.3-4.3c-1.7-1.6-3.6-1.2-5.2,0.2c-2.1,1.9-4.1,4-6.1,6c-0.2,0.2-0.3,0.5-0.5,0.7c0.3,0.1,0.6,0.2,1,0.2
					c4.6,0.4,7.3,2.7,8.2,7.3c0.2,0.8,0.4,1.6,0.6,2.4c0.1,0.2,0.3,0.6,0.5,0.6c0.3,0,0.7-0.2,0.8-0.4c0.3-0.5,0.5-1.2,0.6-1.8
					c0.4-2,1.1-3.9,2.9-5.2c0.4-0.3,0.9-0.7,1.1-1.2C82.1,379.9,82.5,379.1,82.8,378.2L82.8,378.2z M210.6,172.9
					c0.3,0.6,0.4,1,0.5,1.3c0.3-0.2,0.7-0.3,0.9-0.5c0.3-0.2,0.5-0.5,0.8-0.7c0.1-0.1,0.4-0.1,0.4,0c0.1,0.1,0.2,0.4,0.1,0.5
					c-0.5,0.8-1,1.5-1.5,2.3c-0.4,0.7-0.2,1.4,0.5,1.3c0.9-0.1,1.7-0.5,2.5-0.9c0.4-0.2,0.6-0.9,1-1.3c0.7-0.6,1.4-1,2.1-1.5
					c0.4,1.2-0.5,1.8-1.1,2.5c-0.1,0.1-0.2,0.2-0.2,0.2c0,0.1,0.1,0.3,0.2,0.4c1.3-0.8,3.2-0.1,4.1-1.8c0.3-0.6,0.9-1,1.4-1.4
					c0.2-0.2,0.6-0.2,0.9-0.3c-0.1,0.3-0.1,0.7-0.2,1c-0.2,0.3-0.5,0.5-0.7,0.8c-0.3,0.3-0.5,0.7-0.8,1c0.4,0.2,0.8,0.5,1.2,0.6
					c0.9,0.2,1.6-0.1,2.2-0.8c0.9-1,1.8-1.9,2.8-2.8c0.1-0.1,0.4-0.1,0.4,0c0.1,0.1,0.2,0.4,0.2,0.5c-0.5,0.8-0.9,1.6-1.5,2.3
					c-0.4,0.5-0.9,1-1.4,1.4c0.7,0.3,1.3,0.6,2,0.9c0.9,0.3,1.7,0.6,2.6,0.8c0.9,0.2,1.7,0.4,2.4-0.5c0.4-0.6,1.1-0.5,0.8,0.4
					c-0.3,0.8,0.1,1.1,0.6,1.2c1,0.2,2,0.1,2.8-0.8c0.2-0.2,0.7-0.2,1.1-0.4c-0.1,0.3-0.2,0.7-0.3,1c-0.1,0.2-0.2,0.4-0.3,0.7
					c0.3,0,0.5,0.1,0.8,0.1c0.5,0,1-0.1,0.7-0.8c-0.4-1.1-1-2.2-1.4-3.3c-0.3-0.9-0.6-0.2-0.9,0c-0.9,0.5-1.4,0.6-0.9-0.7
					c0.1-0.3-0.1-0.8-0.3-1c-0.4-0.3-1-0.5-1.5-0.5c-0.3,0-0.6,0.5-0.9,0.8c-0.5,0.5-1,1.1-1.6,1.6c-0.4,0.3-1,0.3-1.4,0.5
					c0.2-0.5,0.2-1,0.5-1.4c0.4-0.5,0.9-1,1.4-1.4c0.6-0.5,0.6-0.9-0.1-1.2c-1.2-0.5-2.4-0.9-3.5-1.5c-1-0.5-1.8-0.8-2.5,0.3
					c-0.1,0.2-0.4,0.2-0.7,0.2c0-0.3-0.2-0.6-0.1-0.8c0.5-0.9,0.2-1.2-0.7-1.2c-1.8,0-3.5,0-5.3,0c-1,0-2.3-0.4-2.5,1.3
					c-0.4-0.1-0.9,0-1.1-0.2c-1-0.9-2.1-0.7-3-0.2C211.3,171.2,211,172.3,210.6,172.9L210.6,172.9z M193,160.4
					c-0.6-1.4-1.1-2.7-1.7-4c-0.1-0.2-0.9-0.2-1.1-0.1c-1.8,1.2-3.6,2.4-5.4,3.6c-1.9,1.3-3.7,2.7-5.6,3.9c-1.7,1-2.7,0.8-3.8-0.8
					c-1.6-2.5-3.4-4.7-5.1-7c-1.4-1.9-2.4-2.2-4.4-1.2c-0.9,0.4-1.7,1-2.5,1.6c0.8,0.5,1.6,1.1,2.5,1.5c1.8,0.8,3.7,1.3,5,2.9
					c0.9,1,1.8,2.1,2.7,3.1c0.9,0.9,1.8,1.8,2.7,2.6c0.5,0.5,0.9,0.4,1.4,0c1.6-1,3.3-2,4.9-3c1.9-1.1,4-1.8,6.3-1.7
					c1.1,0.1,2.2-0.2,3.2-0.5C192.4,161.3,192.7,160.7,193,160.4L193,160.4z M131.4,329c0-1.9-0.2-2.1-1.9-2.3
					c-0.7-0.1-1.4-0.2-2.1-0.4c-3.7-1-6.6-3.4-9.2-6.2c-0.5-0.5-0.7-0.8-1.2-0.3c-0.9,0.9-1.9,1.8-2.7,2.8c-0.2,0.2-0.2,1,0,1.1
					c2.7,2.1,5.1,4.7,8.4,6.1c1.8,0.8,3.5,1.6,5.3,2.2c2.5,0.7,2.9,0.4,3.4-2.2C131.4,329.5,131.4,329.1,131.4,329L131.4,329z
					 M131,336.1c-0.3,0.4-0.6,0.9-0.9,1.3c-1.5,1.9-3,3.9-4.7,5.7c-0.9,1-1.2,1.7-0.4,2.8c0.3,0.4,0.4,0.8,0.6,1.2
					c1,2,2.1,2.3,3.9,1c0.5-0.4,1-0.8,1.4-1.3c1.3-2,2.6-3.9,3.4-6.2c0.1-0.3,0.2-0.8,0.1-1c-0.7-1-1.5-2-2.4-3
					C131.9,336.5,131.6,336.4,131,336.1L131,336.1z M71.8,391.3c1.9,0,2.3-0.4,1.8-2.3c-0.3-1.3-0.5-2.7-1-4c-0.8-2-2.2-3.5-4.4-3.6
					c-1.5-0.1-3,0.5-4.5,0.9c-0.5,0.1-0.9,0.6-1.3,0.9c0.4,0.3,0.9,0.5,1.2,0.8c0.7,0.8,1.5,1.6,1.9,2.6
					C66.9,389.9,68.6,391.2,71.8,391.3L71.8,391.3z M112.9,317.4c0,0.1,0,0.1,0,0.2c1.1-0.2,2.3-0.2,3.1-0.7
					c1.4-0.9,2.4-2.2,2.7-4.1c0.1-0.5,0.2-0.7-0.4-0.9c-2.7-0.8-5.6-0.3-8.3-1.5c-0.2-0.1-0.8,0.4-1,0.7c-0.3,0.6-0.4,1.2-0.6,1.8
					c-1.3,3.9-1,4.2,3.1,4.4C112,317.5,112.4,317.4,112.9,317.4L112.9,317.4z M128.8,146.4c0.1,0.9,0.4,1.6,0.3,2.1
					c-0.2,0.8,0.1,1,0.7,1c4.2,0.4,8.5,0.7,12.7,1.7c0.8,0.2,1.9,0.6,2.5,0.2c0.8-0.4,1.3-1.5,1.8-2.3c0.5-0.7,0.3-1.1-0.6-1
					c-2.3,0.2-4.5,0.4-6.8,0.6c-0.3,0-0.7,0.3-0.9,0.5c-1,0.9-0.9,0.1-1.4-0.5c-1.1-1.2-2.6-1.9-4-2.8c-0.2-0.1-0.5,0-0.8,0.1
					c-0.5,0.2-1,0.5-1.5,0.7c-0.1-0.4-0.1-0.9-0.3-1.3c-0.1-0.2-0.8-0.3-1-0.1C129.1,145.6,128.9,146.1,128.8,146.4z M117.5,310.1
					c2.2,0.3,3.7-0.8,4.6-3.1c0.3-0.9,0.2-1.2-0.7-1.2c-0.7,0-1.4,0.2-2.2,0.3c-1.1,0.1-2.2,0.4-3.3,0.2c-1.7-0.3-3.3-0.8-5-1.3
					c-0.3-0.1-0.7-0.2-0.7-0.2c-0.3,0.8-0.7,1.5-0.7,2.3c0,0.4,0.5,1,0.9,1.2C112.6,309.3,114.9,310.2,117.5,310.1z M177.4,162.5
					c0.3-0.1,0.5-0.2,0.7-0.4c1.9-1.2,3.8-2.4,5.7-3.6c0.2-0.1,0.3-0.5,0.4-0.7c-0.3,0-0.5-0.1-0.8-0.1c-3.2,0-6.4,0.2-9.5-0.9
					c-0.2-0.1-0.5,0.1-0.7,0.1c0,0.2,0,0.4,0.1,0.5c1.1,1.5,2.3,3.1,3.4,4.6C176.9,162.2,177.2,162.3,177.4,162.5L177.4,162.5z
					 M218.9,156c-2.6-0.3-6.6,2.7-7.2,4.9c0,0.1,0.3,0.3,0.3,0.3c0.9-0.4,2.1-0.6,2.7-1.2c1.8-2.1,4.1-2,6.5-2c1.4,0,2.3,1,3.6,1.1
					c0.6,0,1.1-0.3,1.7-0.4c-0.4-0.2-0.9-0.4-1.3-0.7C223.2,156.6,220.9,156.2,218.9,156L218.9,156z M148.7,152.3
					C148.7,152.3,148.7,152.3,148.7,152.3c0.5,0,0.9,0.1,1.4,0c1.1-0.1,1.5-0.6,1.1-1.6c-0.2-0.5-0.4-1-0.7-1.5
					c-0.6-0.8-1.4-0.8-2.1-0.1c-0.5,0.6-1.1,1.2-1.6,1.7c-0.2,0.2-0.4,0.5-0.6,0.8c0.3,0.2,0.6,0.5,0.9,0.6
					C147.6,152.4,148.2,152.3,148.7,152.3L148.7,152.3z M118.9,173c-0.5-0.4-0.6-0.7-0.8-0.7c-0.7-0.2-1.4-0.2-2-0.4
					c-0.2-0.1-0.6-0.4-0.6-0.5c0.4-0.8,0-1-0.6-0.8c-0.7,0.3-1.2,0.8-1.8,1.2c0.5,0.4,0.9,0.8,1.4,1.2c0.4,0.3,0.8,0.8,1.2,1
					c0.4,0.3,1,0.7,1.3,0.5C117.6,174.3,118.2,173.6,118.9,173L118.9,173z M70.2,116.3c0.3,0.1,0.8,0.3,1.3,0.2
					c0.4,0,0.7-0.5,1.1-0.7c-0.2-0.3-0.3-0.7-0.6-0.8c-1.3-0.6-2.6-1.2-3.9-1.8c-0.9-0.4-0.9,0.1-0.7,0.9
					C67.7,116.3,67.7,116.3,70.2,116.3L70.2,116.3z M233.7,158.9c0,0-0.6,0-0.9,0.4c-0.7,0.7-1.2,1.6-1.8,2.4c0.8,0.3,1.5,0.8,2.3,1
					c0.3,0.1,0.8-0.2,1-0.5c0.3-0.7,0.4-1.6,0.7-2.3C235.3,159,235.2,158.6,233.7,158.9z M220.9,184.8c-0.3,0-0.5-0.2-0.8-0.1
					c-1.3,0.3-2.6,0.6-3.6,1.7c-0.5,0.5-1.1,1.3-2,0.6c-0.2-0.2-0.5-0.2-0.8-0.3c0,0.3-0.1,0.6-0.1,0.8c0.3,0.8,0.9,1.1,1.8,0.8
					c1.3-0.6,2.7-1.1,4-1.8c0.5-0.2,0.8-0.7,1.2-1.1C220.7,185.2,220.7,185,220.9,184.8L220.9,184.8z M108.7,320.3
					c-0.5,0.2-1,0.4-1.4,0.6c0.2,0.4,0.5,0.8,0.8,1.1c1.4,1.4,1.9,1.4,3.3-0.3c0.4-0.5,0.4-0.7-0.3-0.8
					C110.3,320.9,109.6,320.6,108.7,320.3z M230.3,158.7c-1.2,0.1-2.5-0.3-2.9,1.2c-0.1,0.2-0.1,0.7,0.1,0.8c1.5,1,2.3,0.7,3.1-0.9
					C230.9,159.1,231.6,158.5,230.3,158.7z M159.4,294.1c-0.4,0-0.7-0.2-0.9-0.1c-1.3,0.9-2.6,1.8-3.9,2.7c-0.1,0.1-0.1,0.4,0,0.4
					c0.2,0.1,0.5,0.3,0.6,0.2c1.3-0.9,2.6-1.9,3.9-2.8C159.2,294.5,159.3,294.4,159.4,294.1z M160.8,293.8c1.5-1.1,2.8-2,4.1-2.9
					c0.1-0.1,0.2-0.4,0.1-0.5c-0.1-0.1-0.3-0.3-0.4-0.3c-1,0-3.7,1.9-4.1,2.9C160.5,293.2,160.6,293.4,160.8,293.8L160.8,293.8z
					 M169.1,296.2c-0.3-0.2-0.5-0.5-0.6-0.4c-1.7,0.6-2.8,2-3.9,3.2c0.2,0.1,0.3,0.4,0.4,0.3C166.8,299,167.9,297.6,169.1,296.2
					L169.1,296.2z M163.1,299.6c-0.4,0.1-0.8,0.2-1.1,0.4c-1,0.9-2,1.9-2.9,2.8c-0.2,0.2-0.4,0.4-0.6,0.5c0.3,0,0.6,0.2,0.8,0.1
					c1.4-1,2.7-2,4.1-3C163.4,300.3,163.2,299.9,163.1,299.6L163.1,299.6z M163.9,294.7c-0.8,0.4-1.7,0.8-2.5,1.4
					c-0.7,0.5-1.3,1.3-1.9,2c1.1,0.7,1.6-0.5,2.3-0.9c0.8-0.4,1.6-1,2.4-1.6c0.1-0.1,0.2-0.3,0.1-0.4
					C164.3,295,164.1,294.9,163.9,294.7z M183.9,273.5c-0.1-0.1-0.2-0.3-0.4-0.3c-0.9-0.1-3.5,1.7-3.6,2.6c0,0.1,0.4,0.5,0.5,0.5
					c1.2-0.8,2.3-1.6,3.5-2.4C183.9,273.8,183.9,273.6,183.9,273.5L183.9,273.5z M184.9,268.3c-0.3-0.1-0.5-0.2-0.7-0.1
					c-1.7,0.4-2.7,1.8-3.8,3c-0.1,0.1-0.2,0.4-0.2,0.6c0.3,0,0.6,0.1,0.8,0c1.2-0.9,2.4-1.9,3.6-2.9
					C184.6,268.7,184.7,268.5,184.9,268.3L184.9,268.3z"/>
				<path class="st13" d="M180.8,136.7c-0.6,0-1.1,0-1.7,0c-2.3,0-3.7-1-4.4-3.1c-0.5-1.6-0.9-3.2-1.5-4.7c-0.4-1.1-0.2-1.8,0.6-2.5
					c2-1.6,4.1-3.1,6.1-4.6c0.6-0.4,1.1-0.5,1.7,0c2,1.5,3.9,3,6,4.3c1,0.6,1.2,1.5,1,2.3c-0.6,2.2-1.3,4.4-2,6.6
					c-0.4,1.2-1.2,1.8-2.5,1.7C183,136.6,181.9,136.7,180.8,136.7L180.8,136.7z"/>
				<path class="st13" d="M195,142.5c-2.6,0-4.1-1.9-3.7-3.7c0.8-3.2,1.7-6.4,2.6-9.6c0.1-0.5,0.3-1.1,0.6-1.5
					c0.9-1.7,2.9-2,4.2-0.6c1.4,1.4,2.7,2.8,4.1,4.2c1,0.9,1.1,2,0.7,3.2c-0.5,1.3-0.9,2.6-1.3,3.9c-0.3,1.2-0.9,2.1-2.2,2.5
					C198.1,141.4,196.3,142,195,142.5z"/>
				<path class="st13" d="M182.3,153.3c-1.8-0.3-3.2-0.5-4.6-0.9c-0.5-0.1-1-0.5-1.3-0.9c-1.1-1.5-2-3.1-3.1-4.6
					c-0.5-0.8-1.4-1.5-0.6-2.5c0.7-0.9,1.4-1.9,2.9-1.9c1.7,0.1,3.5,0.1,5.2,0c1.3-0.1,2.5-0.3,3.8-0.5c1.4-0.2,2.7-0.1,3.8,1
					c1.3,1.2,1.7,1.9,0.8,3.5c-1.1,1.9-2.2,3.9-3.6,5.5C184.8,153,183.2,153,182.3,153.3L182.3,153.3z"/>
				<path class="st13" d="M167,143c-0.2,0-0.8-0.2-1.4-0.4c-1-0.3-1.9-0.6-2.9-0.7c-1.7-0.2-2.6-1.2-3.1-2.7
					c-0.4-1.2-0.6-2.6-1.2-3.7c-0.7-1.3-0.3-2.4,0.4-3.4c0.8-1.2,1.8-2.3,2.8-3.4c0.4-0.4,0.8-0.8,1.2-1.1c1.9-1.2,3.3-0.8,4.2,1.3
					c1,2.4,1.9,5,2.8,7.5c0.2,0.7,0.4,1.4,0.6,2.1C171.4,141,170.1,143,167,143L167,143z"/>
				<path class="st13" d="M197,117.9c-0.2,0.9-0.3,2.3-0.7,3.5c-0.7,2-2.8,2.3-4.3,1.2c-2.6-1.8-5.3-3.5-7.9-5.4
					c-1-0.7-2.1-1.6-1.8-3.2c0.2-1.2,0.5-2.2,1.7-2.6c1.7-0.7,3.4-1.3,5.1-2c0.2-0.1,0.4,0,0.5,0c1.6-0.1,6.6,2.8,7.1,4.3
					C197,114.9,196.9,116.2,197,117.9L197,117.9z"/>
				<path class="st13" d="M164,117.6c0-0.7,0.1-1.3,0-2c-0.1-1.2,0.5-2,1.3-2.6c1.1-0.8,2.3-1.6,3.4-2.3c1.2-0.8,2.6-1,4-0.6
					c1.5,0.4,2.9,1,4.3,1.6c1.6,0.8,2.1,3.2,0.8,4.5c-2,1.9-4.2,3.5-6.4,5.2c-0.6,0.5-1.1,0.9-1.7,1.4c-0.9,0.7-1.9,1.1-3.1,0.9
					c-1.1-0.2-2.1-0.5-2.1-2c-0.1-1.4-0.5-2.7-0.7-4.1C163.9,117.6,164,117.6,164,117.6L164,117.6z"/>
				<path class="st13" d="M203.9,178.1c-0.1,0.2-0.1,0.3-0.1,0.4c-1.1,1.3-2.2,2.6-3.4,3.9c-0.1,0.1-0.4,0-0.5-0.1
					c-0.1-0.1-0.2-0.3-0.1-0.4c0.7-1.8,2.1-2.9,3.6-4C203.4,177.8,203.7,178,203.9,178.1L203.9,178.1z"/>
			</g>
		</g>
		<g>
			
				<radialGradient id="SVGID_00000139263705533018454170000017254273977411700869_" cx="121.5985" cy="308.4203" r="77.2358" gradientUnits="userSpaceOnUse">
				<stop  offset="0" style="stop-color:#B5A337"/>
				<stop  offset="0.2933" style="stop-color:#C5B13C"/>
				<stop  offset="0.6737" style="stop-color:#D3BD40"/>
				<stop  offset="1" style="stop-color:#D8C141"/>
			</radialGradient>
			<polygon style="fill:url(#SVGID_00000139263705533018454170000017254273977411700869_);" points="227.1,313.9 121.9,336.5 
				16.2,314.2 16.1,280.3 227.1,280.3 			"/>
			<g>
				<g id="XMLID_00000116194998163329310260000003931364382111340189_">
					<g>
						<g>
							<path class="st9" d="M137.1,308.8c0.1,0.8,0.2,1.7,0.4,2.5h-12.1c0-0.5-0.1-1.1-0.3-1.6c0-0.1-0.1-0.1-0.1-0.2
								c0-0.1-0.1-0.2-0.1-0.3c0.3-0.2,0.6-0.4,0.9-0.6c1.1-0.9,2.3-1.7,3.4-2.7c0.4-0.3,0.7-0.6,1-0.9c2.5,0.8,4.8,1.9,6.8,3.5
								C137.1,308.5,137.1,308.7,137.1,308.8z"/>
							<path class="st9" d="M138.1,304.6c0.1,0.2,0.1,0.2,0,0.3c-0.1,0.2-0.2,0.3-0.3,0.5c-2.2-1.5-4.6-2.6-7.1-3.3
								c-0.9-1.9-2-4.1-3.6-6c0,0,0,0,0,0l1.4-1.3c3.2,1.5,5.7,3.7,7.7,6.5C136.9,302.3,137.5,303.4,138.1,304.6z"/>
							<path class="st9" d="M123.5,306.3c-0.4,0.3-0.6,0.4-1.2,0.1c-0.8-0.4-1.6-0.7-2.3-1.1c-1.3-0.6-2.5-1.2-3.8-1.8
								c0.3-1.7,0.8-3.3,1.4-5c1.1-0.3,2.3-0.4,3.7-0.5c0.5,0,0.9,0,1.4,0c0.4,0,0.7,0.1,1.1-0.1c0.1,0,0.3,0,0.4,0
								c0.1,0,0.2,0,0.5,0.3c1.1,1.4,2,2.9,2.9,4.7c-0.7,0.6-1.5,1.2-2.2,1.8C124.8,305.3,124.2,305.8,123.5,306.3z"/>
							<path class="st9" d="M114.2,306.1c2.8,1.4,5.3,2.6,7.9,3.6c0.2,0.6,0.3,1.1,0.4,1.6h-15.3
								C109.2,309.3,111.6,307.6,114.2,306.1z"/>
							<path class="st9" d="M113.5,294.1c3.9-1.4,7.8-1.5,11.9-0.4c-0.1,0.1-0.1,0.1-0.2,0.2c-0.3,0.2-0.5,0.4-0.8,0.7
								c-0.1,0.1-0.1,0.1-0.4,0.1c-2.2,0-4.4,0-6.7,0.5c-0.6,0.1-1.1,0.1-1.6-0.2C115.1,294.7,114.4,294.4,113.5,294.1z"/>
							<path class="st9" d="M114.4,297.6c-0.3,0.9-0.6,1.8-0.8,2.6c-0.3,1.1-0.5,2.2-0.7,3.3c-2.9,1.5-5.5,3.5-7.8,5.8
								c-0.9-0.4-1.6-0.8-2.3-1.3c0.3-2.7,0.8-4.9,1.5-6.9c0.1-0.2,0.2-0.4,0.4-0.6l0.2-0.2c1.6-2,3.1-3.2,4.8-4
								c0.2-0.1,0.2-0.1,0.3-0.1C111.6,296.5,113,297,114.4,297.6z"/>
						</g>
					</g>
				</g>
				<g>
					<g>
						<path class="st9" d="M103.6,315.1c-0.3,0-0.5,0-0.8,0v-1.1c0.2,0,0.5,0,0.8,0h0.2v-0.3c0-0.9,0.5-1.3,1.6-1.3
							c0.4,0,0.7,0,1,0.1l-0.2,1c-0.2-0.1-0.4-0.2-0.7-0.2c-0.3,0-0.5,0.1-0.5,0.5v0.2h0.2c0.3,0,0.6,0,0.9,0v1.1
							c-0.3,0-0.5,0-0.9,0h-0.2v2c0,0.5,0,0.7,0.1,1h-1.4c0-0.3,0.1-0.6,0.1-1v-2H103.6z"/>
						<path class="st9" d="M106.6,316.1c0-1.3,0.9-2.2,2.2-2.2c1.4,0,2.2,0.8,2.2,2.2c0,1.3-0.9,2.2-2.2,2.2
							C107.5,318.3,106.6,317.5,106.6,316.1z M107.9,316.1c0,0.7,0.3,1.2,0.9,1.2c0.6,0,0.9-0.4,0.9-1.2c0-0.7-0.3-1.2-0.9-1.2
							C108.3,315,107.9,315.4,107.9,316.1z"/>
						<path class="st9" d="M111.4,316.1c0-1.3,0.9-2.2,2.2-2.2c1.4,0,2.2,0.8,2.2,2.2c0,1.3-0.9,2.2-2.2,2.2
							C112.3,318.3,111.4,317.5,111.4,316.1z M112.7,316.1c0,0.7,0.3,1.2,0.9,1.2c0.6,0,0.9-0.4,0.9-1.2c0-0.7-0.3-1.2-0.9-1.2
							C113.1,315,112.7,315.4,112.7,316.1z"/>
						<path class="st9" d="M116.9,314c0-0.3,0-0.6-0.1-0.9h1.4c0,0.3-0.1,0.6-0.1,0.9v0.1h0.2c0.3,0,0.4,0,0.7,0v1.1
							c-0.2,0-0.4,0-0.6,0h-0.3v1.7c0,0.2,0,0.3,0.1,0.3c0.1,0,0.2,0.1,0.3,0.1c0.2,0,0.3,0,0.5-0.1l0.1,1c-0.3,0.1-0.6,0.1-0.9,0.1
							c-0.5,0-0.8-0.1-1-0.2c-0.3-0.2-0.3-0.4-0.3-0.9v-2h-0.3c-0.2,0-0.4,0-0.6,0v-1.1c0.2,0,0.4,0,0.6,0h0.2V314z"/>
						<path class="st9" d="M119.7,315c-0.3-0.7-0.3-0.7-0.4-0.9h1.5c0,0.2,0.1,0.5,0.3,0.9l0.6,1.5l0.6-1.5c0.2-0.5,0.2-0.7,0.3-0.9
							h1.5c-0.2,0.3-0.2,0.3-0.4,0.9l-1.5,3.5c-0.3,0.6-0.8,0.9-1.5,0.9c-0.3,0-0.6,0-0.9-0.1l0.1-1.1c0.2,0.1,0.3,0.1,0.5,0.1
							c0.3,0,0.4-0.1,0.5-0.3l0.1-0.3L119.7,315z"/>
						<path class="st9" d="M124.9,314c0-0.3,0-0.6-0.1-0.9h1.4c0,0.3-0.1,0.6-0.1,0.9v0.1h0.2c0.3,0,0.4,0,0.7,0v1.1
							c-0.2,0-0.4,0-0.6,0h-0.3v1.7c0,0.2,0,0.3,0.1,0.3c0.1,0,0.2,0.1,0.3,0.1c0.2,0,0.3,0,0.5-0.1l0.1,1c-0.3,0.1-0.6,0.1-0.9,0.1
							c-0.5,0-0.8-0.1-1-0.2c-0.3-0.2-0.3-0.4-0.3-0.9v-2h-0.3c-0.2,0-0.4,0-0.6,0v-1.1c0.2,0,0.4,0,0.6,0h0.2V314z"/>
						<path class="st9" d="M131.1,318.2c0-0.2-0.1-0.4-0.2-0.8l-0.4-1.3c0-0.1-0.1-0.2-0.1-0.3c0,0.2,0,0.2-0.1,0.3l-0.4,1.3
							c-0.1,0.3-0.2,0.6-0.2,0.8h-1.1c0-0.2-0.1-0.4-0.2-0.8l-0.8-2.4c-0.1-0.2-0.2-0.5-0.3-0.9h1.4c0,0.2,0.1,0.5,0.1,0.8l0.3,1.2
							c0,0.2,0.1,0.3,0.1,0.3c0.1-0.3,0.1-0.3,0.1-0.3l0.4-1.2c0.2-0.6,0.2-0.6,0.2-0.8h1c0,0.1,0.1,0.5,0.2,0.8l0.4,1.3
							c0,0,0.1,0.2,0.1,0.3c0-0.1,0-0.1,0.1-0.3l0.3-1.2c0.1-0.3,0.1-0.6,0.1-0.8h1.4c-0.1,0.3-0.2,0.6-0.3,0.9l-0.8,2.4
							c-0.1,0.4-0.2,0.6-0.2,0.8H131.1z"/>
						<path class="st9" d="M133.7,316.1c0-1.3,0.9-2.2,2.2-2.2c1.4,0,2.2,0.8,2.2,2.2c0,1.3-0.9,2.2-2.2,2.2
							C134.6,318.3,133.7,317.5,133.7,316.1z M135,316.1c0,0.7,0.3,1.2,0.9,1.2c0.6,0,0.9-0.4,0.9-1.2c0-0.7-0.3-1.2-0.9-1.2
							C135.3,315,135,315.4,135,316.1z"/>
					</g>
				</g>
			</g>
		</g>
		
			<radialGradient id="SVGID_00000021108326455052087690000009526048895291764150_" cx="30.9061" cy="181.2343" r="98.8328" gradientTransform="matrix(0.9996 0 0 0.9924 9.774445e-02 2.8163)" gradientUnits="userSpaceOnUse">
			<stop  offset="0" style="stop-color:#BAA938;stop-opacity:0.92"/>
			<stop  offset="1" style="stop-color:#F7E04A"/>
		</radialGradient>
		<polygon style="fill:url(#SVGID_00000021108326455052087690000009526048895291764150_);" points="45.8,44.8 45.8,320.6 
			16.2,314.3 16.2,48.2 		"/>
		<g>
			<g>
				<path class="st9" d="M32.7,294.3v3.5l0.3,0.1c0.6,0.3,1,0.6,1.3,0.9c0.5,0.5,0.8,1.2,0.8,2c0,0.7-0.3,1.2-0.8,1.6
					c-0.6,0.4-1.5,0.4-2.8,0.1c-1.3-0.3-2.3-0.7-3-1.4c-0.7-0.6-1-1.3-1-2.1c0-0.8,0.2-1.3,0.6-1.5c0.2-0.2,0.6-0.3,1.1-0.3l0.4,0
					l0-3.4l-0.4-0.1c-0.9-0.1-1.7,0-2.6,0.4l0,0c-1.5,0.8-2.3,2.3-2.3,4.5c0,1.7,0.6,3.2,1.6,4.5c1.2,1.5,3,2.5,5.3,2.9
					c2.1,0.4,3.8,0.3,5.1-0.6c1.3-0.9,1.9-2.3,1.9-4.2c0-1.5-0.5-2.9-1.4-4.1c-0.9-1.2-2.1-2-3.5-2.6L32.7,294.3z"/>
				<polygon class="st9" points="29.5,284.1 29.5,289.5 27.6,289.1 27.6,282.9 24.5,282.3 24.5,292 37.8,294.8 37.8,291.3 
					32.6,290.2 32.6,284.7 				"/>
				<path class="st9" d="M32.4,274.9v1.4l-7.7-1.6l0,3.5l7.7,6.2l2.8,0.6v-4.8l2.6,0.6l0-3.3l-2.6-0.6v-1.4L32.4,274.9z M32.4,281.3
					l-3-2.4l3,0.6V281.3z"/>
				<path class="st9" d="M33.4,268.8c-0.6-1-1.1-1.7-1.6-2.2c-0.8-0.7-1.7-1.2-2.6-1.4c-1.3-0.3-2.4-0.1-3.2,0.6
					c-0.8,0.7-1.2,1.8-1.2,3.2c0,1.8,0.7,3.2,2,4.1c0.7,0.5,1.6,0.9,2.7,1.2l0.6,0.1v-3.3l-0.3-0.1c-0.6-0.2-1.1-0.3-1.4-0.5
					c-0.4-0.3-0.6-0.7-0.6-1.3c0-0.5,0.2-0.7,0.3-0.7c0.2-0.1,0.6-0.2,1-0.1c0.5,0.1,1,0.4,1.5,1c0.3,0.4,0.9,1.2,1.7,2.4
					c1,1.5,1.8,2.5,2.7,3.1c0.8,0.5,1.6,0.9,2.6,1.1l0.6,0.1l0-9.3l-3-0.6l0,4.7c-0.2-0.3-0.4-0.7-0.8-1.2L33.4,268.8z"/>
			</g>
			<g>
				<path class="st9" d="M32.7,242v3.5l0.3,0.1c0.6,0.3,1,0.6,1.3,0.9c0.5,0.5,0.8,1.2,0.8,2c0,0.7-0.3,1.2-0.8,1.6
					c-0.6,0.4-1.5,0.4-2.8,0.1c-1.3-0.3-2.3-0.7-3-1.4c-0.7-0.6-1-1.3-1-2.1c0-0.8,0.2-1.3,0.6-1.5c0.2-0.2,0.6-0.3,1.1-0.3l0.4,0
					l0-3.4l-0.4-0.1c-0.9-0.1-1.7,0-2.6,0.4l0,0c-1.5,0.8-2.3,2.3-2.3,4.5c0,1.7,0.6,3.2,1.6,4.5c1.2,1.5,3,2.5,5.3,2.9
					c2.1,0.4,3.8,0.3,5.1-0.6c1.3-0.9,1.9-2.3,1.9-4.2c0-1.5-0.5-2.9-1.4-4.1c-0.9-1.2-2.1-2-3.5-2.6L32.7,242z"/>
				<polygon class="st9" points="29.5,231.8 29.5,237.3 27.6,236.9 27.6,230.7 24.5,230 24.5,239.7 37.8,242.5 37.8,239 32.6,237.9 
					32.6,232.5 				"/>
				<path class="st9" d="M32.4,222.6v1.4l-7.7-1.6l0,3.5l7.7,6.2l2.8,0.6v-4.8l2.6,0.6l0-3.3l-2.6-0.6v-1.4L32.4,222.6z M32.4,229
					l-3-2.4l3,0.6V229z"/>
				<path class="st9" d="M33.4,216.5c-0.6-1-1.1-1.7-1.6-2.2c-0.8-0.7-1.7-1.2-2.6-1.4c-1.3-0.3-2.4-0.1-3.2,0.6
					c-0.8,0.7-1.2,1.8-1.2,3.2c0,1.8,0.7,3.2,2,4.1c0.7,0.5,1.6,0.9,2.7,1.2l0.6,0.1v-3.3l-0.3-0.1c-0.6-0.2-1.1-0.3-1.4-0.5
					c-0.4-0.3-0.6-0.7-0.6-1.3c0-0.5,0.2-0.7,0.3-0.7c0.2-0.1,0.6-0.2,1-0.1c0.5,0.1,1,0.4,1.5,1c0.3,0.4,0.9,1.2,1.7,2.4
					c1,1.5,1.8,2.5,2.7,3.1c0.8,0.5,1.6,0.9,2.6,1.1l0.6,0.1l0-9.3l-3-0.6l0,4.7c-0.2-0.3-0.4-0.7-0.8-1.2L33.4,216.5z"/>
			</g>
			<g>
				<path class="st9" d="M32.7,189.7v3.5l0.3,0.1c0.6,0.3,1,0.6,1.3,0.9c0.5,0.5,0.8,1.2,0.8,2c0,0.7-0.3,1.2-0.8,1.6
					c-0.6,0.4-1.5,0.4-2.8,0.1c-1.3-0.3-2.3-0.7-3-1.4c-0.7-0.6-1-1.3-1-2.1c0-0.8,0.2-1.3,0.6-1.5c0.2-0.2,0.6-0.3,1.1-0.3l0.4,0
					l0-3.4l-0.4-0.1c-0.9-0.1-1.7,0-2.6,0.4l0,0c-1.5,0.8-2.3,2.3-2.3,4.5c0,1.7,0.6,3.2,1.6,4.5c1.2,1.5,3,2.5,5.3,2.9
					c2.1,0.4,3.8,0.3,5.1-0.6c1.3-0.9,1.9-2.3,1.9-4.2c0-1.5-0.5-2.9-1.4-4.1c-0.9-1.2-2.1-2-3.5-2.6L32.7,189.7z"/>
				<polygon class="st9" points="29.5,179.6 29.5,185 27.6,184.6 27.6,178.4 24.5,177.7 24.5,187.4 37.8,190.2 37.8,186.8 
					32.6,185.7 32.6,180.2 				"/>
				<path class="st9" d="M32.4,170.4v1.4l-7.7-1.6l0,3.5l7.7,6.2l2.8,0.6v-4.8l2.6,0.6l0-3.3l-2.6-0.6V171L32.4,170.4z M32.4,176.8
					l-3-2.4l3,0.6V176.8z"/>
				<path class="st9" d="M33.4,164.2c-0.6-1-1.1-1.7-1.6-2.2c-0.8-0.7-1.7-1.2-2.6-1.4c-1.3-0.3-2.4-0.1-3.2,0.6
					c-0.8,0.7-1.2,1.8-1.2,3.2c0,1.8,0.7,3.2,2,4.1c0.7,0.5,1.6,0.9,2.7,1.2l0.6,0.1v-3.3l-0.3-0.1c-0.6-0.2-1.1-0.3-1.4-0.5
					c-0.4-0.3-0.6-0.7-0.6-1.3c0-0.5,0.2-0.7,0.3-0.7c0.2-0.1,0.6-0.2,1-0.1c0.5,0.1,1,0.4,1.5,1c0.3,0.4,0.9,1.2,1.7,2.4
					c1,1.5,1.8,2.5,2.7,3.1c0.8,0.5,1.6,0.9,2.6,1.1l0.6,0.1l0-9.3l-3-0.6l0,4.7c-0.2-0.3-0.4-0.7-0.8-1.2L33.4,164.2z"/>
			</g>
			<g>
				<path class="st9" d="M32.7,137.5v3.5l0.3,0.1c0.6,0.3,1,0.6,1.3,0.9c0.5,0.5,0.8,1.2,0.8,2c0,0.7-0.3,1.2-0.8,1.6
					c-0.6,0.4-1.5,0.4-2.8,0.1c-1.3-0.3-2.3-0.7-3-1.4c-0.7-0.6-1-1.3-1-2.1c0-0.8,0.2-1.3,0.6-1.5c0.2-0.2,0.6-0.3,1.1-0.3l0.4,0
					l0-3.4l-0.4-0.1c-0.9-0.1-1.7,0-2.6,0.4l0,0c-1.5,0.8-2.3,2.3-2.3,4.5c0,1.7,0.6,3.2,1.6,4.5c1.2,1.5,3,2.5,5.3,2.9
					c2.1,0.4,3.8,0.3,5.1-0.6c1.3-0.9,1.9-2.3,1.9-4.2c0-1.5-0.5-2.9-1.4-4.1c-0.9-1.2-2.1-2-3.5-2.6L32.7,137.5z"/>
				<polygon class="st9" points="29.5,127.3 29.5,132.8 27.6,132.3 27.6,126.1 24.5,125.5 24.5,135.2 37.8,138 37.8,134.5 
					32.6,133.4 32.6,128 				"/>
				<path class="st9" d="M32.4,118.1v1.4l-7.7-1.6l0,3.5l7.7,6.2l2.8,0.6v-4.8l2.6,0.6l0-3.3l-2.6-0.6v-1.4L32.4,118.1z M32.4,124.5
					l-3-2.4l3,0.6V124.5z"/>
				<path class="st9" d="M33.4,112c-0.6-1-1.1-1.7-1.6-2.2c-0.8-0.7-1.7-1.2-2.6-1.4c-1.3-0.3-2.4-0.1-3.2,0.6
					c-0.8,0.7-1.2,1.8-1.2,3.2c0,1.8,0.7,3.2,2,4.1c0.7,0.5,1.6,0.9,2.7,1.2l0.6,0.1v-3.3l-0.3-0.1c-0.6-0.2-1.1-0.3-1.4-0.5
					c-0.4-0.3-0.6-0.7-0.6-1.3c0-0.5,0.2-0.7,0.3-0.7c0.2-0.1,0.6-0.2,1-0.1c0.5,0.1,1,0.4,1.5,1c0.3,0.4,0.9,1.2,1.7,2.4
					c1,1.5,1.8,2.5,2.7,3.1c0.8,0.5,1.6,0.9,2.6,1.1l0.6,0.1l0-9.3l-3-0.6l0,4.7c-0.2-0.3-0.4-0.7-0.8-1.2L33.4,112z"/>
			</g>
			<g>
				<path class="st9" d="M32.7,85.2v3.5l0.3,0.1c0.6,0.3,1,0.6,1.3,0.9c0.5,0.5,0.8,1.2,0.8,2c0,0.7-0.3,1.2-0.8,1.6
					c-0.6,0.4-1.5,0.4-2.8,0.1c-1.3-0.3-2.3-0.7-3-1.4c-0.7-0.6-1-1.3-1-2.1c0-0.8,0.2-1.3,0.6-1.5c0.2-0.2,0.6-0.3,1.1-0.3l0.4,0
					l0-3.4l-0.4-0.1c-0.9-0.1-1.7,0-2.6,0.4l0,0c-1.5,0.8-2.3,2.3-2.3,4.5c0,1.7,0.6,3.2,1.6,4.5c1.2,1.5,3,2.5,5.3,2.9
					c2.1,0.4,3.8,0.3,5.1-0.6c1.3-0.9,1.9-2.3,1.9-4.2c0-1.5-0.5-2.9-1.4-4.1c-0.9-1.2-2.1-2-3.5-2.6L32.7,85.2z"/>
				<polygon class="st9" points="29.5,75.1 29.5,80.5 27.6,80.1 27.6,73.9 24.5,73.2 24.5,82.9 37.8,85.7 37.8,82.2 32.6,81.1 
					32.6,75.7 				"/>
				<path class="st9" d="M32.4,65.9v1.4l-7.7-1.6l0,3.5l7.7,6.2l2.8,0.6v-4.8l2.6,0.6l0-3.3l-2.6-0.6v-1.4L32.4,65.9z M32.4,72.3
					l-3-2.4l3,0.6V72.3z"/>
				<path class="st9" d="M33.4,59.7c-0.6-1-1.1-1.7-1.6-2.2c-0.8-0.7-1.7-1.2-2.6-1.4c-1.3-0.3-2.4-0.1-3.2,0.6
					c-0.8,0.7-1.2,1.8-1.2,3.2c0,1.8,0.7,3.2,2,4.1c0.7,0.5,1.6,0.9,2.7,1.2l0.6,0.1v-3.3l-0.3-0.1c-0.6-0.2-1.1-0.3-1.4-0.5
					c-0.4-0.3-0.6-0.7-0.6-1.3c0-0.5,0.2-0.7,0.3-0.7c0.2-0.1,0.6-0.2,1-0.1c0.5,0.1,1,0.4,1.5,1c0.3,0.4,0.9,1.2,1.7,2.4
					c1,1.5,1.8,2.5,2.7,3.1c0.8,0.5,1.6,0.9,2.6,1.1l0.6,0.1l0-9.3l-3-0.6l0,4.7c-0.2-0.3-0.4-0.7-0.8-1.2L33.4,59.7z"/>
			</g>
		</g>
		<g>
			<path class="st16" d="M92.2,84.6H82.1l-0.4,0.7c-0.8,1.7-1.7,2.9-2.5,3.8c-1.5,1.5-3.3,2.2-5.6,2.2c-2.1,0-3.6-0.8-4.6-2.4
				c-1-1.7-1.2-4.4-0.4-8c0.8-3.7,2.1-6.6,4-8.6c1.8-1.9,3.8-2.8,6.2-2.8c2.2,0,3.7,0.6,4.4,1.7c0.4,0.7,0.7,1.8,0.8,3.2l0.1,1.2
				l9.8,0l0.2-1.1c0.4-2.5,0-5-1.2-7.4l0,0c-2.2-4.4-6.6-6.6-13.1-6.6c-4.8,0-9.1,1.6-12.9,4.7c-4.3,3.5-7.1,8.6-8.5,15
				c-1.3,6.1-0.7,10.9,1.7,14.5c2.5,3.6,6.6,5.5,12.2,5.5c4.4,0,8.4-1.3,11.8-3.9c3.4-2.6,5.8-5.9,7.4-10L92.2,84.6z"/>
			<polygon class="st16" points="121.5,75.6 105.8,75.6 107,70.1 124.9,70.1 126.8,61.2 98.8,61.2 90.7,99.2 100.8,99.2 103.9,84.4 
				119.6,84.4 			"/>
		</g>
		<text transform="matrix(1.0072 0 0 1 195.0293 59.4556)" class="st17 st18 st19">S/S 24</text>
		
			<linearGradient id="SVGID_00000005230139068500763360000002622928126944950929_" gradientUnits="userSpaceOnUse" x1="122.0928" y1="32.4288" x2="122.0928" y2="22.3791">
			<stop  offset="0" style="stop-color:#BAA73E"/>
			<stop  offset="7.099360e-02" style="stop-color:#C5AF36"/>
			<stop  offset="0.2443" style="stop-color:#DABF28"/>
			<stop  offset="0.437" style="stop-color:#E9CA1E"/>
			<stop  offset="0.6625" style="stop-color:#F2D118"/>
			<stop  offset="1" style="stop-color:#F5D316"/>
		</linearGradient>
		<polygon style="fill:url(#SVGID_00000005230139068500763360000002622928126944950929_);" points="122.1,22.4 81.5,22.4 91.6,32.4 
			122.1,32.4 152.6,32.4 162.7,22.4 		"/>
		<text transform="matrix(1.0072 0 0 1 96.3564 28.9883)" class="st21 st18 st22">100% UNOFFICIAL</text>
		<g>
			<g>
				<ellipse class="st23" cx="33" cy="51.3" rx="22.6" ry="22.5"/>
				<path class="st24" d="M33,28.8c12.5,0,22.6,10.1,22.6,22.5S45.5,73.7,33,73.7c-12.5,0-22.6-10.1-22.6-22.5S20.5,28.8,33,28.8
					 M33,25.4C18.6,25.4,7,37,7,51.3s11.7,25.8,26,25.8c14.3,0,26-11.6,26-25.8S47.3,25.4,33,25.4L33,25.4z"/>
			</g>
			<g>
				<g>
					<path class="st25" d="M37.5,62.4c-0.8-0.8-1.7-1.5-2.6-2.4c-0.2,0.9,0,1.6-0.1,2.4c-0.3,0-0.6,0-0.9,0c0-1.9,0-3.9,0-5.9
						c1.2,0,2.5,0,3.7,0c0.6,0,0.8,0.4,0.9,1c0,0.5,0,1,0,1.6c0,0.7-0.2,1-1,1c-0.2,0-0.5,0-0.9,0c0.8,0.9,1.7,1.5,2.5,2.3
						C38.5,62.4,38,62.4,37.5,62.4z M34.8,57.3c0,0.7,0,1.3,0,1.9c0.8,0,1.6,0,2.5,0c0-0.7,0-1.2,0-1.9
						C36.5,57.3,35.7,57.3,34.8,57.3z"/>
					<path class="st25" d="M27.8,56.6c0.4-0.1,0.7-0.2,1-0.2c0.9,0,1.8,0,2.8,0c0.8,0,1.1,0.3,1.2,1.1c0,1.2,0.1,2.3,0.1,3.5
						c0,1-0.3,1.3-1.3,1.4c-0.9,0-1.8,0-2.7,0c-0.9,0-1.2-0.4-1.2-1.3c0-1.1,0-2.3,0-3.4C27.6,57.3,27.7,57,27.8,56.6z M31.8,61.5
						c0-1.5,0-2.8,0-4.2c-1.1,0-2.1,0-3.2,0c0,1.4,0,2.8,0,4.2C29.7,61.5,30.7,61.5,31.8,61.5z"/>
					<path class="st25" d="M44.6,60.6c0.3,0,0.5,0,0.8,0c0,0.3,0.1,0.6,0.1,0.9c0.9,0,1.9,0,2.9,0c0-0.6,0-1.1,0-1.7
						c-0.7,0-1.3,0-1.9,0c-1.5,0-1.7-0.2-1.7-1.7c0-0.1,0-0.1,0-0.2c0-1.2,0.3-1.4,1.5-1.4c0.5,0,1,0,1.5,0c1.2,0,1.5,0.3,1.5,1.6
						c-0.2,0-0.4,0-0.7,0.1c0-0.3-0.1-0.5-0.1-0.8c-0.9,0-1.7,0-2.7,0c0,0.5,0,1,0,1.6c0.4,0,0.7,0,1,0c0.5,0,1,0,1.5,0
						c0.8,0,1.1,0.4,1.1,1.1c0,0.5,0,0.9,0,1.4c0,0.5-0.3,0.8-0.7,0.9c-1.1,0.1-2.1,0.1-3.2,0C44.7,62.3,44.5,61.7,44.6,60.6z"/>
					<path class="st25" d="M16.7,60.6c0.3,0,0.5,0,0.8,0c0,0.3,0.1,0.6,0.1,0.9c0.9,0,1.7,0,2.7,0c0-0.6,0-1.1,0-1.6
						c-1.1-0.3-2.3,0.2-3.4-0.3c-0.4-0.8-0.3-1.7-0.2-2.5c0.1-0.2,0.5-0.5,0.8-0.5c0.9-0.1,1.8-0.1,2.7,0c0.7,0,1,0.6,0.9,1.6
						c-0.2,0-0.5,0-0.7,0c-0.1-0.3-0.1-0.5-0.2-0.8c-0.9,0-1.7,0-2.7,0c0,0.5,0,1,0,1.6c0.5,0,0.9,0,1.4,0c0.4,0,0.8,0,1.3,0
						c0.7,0,1,0.3,1,1c0,0.6,0,1.3,0,1.8c-0.3,0.6-0.8,0.7-1.3,0.7c-0.6,0-1.2,0-1.9,0C16.8,62.4,16.4,61.9,16.7,60.6z"/>
					<path class="st25" d="M22.2,56.4c1.2,0,2.4,0,3.6,0c0.7,0,0.9,0.4,1,1.1c0,0.5,0,1,0,1.6c0,0.6-0.3,0.9-1,1c-0.8,0-1.7,0-2.6,0
						c0,0.8,0,1.5,0,2.3c-0.4,0-0.6,0-1,0C22.2,60.4,22.2,58.5,22.2,56.4z M25.7,57.3c-0.9,0-1.7,0-2.5,0c0,0.7,0,1.3,0,2.1
						c0.9-0.2,1.7,0.2,2.5-0.3C25.7,58.5,25.7,57.9,25.7,57.3z"/>
					<path class="st25" d="M39,56.5c1.8,0,3.4,0,5.1,0c0,0.2,0,0.5,0.1,0.8c-0.7,0-1.3,0-2.1,0c-0.1,1.8,0.1,3.4,0,5.1
						c-0.3,0-0.6,0-1,0c0-1.7,0-3.4,0-5.1c-0.7,0-1.3,0-2,0C39,57,39,56.8,39,56.5z"/>
				</g>
				<g>
					<path class="st26" d="M26.2,46.2c-0.6,0.9-1.2,1.8-1.8,2.7c0,0.1,0.1,0.1,0.1,0.2c1.1,0,3.4,0,3.4,0l-3.9,6c0,0,2.6,0,3.9,0
						l3.7-6c0,0,2.2,0,3.2,0c0.7-1,1.3-1.9,1.9-2.9C33.1,46.2,29.6,46.2,26.2,46.2z"/>
					<path class="st26" d="M30.1,40.1c4.5,0,9,0,13.6,0c-0.6,1-1.2,1.9-1.8,2.9c-4.5,0-9,0-13.6,0C28.9,42,29.5,41.1,30.1,40.1z"/>
				</g>
			</g>
		</g>
	</g>
	
		<linearGradient id="SVGID_00000053504409239764085570000013787948937805379747_" gradientUnits="userSpaceOnUse" x1="122.1454" y1="373" x2="122.1454" y2="0.2173">
		<stop  offset="0" style="stop-color:#FFFFFF;stop-opacity:1.000000e-02"/>
		<stop  offset="1" style="stop-color:#FFFFFF;stop-opacity:0.1"/>
	</linearGradient>
	<path style="fill:url(#SVGID_00000053504409239764085570000013787948937805379747_);" d="M242.7,1.7v369.8H1.6V1.7H242.7
		 M244.2,0.2H0.1V373h244.1V0.2L244.2,0.2z"/>
	
		<radialGradient id="SVGID_00000155146753320449452210000002855402248120042396_" cx="121.8975" cy="22.3791" r="86.476" gradientUnits="userSpaceOnUse">
		<stop  offset="0" style="stop-color:#63591E"/>
		<stop  offset="0.2212" style="stop-color:#8D7E2A"/>
		<stop  offset="0.4371" style="stop-color:#AD9B34"/>
		<stop  offset="0.6432" style="stop-color:#C5B03B"/>
		<stop  offset="0.8354" style="stop-color:#D3BD40"/>
		<stop  offset="1" style="stop-color:#D8C141"/>
	</radialGradient>
	
		<line style="fill:url(#SVGID_00000155146753320449452210000002855402248120042396_);stroke:#FFFFFF;stroke-width:0.25;stroke-miterlimit:10;" x1="-0.4" y1="22.4" x2="244.2" y2="22.4"/>
	
		<radialGradient id="SVGID_00000048464276992594602880000006850825419466983565_" cx="121.8975" cy="350.7116" r="86.476" gradientUnits="userSpaceOnUse">
		<stop  offset="0" style="stop-color:#63591E"/>
		<stop  offset="0.2212" style="stop-color:#8D7E2A"/>
		<stop  offset="0.4371" style="stop-color:#AD9B34"/>
		<stop  offset="0.6432" style="stop-color:#C5B03B"/>
		<stop  offset="0.8354" style="stop-color:#D3BD40"/>
		<stop  offset="1" style="stop-color:#D8C141"/>
	</radialGradient>
	
		<line style="fill:url(#SVGID_00000048464276992594602880000006850825419466983565_);stroke:#FFFFFF;stroke-width:0.25;stroke-miterlimit:10;" x1="-0.4" y1="350.7" x2="244.2" y2="350.7"/>
</g>
<g class="st30">
	<path class="st31" d="M20,23.6V18h212.7v5.3L217.6,40l-91.1-12.1L36,40.1L20,23.6z"/>
</g>
<g class="st32">
	<path class="st33" d="M202.5,115.6l2.1,1.2v2.5l-2.1,1.2l-2.1-1.2v-2.5L202.5,115.6z"/>
	<path class="st33" d="M170.8,149.6l2.1,1.2v2.5l-2.1,1.2l-2.1-1.2v-2.5L170.8,149.6z"/>
	<path class="st33" d="M202.5,149.6l2.1,1.2v2.5l-2.1,1.2l-2.1-1.2v-2.5L202.5,149.6z"/>
	<path class="st33" d="M139.1,183.6l2.1,1.2v2.5l-2.1,1.2l-2.1-1.2v-2.5L139.1,183.6z"/>
	<path class="st33" d="M170.8,183.6l2.1,1.2v2.5l-2.1,1.2l-2.1-1.2v-2.5L170.8,183.6z"/>
	<path class="st33" d="M202.5,183.6l2.1,1.2v2.5l-2.1,1.2l-2.1-1.2v-2.5L202.5,183.6z"/>
</g>
<g>
	<path class="st34" d="M148,83.8h-4l4.7-21.8l-10,0l-18,21.9l-1.7,7.9l13.9,0l-1.6,7.5l9.4,0l1.6-7.5h4L148,83.8z M129.6,83.8
		l6.9-8.6l-1.9,8.6L129.6,83.8z"/>
	<path class="st34" d="M165.8,86.5c2.8-1.7,4.8-3.2,6.2-4.6c2.1-2.2,3.5-4.7,4.1-7.5c0.8-3.8,0.2-6.9-1.8-9.2
		c-2-2.3-5.1-3.5-9.2-3.5c-5.1,0-9.1,1.9-12,5.7c-1.5,2-2.6,4.5-3.4,7.6l-0.4,1.6h9.4l0.2-1c0.4-1.8,0.9-3.1,1.5-3.9
		c0.9-1.2,2-1.8,3.7-1.8c1.4,0,1.9,0.5,2.1,0.9c0.4,0.7,0.5,1.6,0.3,2.7c-0.3,1.5-1.3,3-2.8,4.3c-1.1,0.9-3.5,2.5-7.1,4.7
		c-4.4,2.7-7.3,5.3-9,7.8c-1.5,2.2-2.6,4.6-3.3,7.3l-0.4,1.6l26.8,0l1.8-8.6l-13.5,0c0.8-0.5,1.9-1.2,3.4-2.2L165.8,86.5z"/>
	<g>
		<path class="st34" d="M148,83.8h-4l4.7-21.8l-10,0l-18,21.9l-1.7,7.9l13.9,0l-1.6,7.5l9.4,0l1.6-7.5h4L148,83.8z M129.6,83.8
			l6.9-8.6l-1.9,8.6L129.6,83.8z"/>
		<path class="st34" d="M165.8,86.5c2.8-1.7,4.8-3.2,6.2-4.6c2.1-2.2,3.5-4.7,4.1-7.5c0.8-3.8,0.2-6.9-1.8-9.2
			c-2-2.3-5.1-3.5-9.2-3.5c-5.1,0-9.1,1.9-12,5.7c-1.5,2-2.6,4.5-3.4,7.6l-0.4,1.6h9.4l0.2-1c0.4-1.8,0.9-3.1,1.5-3.9
			c0.9-1.2,2-1.8,3.7-1.8c1.4,0,1.9,0.5,2.1,0.9c0.4,0.7,0.5,1.6,0.3,2.7c-0.3,1.5-1.3,3-2.8,4.3c-1.1,0.9-3.5,2.5-7.1,4.7
			c-4.4,2.7-7.3,5.3-9,7.8c-1.5,2.2-2.6,4.6-3.3,7.3l-0.4,1.6l26.8,0l1.8-8.6l-13.5,0c0.8-0.5,1.9-1.2,3.4-2.2L165.8,86.5z"/>
	</g>
	<g>
		<path class="st34" d="M148,83.8h-4l4.7-21.8l-10,0l-18,21.9l-1.7,7.9l13.9,0l-1.6,7.5l9.4,0l1.6-7.5h4L148,83.8z M129.6,83.8
			l6.9-8.6l-1.9,8.6L129.6,83.8z"/>
		<path class="st34" d="M165.8,86.5c2.8-1.7,4.8-3.2,6.2-4.6c2.1-2.2,3.5-4.7,4.1-7.5c0.8-3.8,0.2-6.9-1.8-9.2
			c-2-2.3-5.1-3.5-9.2-3.5c-5.1,0-9.1,1.9-12,5.7c-1.5,2-2.6,4.5-3.4,7.6l-0.4,1.6h9.4l0.2-1c0.4-1.8,0.9-3.1,1.5-3.9
			c0.9-1.2,2-1.8,3.7-1.8c1.4,0,1.9,0.5,2.1,0.9c0.4,0.7,0.5,1.6,0.3,2.7c-0.3,1.5-1.3,3-2.8,4.3c-1.1,0.9-3.5,2.5-7.1,4.7
			c-4.4,2.7-7.3,5.3-9,7.8c-1.5,2.2-2.6,4.6-3.3,7.3l-0.4,1.6l26.8,0l1.8-8.6l-13.5,0c0.8-0.5,1.9-1.2,3.4-2.2L165.8,86.5z"/>
	</g>
	<g>
		<path class="st34" d="M148,83.8h-4l4.7-21.8l-10,0l-18,21.9l-1.7,7.9l13.9,0l-1.6,7.5l9.4,0l1.6-7.5h4L148,83.8z M129.6,83.8
			l6.9-8.6l-1.9,8.6L129.6,83.8z"/>
		<path class="st34" d="M165.8,86.5c2.8-1.7,4.8-3.2,6.2-4.6c2.1-2.2,3.5-4.7,4.1-7.5c0.8-3.8,0.2-6.9-1.8-9.2
			c-2-2.3-5.1-3.5-9.2-3.5c-5.1,0-9.1,1.9-12,5.7c-1.5,2-2.6,4.5-3.4,7.6l-0.4,1.6h9.4l0.2-1c0.4-1.8,0.9-3.1,1.5-3.9
			c0.9-1.2,2-1.8,3.7-1.8c1.4,0,1.9,0.5,2.1,0.9c0.4,0.7,0.5,1.6,0.3,2.7c-0.3,1.5-1.3,3-2.8,4.3c-1.1,0.9-3.5,2.5-7.1,4.7
			c-4.4,2.7-7.3,5.3-9,7.8c-1.5,2.2-2.6,4.6-3.3,7.3l-0.4,1.6l26.8,0l1.8-8.6l-13.5,0c0.8-0.5,1.9-1.2,3.4-2.2L165.8,86.5z"/>
	</g>
	<g>
		<path class="st34" d="M148,83.8h-4l4.7-21.8l-10,0l-18,21.9l-1.7,7.9l13.9,0l-1.6,7.5l9.4,0l1.6-7.5h4L148,83.8z M129.6,83.8
			l6.9-8.6l-1.9,8.6L129.6,83.8z"/>
		<path class="st34" d="M165.8,86.5c2.8-1.7,4.8-3.2,6.2-4.6c2.1-2.2,3.5-4.7,4.1-7.5c0.8-3.8,0.2-6.9-1.8-9.2
			c-2-2.3-5.1-3.5-9.2-3.5c-5.1,0-9.1,1.9-12,5.7c-1.5,2-2.6,4.5-3.4,7.6l-0.4,1.6h9.4l0.2-1c0.4-1.8,0.9-3.1,1.5-3.9
			c0.9-1.2,2-1.8,3.7-1.8c1.4,0,1.9,0.5,2.1,0.9c0.4,0.7,0.5,1.6,0.3,2.7c-0.3,1.5-1.3,3-2.8,4.3c-1.1,0.9-3.5,2.5-7.1,4.7
			c-4.4,2.7-7.3,5.3-9,7.8c-1.5,2.2-2.6,4.6-3.3,7.3l-0.4,1.6l26.8,0l1.8-8.6l-13.5,0c0.8-0.5,1.9-1.2,3.4-2.2L165.8,86.5z"/>
	</g>
	<g>
		<path class="st34" d="M148,83.8h-4l4.7-21.8l-10,0l-18,21.9l-1.7,7.9l13.9,0l-1.6,7.5l9.4,0l1.6-7.5h4L148,83.8z M129.6,83.8
			l6.9-8.6l-1.9,8.6L129.6,83.8z"/>
		<path class="st34" d="M165.8,86.5c2.8-1.7,4.8-3.2,6.2-4.6c2.1-2.2,3.5-4.7,4.1-7.5c0.8-3.8,0.2-6.9-1.8-9.2
			c-2-2.3-5.1-3.5-9.2-3.5c-5.1,0-9.1,1.9-12,5.7c-1.5,2-2.6,4.5-3.4,7.6l-0.4,1.6h9.4l0.2-1c0.4-1.8,0.9-3.1,1.5-3.9
			c0.9-1.2,2-1.8,3.7-1.8c1.4,0,1.9,0.5,2.1,0.9c0.4,0.7,0.5,1.6,0.3,2.7c-0.3,1.5-1.3,3-2.8,4.3c-1.1,0.9-3.5,2.5-7.1,4.7
			c-4.4,2.7-7.3,5.3-9,7.8c-1.5,2.2-2.6,4.6-3.3,7.3l-0.4,1.6l26.8,0l1.8-8.6l-13.5,0c0.8-0.5,1.9-1.2,3.4-2.2L165.8,86.5z"/>
	</g>
	<g>
		<path class="st34" d="M148,83.8h-4l4.7-21.8l-10,0l-18,21.9l-1.7,7.9l13.9,0l-1.6,7.5l9.4,0l1.6-7.5h4L148,83.8z M129.6,83.8
			l6.9-8.6l-1.9,8.6L129.6,83.8z"/>
		<path class="st34" d="M165.8,86.5c2.8-1.7,4.8-3.2,6.2-4.6c2.1-2.2,3.5-4.7,4.1-7.5c0.8-3.8,0.2-6.9-1.8-9.2
			c-2-2.3-5.1-3.5-9.2-3.5c-5.1,0-9.1,1.9-12,5.7c-1.5,2-2.6,4.5-3.4,7.6l-0.4,1.6h9.4l0.2-1c0.4-1.8,0.9-3.1,1.5-3.9
			c0.9-1.2,2-1.8,3.7-1.8c1.4,0,1.9,0.5,2.1,0.9c0.4,0.7,0.5,1.6,0.3,2.7c-0.3,1.5-1.3,3-2.8,4.3c-1.1,0.9-3.5,2.5-7.1,4.7
			c-4.4,2.7-7.3,5.3-9,7.8c-1.5,2.2-2.6,4.6-3.3,7.3l-0.4,1.6l26.8,0l1.8-8.6l-13.5,0c0.8-0.5,1.9-1.2,3.4-2.2L165.8,86.5z"/>
	</g>
	<g>
		<path class="st34" d="M148,83.8h-4l4.7-21.8l-10,0l-18,21.9l-1.7,7.9l13.9,0l-1.6,7.5l9.4,0l1.6-7.5h4L148,83.8z M129.6,83.8
			l6.9-8.6l-1.9,8.6L129.6,83.8z"/>
		<path class="st34" d="M165.8,86.5c2.8-1.7,4.8-3.2,6.2-4.6c2.1-2.2,3.5-4.7,4.1-7.5c0.8-3.8,0.2-6.9-1.8-9.2
			c-2-2.3-5.1-3.5-9.2-3.5c-5.1,0-9.1,1.9-12,5.7c-1.5,2-2.6,4.5-3.4,7.6l-0.4,1.6h9.4l0.2-1c0.4-1.8,0.9-3.1,1.5-3.9
			c0.9-1.2,2-1.8,3.7-1.8c1.4,0,1.9,0.5,2.1,0.9c0.4,0.7,0.5,1.6,0.3,2.7c-0.3,1.5-1.3,3-2.8,4.3c-1.1,0.9-3.5,2.5-7.1,4.7
			c-4.4,2.7-7.3,5.3-9,7.8c-1.5,2.2-2.6,4.6-3.3,7.3l-0.4,1.6l26.8,0l1.8-8.6l-13.5,0c0.8-0.5,1.9-1.2,3.4-2.2L165.8,86.5z"/>
	</g>
	<g>
		<path class="st34" d="M148,83.8h-4l4.7-21.8l-10,0l-18,21.9l-1.7,7.9l13.9,0l-1.6,7.5l9.4,0l1.6-7.5h4L148,83.8z M129.6,83.8
			l6.9-8.6l-1.9,8.6L129.6,83.8z"/>
		<path class="st34" d="M165.8,86.5c2.8-1.7,4.8-3.2,6.2-4.6c2.1-2.2,3.5-4.7,4.1-7.5c0.8-3.8,0.2-6.9-1.8-9.2
			c-2-2.3-5.1-3.5-9.2-3.5c-5.1,0-9.1,1.9-12,5.7c-1.5,2-2.6,4.5-3.4,7.6l-0.4,1.6h9.4l0.2-1c0.4-1.8,0.9-3.1,1.5-3.9
			c0.9-1.2,2-1.8,3.7-1.8c1.4,0,1.9,0.5,2.1,0.9c0.4,0.7,0.5,1.6,0.3,2.7c-0.3,1.5-1.3,3-2.8,4.3c-1.1,0.9-3.5,2.5-7.1,4.7
			c-4.4,2.7-7.3,5.3-9,7.8c-1.5,2.2-2.6,4.6-3.3,7.3l-0.4,1.6l26.8,0l1.8-8.6l-13.5,0c0.8-0.5,1.9-1.2,3.4-2.2L165.8,86.5z"/>
	</g>
	<g>
		<path class="st34" d="M148,83.8h-4l4.7-21.8l-10,0l-18,21.9l-1.7,7.9l13.9,0l-1.6,7.5l9.4,0l1.6-7.5h4L148,83.8z M129.6,83.8
			l6.9-8.6l-1.9,8.6L129.6,83.8z"/>
		<path class="st34" d="M165.8,86.5c2.8-1.7,4.8-3.2,6.2-4.6c2.1-2.2,3.5-4.7,4.1-7.5c0.8-3.8,0.2-6.9-1.8-9.2
			c-2-2.3-5.1-3.5-9.2-3.5c-5.1,0-9.1,1.9-12,5.7c-1.5,2-2.6,4.5-3.4,7.6l-0.4,1.6h9.4l0.2-1c0.4-1.8,0.9-3.1,1.5-3.9
			c0.9-1.2,2-1.8,3.7-1.8c1.4,0,1.9,0.5,2.1,0.9c0.4,0.7,0.5,1.6,0.3,2.7c-0.3,1.5-1.3,3-2.8,4.3c-1.1,0.9-3.5,2.5-7.1,4.7
			c-4.4,2.7-7.3,5.3-9,7.8c-1.5,2.2-2.6,4.6-3.3,7.3l-0.4,1.6l26.8,0l1.8-8.6l-13.5,0c0.8-0.5,1.9-1.2,3.4-2.2L165.8,86.5z"/>
	</g>
	<g>
		<path class="st34" d="M148,83.8h-4l4.7-21.8l-10,0l-18,21.9l-1.7,7.9l13.9,0l-1.6,7.5l9.4,0l1.6-7.5h4L148,83.8z M129.6,83.8
			l6.9-8.6l-1.9,8.6L129.6,83.8z"/>
		<path class="st34" d="M165.8,86.5c2.8-1.7,4.8-3.2,6.2-4.6c2.1-2.2,3.5-4.7,4.1-7.5c0.8-3.8,0.2-6.9-1.8-9.2
			c-2-2.3-5.1-3.5-9.2-3.5c-5.1,0-9.1,1.9-12,5.7c-1.5,2-2.6,4.5-3.4,7.6l-0.4,1.6h9.4l0.2-1c0.4-1.8,0.9-3.1,1.5-3.9
			c0.9-1.2,2-1.8,3.7-1.8c1.4,0,1.9,0.5,2.1,0.9c0.4,0.7,0.5,1.6,0.3,2.7c-0.3,1.5-1.3,3-2.8,4.3c-1.1,0.9-3.5,2.5-7.1,4.7
			c-4.4,2.7-7.3,5.3-9,7.8c-1.5,2.2-2.6,4.6-3.3,7.3l-0.4,1.6l26.8,0l1.8-8.6l-13.5,0c0.8-0.5,1.9-1.2,3.4-2.2L165.8,86.5z"/>
	</g>
	<g>
		<path class="st35" d="M148,83.8h-4l4.7-21.8l-10,0l-18,21.9l-1.7,7.9l13.9,0l-1.6,7.5l9.4,0l1.6-7.5h4L148,83.8z M129.6,83.8
			l6.9-8.6l-1.9,8.6L129.6,83.8z"/>
		<path class="st35" d="M165.8,86.5c2.8-1.7,4.8-3.2,6.2-4.6c2.1-2.2,3.5-4.7,4.1-7.5c0.8-3.8,0.2-6.9-1.8-9.2
			c-2-2.3-5.1-3.5-9.2-3.5c-5.1,0-9.1,1.9-12,5.7c-1.5,2-2.6,4.5-3.4,7.6l-0.4,1.6h9.4l0.2-1c0.4-1.8,0.9-3.1,1.5-3.9
			c0.9-1.2,2-1.8,3.7-1.8c1.4,0,1.9,0.5,2.1,0.9c0.4,0.7,0.5,1.6,0.3,2.7c-0.3,1.5-1.3,3-2.8,4.3c-1.1,0.9-3.5,2.5-7.1,4.7
			c-4.4,2.7-7.3,5.3-9,7.8c-1.5,2.2-2.6,4.6-3.3,7.3l-0.4,1.6l26.8,0l1.8-8.6l-13.5,0c0.8-0.5,1.9-1.2,3.4-2.2L165.8,86.5z"/>
	</g>
	<g>
		<path class="st34" d="M148,83.8h-4l4.7-21.8l-10,0l-18,21.9l-1.7,7.9l13.9,0l-1.6,7.5l9.4,0l1.6-7.5h4L148,83.8z M129.6,83.8
			l6.9-8.6l-1.9,8.6L129.6,83.8z"/>
		<path class="st34" d="M165.8,86.5c2.8-1.7,4.8-3.2,6.2-4.6c2.1-2.2,3.5-4.7,4.1-7.5c0.8-3.8,0.2-6.9-1.8-9.2
			c-2-2.3-5.1-3.5-9.2-3.5c-5.1,0-9.1,1.9-12,5.7c-1.5,2-2.6,4.5-3.4,7.6l-0.4,1.6h9.4l0.2-1c0.4-1.8,0.9-3.1,1.5-3.9
			c0.9-1.2,2-1.8,3.7-1.8c1.4,0,1.9,0.5,2.1,0.9c0.4,0.7,0.5,1.6,0.3,2.7c-0.3,1.5-1.3,3-2.8,4.3c-1.1,0.9-3.5,2.5-7.1,4.7
			c-4.4,2.7-7.3,5.3-9,7.8c-1.5,2.2-2.6,4.6-3.3,7.3l-0.4,1.6l26.8,0l1.8-8.6l-13.5,0c0.8-0.5,1.9-1.2,3.4-2.2L165.8,86.5z"/>
	</g>
	<g>
		<path class="st34" d="M148,83.8h-4l4.7-21.8l-10,0l-18,21.9l-1.7,7.9l13.9,0l-1.6,7.5l9.4,0l1.6-7.5h4L148,83.8z M129.6,83.8
			l6.9-8.6l-1.9,8.6L129.6,83.8z"/>
		<path class="st34" d="M165.8,86.5c2.8-1.7,4.8-3.2,6.2-4.6c2.1-2.2,3.5-4.7,4.1-7.5c0.8-3.8,0.2-6.9-1.8-9.2
			c-2-2.3-5.1-3.5-9.2-3.5c-5.1,0-9.1,1.9-12,5.7c-1.5,2-2.6,4.5-3.4,7.6l-0.4,1.6h9.4l0.2-1c0.4-1.8,0.9-3.1,1.5-3.9
			c0.9-1.2,2-1.8,3.7-1.8c1.4,0,1.9,0.5,2.1,0.9c0.4,0.7,0.5,1.6,0.3,2.7c-0.3,1.5-1.3,3-2.8,4.3c-1.1,0.9-3.5,2.5-7.1,4.7
			c-4.4,2.7-7.3,5.3-9,7.8c-1.5,2.2-2.6,4.6-3.3,7.3l-0.4,1.6l26.8,0l1.8-8.6l-13.5,0c0.8-0.5,1.9-1.2,3.4-2.2L165.8,86.5z"/>
	</g>
	<g>
		<path class="st34" d="M148,83.8h-4l4.7-21.8l-10,0l-18,21.9l-1.7,7.9l13.9,0l-1.6,7.5l9.4,0l1.6-7.5h4L148,83.8z M129.6,83.8
			l6.9-8.6l-1.9,8.6L129.6,83.8z"/>
		<path class="st34" d="M165.8,86.5c2.8-1.7,4.8-3.2,6.2-4.6c2.1-2.2,3.5-4.7,4.1-7.5c0.8-3.8,0.2-6.9-1.8-9.2
			c-2-2.3-5.1-3.5-9.2-3.5c-5.1,0-9.1,1.9-12,5.7c-1.5,2-2.6,4.5-3.4,7.6l-0.4,1.6h9.4l0.2-1c0.4-1.8,0.9-3.1,1.5-3.9
			c0.9-1.2,2-1.8,3.7-1.8c1.4,0,1.9,0.5,2.1,0.9c0.4,0.7,0.5,1.6,0.3,2.7c-0.3,1.5-1.3,3-2.8,4.3c-1.1,0.9-3.5,2.5-7.1,4.7
			c-4.4,2.7-7.3,5.3-9,7.8c-1.5,2.2-2.6,4.6-3.3,7.3l-0.4,1.6l26.8,0l1.8-8.6l-13.5,0c0.8-0.5,1.9-1.2,3.4-2.2L165.8,86.5z"/>
	</g>
	<g>
		<path class="st34" d="M148,83.8h-4l4.7-21.8l-10,0l-18,21.9l-1.7,7.9l13.9,0l-1.6,7.5l9.4,0l1.6-7.5h4L148,83.8z M129.6,83.8
			l6.9-8.6l-1.9,8.6L129.6,83.8z"/>
		<path class="st34" d="M165.8,86.5c2.8-1.7,4.8-3.2,6.2-4.6c2.1-2.2,3.5-4.7,4.1-7.5c0.8-3.8,0.2-6.9-1.8-9.2
			c-2-2.3-5.1-3.5-9.2-3.5c-5.1,0-9.1,1.9-12,5.7c-1.5,2-2.6,4.5-3.4,7.6l-0.4,1.6h9.4l0.2-1c0.4-1.8,0.9-3.1,1.5-3.9
			c0.9-1.2,2-1.8,3.7-1.8c1.4,0,1.9,0.5,2.1,0.9c0.4,0.7,0.5,1.6,0.3,2.7c-0.3,1.5-1.3,3-2.8,4.3c-1.1,0.9-3.5,2.5-7.1,4.7
			c-4.4,2.7-7.3,5.3-9,7.8c-1.5,2.2-2.6,4.6-3.3,7.3l-0.4,1.6l26.8,0l1.8-8.6l-13.5,0c0.8-0.5,1.9-1.2,3.4-2.2L165.8,86.5z"/>
	</g>
	<g>
		<path class="st34" d="M148,83.8h-4l4.7-21.8l-10,0l-18,21.9l-1.7,7.9l13.9,0l-1.6,7.5l9.4,0l1.6-7.5h4L148,83.8z M129.6,83.8
			l6.9-8.6l-1.9,8.6L129.6,83.8z"/>
		<path class="st34" d="M165.8,86.5c2.8-1.7,4.8-3.2,6.2-4.6c2.1-2.2,3.5-4.7,4.1-7.5c0.8-3.8,0.2-6.9-1.8-9.2
			c-2-2.3-5.1-3.5-9.2-3.5c-5.1,0-9.1,1.9-12,5.7c-1.5,2-2.6,4.5-3.4,7.6l-0.4,1.6h9.4l0.2-1c0.4-1.8,0.9-3.1,1.5-3.9
			c0.9-1.2,2-1.8,3.7-1.8c1.4,0,1.9,0.5,2.1,0.9c0.4,0.7,0.5,1.6,0.3,2.7c-0.3,1.5-1.3,3-2.8,4.3c-1.1,0.9-3.5,2.5-7.1,4.7
			c-4.4,2.7-7.3,5.3-9,7.8c-1.5,2.2-2.6,4.6-3.3,7.3l-0.4,1.6l26.8,0l1.8-8.6l-13.5,0c0.8-0.5,1.9-1.2,3.4-2.2L165.8,86.5z"/>
	</g>
	<g>
		<path class="st36" d="M148,83.8h-4l4.7-21.8l-10,0l-18,21.9l-1.7,7.9l13.9,0l-1.6,7.5l9.4,0l1.6-7.5h4L148,83.8z M129.6,83.8
			l6.9-8.6l-1.9,8.6L129.6,83.8z"/>
		<path class="st36" d="M165.8,86.5c2.8-1.7,4.8-3.2,6.2-4.6c2.1-2.2,3.5-4.7,4.1-7.5c0.8-3.8,0.2-6.9-1.8-9.2
			c-2-2.3-5.1-3.5-9.2-3.5c-5.1,0-9.1,1.9-12,5.7c-1.5,2-2.6,4.5-3.4,7.6l-0.4,1.6h9.4l0.2-1c0.4-1.8,0.9-3.1,1.5-3.9
			c0.9-1.2,2-1.8,3.7-1.8c1.4,0,1.9,0.5,2.1,0.9c0.4,0.7,0.5,1.6,0.3,2.7c-0.3,1.5-1.3,3-2.8,4.3c-1.1,0.9-3.5,2.5-7.1,4.7
			c-4.4,2.7-7.3,5.3-9,7.8c-1.5,2.2-2.6,4.6-3.3,7.3l-0.4,1.6l26.8,0l1.8-8.6l-13.5,0c0.8-0.5,1.9-1.2,3.4-2.2L165.8,86.5z"/>
	</g>
	<g>
		<path class="st36" d="M148,83.8h-4l4.7-21.8l-10,0l-18,21.9l-1.7,7.9l13.9,0l-1.6,7.5l9.4,0l1.6-7.5h4L148,83.8z M129.6,83.8
			l6.9-8.6l-1.9,8.6L129.6,83.8z"/>
		<path class="st36" d="M165.8,86.5c2.8-1.7,4.8-3.2,6.2-4.6c2.1-2.2,3.5-4.7,4.1-7.5c0.8-3.8,0.2-6.9-1.8-9.2
			c-2-2.3-5.1-3.5-9.2-3.5c-5.1,0-9.1,1.9-12,5.7c-1.5,2-2.6,4.5-3.4,7.6l-0.4,1.6h9.4l0.2-1c0.4-1.8,0.9-3.1,1.5-3.9
			c0.9-1.2,2-1.8,3.7-1.8c1.4,0,1.9,0.5,2.1,0.9c0.4,0.7,0.5,1.6,0.3,2.7c-0.3,1.5-1.3,3-2.8,4.3c-1.1,0.9-3.5,2.5-7.1,4.7
			c-4.4,2.7-7.3,5.3-9,7.8c-1.5,2.2-2.6,4.6-3.3,7.3l-0.4,1.6l26.8,0l1.8-8.6l-13.5,0c0.8-0.5,1.9-1.2,3.4-2.2L165.8,86.5z"/>
	</g>
	<g>
		<path class="st36" d="M148,83.8h-4l4.7-21.8l-10,0l-18,21.9l-1.7,7.9l13.9,0l-1.6,7.5l9.4,0l1.6-7.5h4L148,83.8z M129.6,83.8
			l6.9-8.6l-1.9,8.6L129.6,83.8z"/>
		<path class="st36" d="M165.8,86.5c2.8-1.7,4.8-3.2,6.2-4.6c2.1-2.2,3.5-4.7,4.1-7.5c0.8-3.8,0.2-6.9-1.8-9.2
			c-2-2.3-5.1-3.5-9.2-3.5c-5.1,0-9.1,1.9-12,5.7c-1.5,2-2.6,4.5-3.4,7.6l-0.4,1.6h9.4l0.2-1c0.4-1.8,0.9-3.1,1.5-3.9
			c0.9-1.2,2-1.8,3.7-1.8c1.4,0,1.9,0.5,2.1,0.9c0.4,0.7,0.5,1.6,0.3,2.7c-0.3,1.5-1.3,3-2.8,4.3c-1.1,0.9-3.5,2.5-7.1,4.7
			c-4.4,2.7-7.3,5.3-9,7.8c-1.5,2.2-2.6,4.6-3.3,7.3l-0.4,1.6l26.8,0l1.8-8.6l-13.5,0c0.8-0.5,1.9-1.2,3.4-2.2L165.8,86.5z"/>
	</g>
	<g>
		<path class="st36" d="M148,83.8h-4l4.7-21.8l-10,0l-18,21.9l-1.7,7.9l13.9,0l-1.6,7.5l9.4,0l1.6-7.5h4L148,83.8z M129.6,83.8
			l6.9-8.6l-1.9,8.6L129.6,83.8z"/>
		<path class="st36" d="M165.8,86.5c2.8-1.7,4.8-3.2,6.2-4.6c2.1-2.2,3.5-4.7,4.1-7.5c0.8-3.8,0.2-6.9-1.8-9.2
			c-2-2.3-5.1-3.5-9.2-3.5c-5.1,0-9.1,1.9-12,5.7c-1.5,2-2.6,4.5-3.4,7.6l-0.4,1.6h9.4l0.2-1c0.4-1.8,0.9-3.1,1.5-3.9
			c0.9-1.2,2-1.8,3.7-1.8c1.4,0,1.9,0.5,2.1,0.9c0.4,0.7,0.5,1.6,0.3,2.7c-0.3,1.5-1.3,3-2.8,4.3c-1.1,0.9-3.5,2.5-7.1,4.7
			c-4.4,2.7-7.3,5.3-9,7.8c-1.5,2.2-2.6,4.6-3.3,7.3l-0.4,1.6l26.8,0l1.8-8.6l-13.5,0c0.8-0.5,1.9-1.2,3.4-2.2L165.8,86.5z"/>
	</g>
	<g>
		<path class="st36" d="M148,83.8h-4l4.7-21.8l-10,0l-18,21.9l-1.7,7.9l13.9,0l-1.6,7.5l9.4,0l1.6-7.5h4L148,83.8z M129.6,83.8
			l6.9-8.6l-1.9,8.6L129.6,83.8z"/>
		<path class="st36" d="M165.8,86.5c2.8-1.7,4.8-3.2,6.2-4.6c2.1-2.2,3.5-4.7,4.1-7.5c0.8-3.8,0.2-6.9-1.8-9.2
			c-2-2.3-5.1-3.5-9.2-3.5c-5.1,0-9.1,1.9-12,5.7c-1.5,2-2.6,4.5-3.4,7.6l-0.4,1.6h9.4l0.2-1c0.4-1.8,0.9-3.1,1.5-3.9
			c0.9-1.2,2-1.8,3.7-1.8c1.4,0,1.9,0.5,2.1,0.9c0.4,0.7,0.5,1.6,0.3,2.7c-0.3,1.5-1.3,3-2.8,4.3c-1.1,0.9-3.5,2.5-7.1,4.7
			c-4.4,2.7-7.3,5.3-9,7.8c-1.5,2.2-2.6,4.6-3.3,7.3l-0.4,1.6l26.8,0l1.8-8.6l-13.5,0c0.8-0.5,1.9-1.2,3.4-2.2L165.8,86.5z"/>
	</g>
	<g>
		<path class="st36" d="M148,83.8h-4l4.7-21.8l-10,0l-18,21.9l-1.7,7.9l13.9,0l-1.6,7.5l9.4,0l1.6-7.5h4L148,83.8z M129.6,83.8
			l6.9-8.6l-1.9,8.6L129.6,83.8z"/>
		<path class="st36" d="M165.8,86.5c2.8-1.7,4.8-3.2,6.2-4.6c2.1-2.2,3.5-4.7,4.1-7.5c0.8-3.8,0.2-6.9-1.8-9.2
			c-2-2.3-5.1-3.5-9.2-3.5c-5.1,0-9.1,1.9-12,5.7c-1.5,2-2.6,4.5-3.4,7.6l-0.4,1.6h9.4l0.2-1c0.4-1.8,0.9-3.1,1.5-3.9
			c0.9-1.2,2-1.8,3.7-1.8c1.4,0,1.9,0.5,2.1,0.9c0.4,0.7,0.5,1.6,0.3,2.7c-0.3,1.5-1.3,3-2.8,4.3c-1.1,0.9-3.5,2.5-7.1,4.7
			c-4.4,2.7-7.3,5.3-9,7.8c-1.5,2.2-2.6,4.6-3.3,7.3l-0.4,1.6l26.8,0l1.8-8.6l-13.5,0c0.8-0.5,1.9-1.2,3.4-2.2L165.8,86.5z"/>
	</g>
	<g>
		<path class="st36" d="M148,83.8h-4l4.7-21.8l-10,0l-18,21.9l-1.7,7.9l13.9,0l-1.6,7.5l9.4,0l1.6-7.5h4L148,83.8z M129.6,83.8
			l6.9-8.6l-1.9,8.6L129.6,83.8z"/>
		<path class="st36" d="M165.8,86.5c2.8-1.7,4.8-3.2,6.2-4.6c2.1-2.2,3.5-4.7,4.1-7.5c0.8-3.8,0.2-6.9-1.8-9.2
			c-2-2.3-5.1-3.5-9.2-3.5c-5.1,0-9.1,1.9-12,5.7c-1.5,2-2.6,4.5-3.4,7.6l-0.4,1.6h9.4l0.2-1c0.4-1.8,0.9-3.1,1.5-3.9
			c0.9-1.2,2-1.8,3.7-1.8c1.4,0,1.9,0.5,2.1,0.9c0.4,0.7,0.5,1.6,0.3,2.7c-0.3,1.5-1.3,3-2.8,4.3c-1.1,0.9-3.5,2.5-7.1,4.7
			c-4.4,2.7-7.3,5.3-9,7.8c-1.5,2.2-2.6,4.6-3.3,7.3l-0.4,1.6l26.8,0l1.8-8.6l-13.5,0c0.8-0.5,1.9-1.2,3.4-2.2L165.8,86.5z"/>
	</g>
	<g>
		<path class="st36" d="M148,83.8h-4l4.7-21.8l-10,0l-18,21.9l-1.7,7.9l13.9,0l-1.6,7.5l9.4,0l1.6-7.5h4L148,83.8z M129.6,83.8
			l6.9-8.6l-1.9,8.6L129.6,83.8z"/>
		<path class="st36" d="M165.8,86.5c2.8-1.7,4.8-3.2,6.2-4.6c2.1-2.2,3.5-4.7,4.1-7.5c0.8-3.8,0.2-6.9-1.8-9.2
			c-2-2.3-5.1-3.5-9.2-3.5c-5.1,0-9.1,1.9-12,5.7c-1.5,2-2.6,4.5-3.4,7.6l-0.4,1.6h9.4l0.2-1c0.4-1.8,0.9-3.1,1.5-3.9
			c0.9-1.2,2-1.8,3.7-1.8c1.4,0,1.9,0.5,2.1,0.9c0.4,0.7,0.5,1.6,0.3,2.7c-0.3,1.5-1.3,3-2.8,4.3c-1.1,0.9-3.5,2.5-7.1,4.7
			c-4.4,2.7-7.3,5.3-9,7.8c-1.5,2.2-2.6,4.6-3.3,7.3l-0.4,1.6l26.8,0l1.8-8.6l-13.5,0c0.8-0.5,1.9-1.2,3.4-2.2L165.8,86.5z"/>
	</g>
	<g>
		<path class="st36" d="M148,83.8h-4l4.7-21.8l-10,0l-18,21.9l-1.7,7.9l13.9,0l-1.6,7.5l9.4,0l1.6-7.5h4L148,83.8z M129.6,83.8
			l6.9-8.6l-1.9,8.6L129.6,83.8z"/>
		<path class="st36" d="M165.8,86.5c2.8-1.7,4.8-3.2,6.2-4.6c2.1-2.2,3.5-4.7,4.1-7.5c0.8-3.8,0.2-6.9-1.8-9.2
			c-2-2.3-5.1-3.5-9.2-3.5c-5.1,0-9.1,1.9-12,5.7c-1.5,2-2.6,4.5-3.4,7.6l-0.4,1.6h9.4l0.2-1c0.4-1.8,0.9-3.1,1.5-3.9
			c0.9-1.2,2-1.8,3.7-1.8c1.4,0,1.9,0.5,2.1,0.9c0.4,0.7,0.5,1.6,0.3,2.7c-0.3,1.5-1.3,3-2.8,4.3c-1.1,0.9-3.5,2.5-7.1,4.7
			c-4.4,2.7-7.3,5.3-9,7.8c-1.5,2.2-2.6,4.6-3.3,7.3l-0.4,1.6l26.8,0l1.8-8.6l-13.5,0c0.8-0.5,1.9-1.2,3.4-2.2L165.8,86.5z"/>
	</g>
	<g>
		<path class="st36" d="M148,83.8h-4l4.7-21.8l-10,0l-18,21.9l-1.7,7.9l13.9,0l-1.6,7.5l9.4,0l1.6-7.5h4L148,83.8z M129.6,83.8
			l6.9-8.6l-1.9,8.6L129.6,83.8z"/>
		<path class="st36" d="M165.8,86.5c2.8-1.7,4.8-3.2,6.2-4.6c2.1-2.2,3.5-4.7,4.1-7.5c0.8-3.8,0.2-6.9-1.8-9.2
			c-2-2.3-5.1-3.5-9.2-3.5c-5.1,0-9.1,1.9-12,5.7c-1.5,2-2.6,4.5-3.4,7.6l-0.4,1.6h9.4l0.2-1c0.4-1.8,0.9-3.1,1.5-3.9
			c0.9-1.2,2-1.8,3.7-1.8c1.4,0,1.9,0.5,2.1,0.9c0.4,0.7,0.5,1.6,0.3,2.7c-0.3,1.5-1.3,3-2.8,4.3c-1.1,0.9-3.5,2.5-7.1,4.7
			c-4.4,2.7-7.3,5.3-9,7.8c-1.5,2.2-2.6,4.6-3.3,7.3l-0.4,1.6l26.8,0l1.8-8.6l-13.5,0c0.8-0.5,1.9-1.2,3.4-2.2L165.8,86.5z"/>
	</g>
	<g>
		<path class="st36" d="M148,83.8h-4l4.7-21.8l-10,0l-18,21.9l-1.7,7.9l13.9,0l-1.6,7.5l9.4,0l1.6-7.5h4L148,83.8z M129.6,83.8
			l6.9-8.6l-1.9,8.6L129.6,83.8z"/>
		<path class="st36" d="M165.8,86.5c2.8-1.7,4.8-3.2,6.2-4.6c2.1-2.2,3.5-4.7,4.1-7.5c0.8-3.8,0.2-6.9-1.8-9.2
			c-2-2.3-5.1-3.5-9.2-3.5c-5.1,0-9.1,1.9-12,5.7c-1.5,2-2.6,4.5-3.4,7.6l-0.4,1.6h9.4l0.2-1c0.4-1.8,0.9-3.1,1.5-3.9
			c0.9-1.2,2-1.8,3.7-1.8c1.4,0,1.9,0.5,2.1,0.9c0.4,0.7,0.5,1.6,0.3,2.7c-0.3,1.5-1.3,3-2.8,4.3c-1.1,0.9-3.5,2.5-7.1,4.7
			c-4.4,2.7-7.3,5.3-9,7.8c-1.5,2.2-2.6,4.6-3.3,7.3l-0.4,1.6l26.8,0l1.8-8.6l-13.5,0c0.8-0.5,1.9-1.2,3.4-2.2L165.8,86.5z"/>
	</g>
	<g>
		<path class="st36" d="M148,83.8h-4l4.7-21.8l-10,0l-18,21.9l-1.7,7.9l13.9,0l-1.6,7.5l9.4,0l1.6-7.5h4L148,83.8z M129.6,83.8
			l6.9-8.6l-1.9,8.6L129.6,83.8z"/>
		<path class="st36" d="M165.8,86.5c2.8-1.7,4.8-3.2,6.2-4.6c2.1-2.2,3.5-4.7,4.1-7.5c0.8-3.8,0.2-6.9-1.8-9.2
			c-2-2.3-5.1-3.5-9.2-3.5c-5.1,0-9.1,1.9-12,5.7c-1.5,2-2.6,4.5-3.4,7.6l-0.4,1.6h9.4l0.2-1c0.4-1.8,0.9-3.1,1.5-3.9
			c0.9-1.2,2-1.8,3.7-1.8c1.4,0,1.9,0.5,2.1,0.9c0.4,0.7,0.5,1.6,0.3,2.7c-0.3,1.5-1.3,3-2.8,4.3c-1.1,0.9-3.5,2.5-7.1,4.7
			c-4.4,2.7-7.3,5.3-9,7.8c-1.5,2.2-2.6,4.6-3.3,7.3l-0.4,1.6l26.8,0l1.8-8.6l-13.5,0c0.8-0.5,1.9-1.2,3.4-2.2L165.8,86.5z"/>
	</g>
	<g>
		<path class="st36" d="M148,83.8h-4l4.7-21.8l-10,0l-18,21.9l-1.7,7.9l13.9,0l-1.6,7.5l9.4,0l1.6-7.5h4L148,83.8z M129.6,83.8
			l6.9-8.6l-1.9,8.6L129.6,83.8z"/>
		<path class="st36" d="M165.8,86.5c2.8-1.7,4.8-3.2,6.2-4.6c2.1-2.2,3.5-4.7,4.1-7.5c0.8-3.8,0.2-6.9-1.8-9.2
			c-2-2.3-5.1-3.5-9.2-3.5c-5.1,0-9.1,1.9-12,5.7c-1.5,2-2.6,4.5-3.4,7.6l-0.4,1.6h9.4l0.2-1c0.4-1.8,0.9-3.1,1.5-3.9
			c0.9-1.2,2-1.8,3.7-1.8c1.4,0,1.9,0.5,2.1,0.9c0.4,0.7,0.5,1.6,0.3,2.7c-0.3,1.5-1.3,3-2.8,4.3c-1.1,0.9-3.5,2.5-7.1,4.7
			c-4.4,2.7-7.3,5.3-9,7.8c-1.5,2.2-2.6,4.6-3.3,7.3l-0.4,1.6l26.8,0l1.8-8.6l-13.5,0c0.8-0.5,1.9-1.2,3.4-2.2L165.8,86.5z"/>
	</g>
	<g>
		<path class="st36" d="M148,83.8h-4l4.7-21.8l-10,0l-18,21.9l-1.7,7.9l13.9,0l-1.6,7.5l9.4,0l1.6-7.5h4L148,83.8z M129.6,83.8
			l6.9-8.6l-1.9,8.6L129.6,83.8z"/>
		<path class="st36" d="M165.8,86.5c2.8-1.7,4.8-3.2,6.2-4.6c2.1-2.2,3.5-4.7,4.1-7.5c0.8-3.8,0.2-6.9-1.8-9.2
			c-2-2.3-5.1-3.5-9.2-3.5c-5.1,0-9.1,1.9-12,5.7c-1.5,2-2.6,4.5-3.4,7.6l-0.4,1.6h9.4l0.2-1c0.4-1.8,0.9-3.1,1.5-3.9
			c0.9-1.2,2-1.8,3.7-1.8c1.4,0,1.9,0.5,2.1,0.9c0.4,0.7,0.5,1.6,0.3,2.7c-0.3,1.5-1.3,3-2.8,4.3c-1.1,0.9-3.5,2.5-7.1,4.7
			c-4.4,2.7-7.3,5.3-9,7.8c-1.5,2.2-2.6,4.6-3.3,7.3l-0.4,1.6l26.8,0l1.8-8.6l-13.5,0c0.8-0.5,1.9-1.2,3.4-2.2L165.8,86.5z"/>
	</g>
	<g>
		<path class="st36" d="M148,83.8h-4l4.7-21.8l-10,0l-18,21.9l-1.7,7.9l13.9,0l-1.6,7.5l9.4,0l1.6-7.5h4L148,83.8z M129.6,83.8
			l6.9-8.6l-1.9,8.6L129.6,83.8z"/>
		<path class="st36" d="M165.8,86.5c2.8-1.7,4.8-3.2,6.2-4.6c2.1-2.2,3.5-4.7,4.1-7.5c0.8-3.8,0.2-6.9-1.8-9.2
			c-2-2.3-5.1-3.5-9.2-3.5c-5.1,0-9.1,1.9-12,5.7c-1.5,2-2.6,4.5-3.4,7.6l-0.4,1.6h9.4l0.2-1c0.4-1.8,0.9-3.1,1.5-3.9
			c0.9-1.2,2-1.8,3.7-1.8c1.4,0,1.9,0.5,2.1,0.9c0.4,0.7,0.5,1.6,0.3,2.7c-0.3,1.5-1.3,3-2.8,4.3c-1.1,0.9-3.5,2.5-7.1,4.7
			c-4.4,2.7-7.3,5.3-9,7.8c-1.5,2.2-2.6,4.6-3.3,7.3l-0.4,1.6l26.8,0l1.8-8.6l-13.5,0c0.8-0.5,1.9-1.2,3.4-2.2L165.8,86.5z"/>
	</g>
	<g>
		<path class="st36" d="M148,83.8h-4l4.7-21.8l-10,0l-18,21.9l-1.7,7.9l13.9,0l-1.6,7.5l9.4,0l1.6-7.5h4L148,83.8z M129.6,83.8
			l6.9-8.6l-1.9,8.6L129.6,83.8z"/>
		<path class="st36" d="M165.8,86.5c2.8-1.7,4.8-3.2,6.2-4.6c2.1-2.2,3.5-4.7,4.1-7.5c0.8-3.8,0.2-6.9-1.8-9.2
			c-2-2.3-5.1-3.5-9.2-3.5c-5.1,0-9.1,1.9-12,5.7c-1.5,2-2.6,4.5-3.4,7.6l-0.4,1.6h9.4l0.2-1c0.4-1.8,0.9-3.1,1.5-3.9
			c0.9-1.2,2-1.8,3.7-1.8c1.4,0,1.9,0.5,2.1,0.9c0.4,0.7,0.5,1.6,0.3,2.7c-0.3,1.5-1.3,3-2.8,4.3c-1.1,0.9-3.5,2.5-7.1,4.7
			c-4.4,2.7-7.3,5.3-9,7.8c-1.5,2.2-2.6,4.6-3.3,7.3l-0.4,1.6l26.8,0l1.8-8.6l-13.5,0c0.8-0.5,1.9-1.2,3.4-2.2L165.8,86.5z"/>
	</g>
	<g>
		<path class="st36" d="M148,83.8h-4l4.7-21.8l-10,0l-18,21.9l-1.7,7.9l13.9,0l-1.6,7.5l9.4,0l1.6-7.5h4L148,83.8z M129.6,83.8
			l6.9-8.6l-1.9,8.6L129.6,83.8z"/>
		<path class="st36" d="M165.8,86.5c2.8-1.7,4.8-3.2,6.2-4.6c2.1-2.2,3.5-4.7,4.1-7.5c0.8-3.8,0.2-6.9-1.8-9.2
			c-2-2.3-5.1-3.5-9.2-3.5c-5.1,0-9.1,1.9-12,5.7c-1.5,2-2.6,4.5-3.4,7.6l-0.4,1.6h9.4l0.2-1c0.4-1.8,0.9-3.1,1.5-3.9
			c0.9-1.2,2-1.8,3.7-1.8c1.4,0,1.9,0.5,2.1,0.9c0.4,0.7,0.5,1.6,0.3,2.7c-0.3,1.5-1.3,3-2.8,4.3c-1.1,0.9-3.5,2.5-7.1,4.7
			c-4.4,2.7-7.3,5.3-9,7.8c-1.5,2.2-2.6,4.6-3.3,7.3l-0.4,1.6l26.8,0l1.8-8.6l-13.5,0c0.8-0.5,1.9-1.2,3.4-2.2L165.8,86.5z"/>
	</g>
</g>
<linearGradient id="SVGID_00000056428764077224018180000006879521479478607289_" gradientUnits="userSpaceOnUse" x1="122.1454" y1="373" x2="122.1454" y2="0.2173">
	<stop  offset="0" style="stop-color:#FFFFFF;stop-opacity:1.000000e-02"/>
	<stop  offset="1" style="stop-color:#FFFFFF;stop-opacity:0.1"/>
</linearGradient>
<path style="fill:url(#SVGID_00000056428764077224018180000006879521479478607289_);" d="M242.7,1.7v369.8H1.6V1.7H242.7 M244.2,0.2
	H0.1V373h244.1V0.2L244.2,0.2z"/>
</svg>
